<svg width="57" height="56" viewBox="0 0 57 56" fill="none" xmlns="http://www.w3.org/2000/svg">
<g id="0c9413cc-2572-4754-af4c-f15b921b95bb-1696571795190-4102515828415223.svg%2Bxml" clip-path="url(#clip0_7_1859)">
<path id="Vector" d="M48.2 0H8.20001C3.78173 0 0.200012 3.58172 0.200012 8V48C0.200012 52.4183 3.78173 56 8.20001 56H48.2C52.6183 56 56.2 52.4183 56.2 48V8C56.2 3.58172 52.6183 0 48.2 0Z" fill="#FFF0E9"/>
<path id="Vector_2" d="M20.5283 29.1156C20.8779 28.8718 21.2275 28.6299 21.5752 28.3851C21.7372 28.2715 21.885 28.1326 22.0574 28.0393C22.263 27.9276 22.3132 27.7683 22.318 27.5449C22.3255 27.1515 22.3322 26.7532 22.3994 26.3676C22.4714 25.9538 22.7443 25.6634 23.1252 25.5099C23.3554 25.4176 23.453 25.2874 23.4416 25.0242C23.4208 24.5317 23.434 24.0383 23.4369 23.5448C23.4369 23.3758 23.3895 23.266 23.2436 23.1456C22.9073 22.8687 22.7149 22.4714 22.5605 22.0615C22.3265 21.4408 22.3009 20.7958 22.426 20.1538C22.4866 19.8419 22.6363 19.5496 22.7377 19.2455C22.7775 19.1261 22.8182 19.0007 22.822 18.8774C22.8334 18.4976 22.8239 18.1178 22.8286 17.738C22.8315 17.467 22.984 17.2785 23.1991 17.262C23.4037 17.2465 23.5847 17.432 23.6235 17.6943C23.6927 18.1634 23.6879 18.1566 24.0811 17.9041C24.966 17.3348 25.8528 16.7685 26.7453 16.2129C26.949 16.0857 27.0437 15.9409 27.0428 15.6894C27.0399 15.125 27.0342 14.5567 27.092 13.9963C27.1451 13.4775 27.6671 13.0463 28.1749 13.0074C28.7823 12.9608 29.2939 13.1269 29.5752 13.7204C29.6709 13.9224 29.705 14.1682 29.7164 14.3965C29.7382 14.8316 29.7344 15.2697 29.7202 15.7059C29.7126 15.939 29.8074 16.0789 29.9883 16.1993C30.9121 16.8113 31.832 17.43 32.7558 18.043C32.8221 18.0867 32.9083 18.0993 33.0135 18.1362C33.021 17.9876 33.0258 17.8759 33.0324 17.7652C33.0504 17.4631 33.1755 17.3164 33.419 17.3106C33.67 17.3047 33.8055 17.4572 33.8188 17.7739C33.8264 17.9429 33.8377 18.1149 33.8188 18.2829C33.7591 18.8308 33.9211 19.3232 34.1134 19.8254C34.3844 20.5326 34.3768 21.2679 34.1115 21.9799C33.9865 22.3151 33.797 22.6239 33.6293 22.9416C33.5886 23.0183 33.5345 23.1145 33.4644 23.1427C33.1717 23.2602 33.2011 23.505 33.2029 23.7488C33.2067 24.218 33.2105 24.6871 33.202 25.1553C33.1982 25.3389 33.2693 25.4351 33.4341 25.4963C33.9903 25.7042 34.3228 26.183 34.3351 26.7863C34.3408 27.0777 34.3285 27.3691 34.3427 27.6595C34.3474 27.7547 34.3815 27.8868 34.4479 27.9354C34.9718 28.3191 35.5071 28.6872 36.0395 29.0593C36.0642 29.0767 36.0954 29.0855 36.1873 29.1263C36.1873 28.9165 36.1997 28.7397 36.1788 28.5668C36.1741 28.525 36.0632 28.4755 35.995 28.4658C35.7932 28.4356 35.653 28.3404 35.6236 28.1258C35.5933 27.9043 35.6928 27.7683 35.8946 27.6741C35.9761 27.6362 36.0632 27.5002 36.0651 27.4079C36.0755 26.7183 36.3048 26.1549 36.8695 25.744C37.202 25.5011 37.5024 25.2117 37.8349 24.9688C38.0263 24.829 38.0983 24.6667 38.0822 24.4365C38.067 24.2306 38.0888 24.0315 38.2707 23.8935C38.501 23.7197 38.8202 23.8391 38.8837 24.1247C38.8923 24.1636 38.9008 24.2073 38.8932 24.2452C38.8146 24.6483 39.0211 24.8804 39.3271 25.0873C39.6606 25.3137 39.9695 25.5788 40.2859 25.8314C40.7606 26.2112 40.9671 26.727 40.9794 27.3293C40.9832 27.506 40.9955 27.6411 41.1642 27.7605C41.258 27.8276 41.312 28.0286 41.2959 28.1578C41.2826 28.2627 41.1538 28.3939 41.0486 28.4337C40.8989 28.4891 40.8459 28.5716 40.8459 28.7144C40.8449 29.272 40.8496 29.8305 40.843 30.3881C40.8402 30.6008 40.9586 30.6154 41.1187 30.6144C42.2234 30.6115 43.3281 30.6125 44.4319 30.6125C45.0629 30.6125 45.6938 30.6057 46.3248 30.6164C46.5333 30.6202 46.6015 30.5435 46.5977 30.3347C46.5882 29.8169 46.5929 29.3002 46.5948 28.7824C46.5948 28.592 46.5626 28.4541 46.3267 28.4502C46.1401 28.4473 46.0283 28.3123 45.998 28.1277C45.9648 27.9276 46.0453 27.7654 46.2301 27.7032C46.412 27.642 46.4442 27.5274 46.447 27.3555C46.4575 26.7076 46.6725 26.1656 47.2097 25.7741C47.5745 25.5079 47.9099 25.2 48.2671 24.9232C48.4366 24.792 48.4603 24.625 48.4509 24.4317C48.4404 24.2257 48.4565 24.0276 48.6347 23.8848C48.8611 23.7031 49.1775 23.8071 49.2514 24.0936C49.2637 24.1403 49.2742 24.1927 49.2647 24.2374C49.1775 24.6541 49.3964 24.8872 49.709 25.099C50.0293 25.3166 50.3192 25.5818 50.6261 25.8197C51.1302 26.2112 51.3452 26.7425 51.3509 27.3739C51.3528 27.5342 51.3689 27.6498 51.5186 27.7605C51.6143 27.8315 51.6797 28.0277 51.6617 28.153C51.6465 28.2637 51.494 28.3531 51.4078 28.456C51.3386 28.5386 51.2657 28.6231 51.2211 28.7203C51.1937 28.7795 51.2145 28.863 51.2145 28.9359C51.2145 32.8738 51.2145 36.8108 51.2145 40.7487C51.2145 40.8138 51.2164 40.8779 51.2145 40.943C51.2107 41.1363 51.296 41.2111 51.4892 41.2091C52.2074 41.1994 52.9246 41.2033 53.6428 41.2033C53.9346 41.2033 54.0767 41.3131 54.1013 41.5472C54.1278 41.8026 54.0018 41.9678 53.7508 41.995C53.657 42.0047 53.5613 42.0027 53.4675 42.0027C36.7425 42.0027 20.0176 42.0027 3.29173 42.0027C3.20456 42.0027 3.1174 42.0047 3.03118 41.9979C2.78012 41.9765 2.64937 41.8357 2.65221 41.5957C2.65506 41.3597 2.79149 41.2188 3.04445 41.2033C3.17046 41.1955 3.29646 41.2043 3.42342 41.2052C4.03072 41.2052 4.63897 41.1975 5.24532 41.2091C5.45755 41.213 5.53239 41.1266 5.51913 40.9255C5.51629 40.8769 5.51913 40.8284 5.51913 40.7798C5.51913 36.8176 5.51913 32.8563 5.51913 28.8941C5.51913 28.8213 5.51913 28.7484 5.51724 28.6756C5.51439 28.5473 5.47365 28.4628 5.3268 28.456C5.11268 28.4454 4.9971 28.2987 4.97057 28.1005C4.94404 27.9033 5.05679 27.78 5.22543 27.6809C5.30027 27.6372 5.37323 27.508 5.37133 27.4186C5.35523 26.6687 5.65651 26.1005 6.25149 25.6731C6.55372 25.4565 6.82469 25.1932 7.12692 24.9766C7.32587 24.8338 7.39693 24.6677 7.38746 24.4258C7.38177 24.2879 7.39977 24.114 7.47841 24.0179C7.56557 23.912 7.75222 23.8003 7.86307 23.8284C7.99381 23.8615 8.09424 24.0363 8.19846 24.1587C8.22309 24.1878 8.21835 24.2549 8.20888 24.3005C8.13214 24.6823 8.34625 24.8872 8.62101 25.0825C8.96303 25.3263 9.29179 25.5905 9.61391 25.8625C10.0639 26.2413 10.26 26.7455 10.2392 27.337C10.2335 27.5148 10.2553 27.6449 10.4495 27.7139C10.621 27.7741 10.6608 27.9402 10.6437 28.1151C10.6267 28.2977 10.5282 28.4211 10.3519 28.4454C10.152 28.4735 10.0933 28.5833 10.0961 28.7766C10.1028 29.3021 10.1037 29.8276 10.0961 30.3531C10.0933 30.5416 10.1653 30.6134 10.3453 30.6134C12.1208 30.6105 13.8953 30.6105 15.6708 30.6134C15.8252 30.6134 15.8792 30.5542 15.8783 30.3997C15.8735 29.8334 15.8754 29.2681 15.8773 28.7018C15.8773 28.5493 15.8319 28.4609 15.6613 28.4599C15.4425 28.458 15.3013 28.3395 15.2805 28.1102C15.2596 27.881 15.3449 27.7197 15.5855 27.6692C15.776 27.6294 15.7352 27.4652 15.7324 27.3351C15.7201 26.7221 15.937 26.217 16.4022 25.8314C16.7632 25.5322 17.126 25.236 17.5003 24.9552C17.6784 24.8212 17.7627 24.6677 17.7333 24.4443C17.7248 24.3812 17.7305 24.3151 17.7343 24.25C17.7457 24.0334 17.9115 23.8236 18.0991 23.8061C18.3226 23.7847 18.442 23.9353 18.532 24.1169C18.5491 24.1519 18.5623 24.1976 18.5548 24.2345C18.4506 24.7279 18.7793 24.9581 19.0995 25.201C19.3781 25.4118 19.6566 25.6245 19.92 25.8537C20.3672 26.2423 20.5823 26.7445 20.5671 27.3467C20.5633 27.5138 20.5747 27.644 20.7594 27.7401C20.9887 27.8606 20.947 28.288 20.7149 28.4123C20.624 28.4609 20.4695 28.4939 20.4534 28.5609C20.4155 28.7241 20.4411 28.9038 20.4411 29.0767C20.4705 29.0913 20.4989 29.1049 20.5283 29.1195V29.1156ZM31.4275 22.4598C31.9088 22.4598 32.3901 22.4695 32.8695 22.452C32.9775 22.4481 33.1234 22.3811 33.1831 22.2937C33.455 21.8964 33.6094 21.4428 33.6113 20.959C33.6141 19.9838 33.2105 19.2106 32.4062 18.686C31.5118 18.1032 30.6042 17.5408 29.6956 16.9822C29.5051 16.8647 29.2863 16.7384 29.0741 16.7268C28.5956 16.6996 28.1134 16.7365 27.633 16.7579C27.5269 16.7627 27.4113 16.7899 27.3194 16.8433C27.0655 16.9881 26.822 17.1503 26.5747 17.3067C25.8538 17.7642 25.1479 18.247 24.4099 18.6734C23.2237 19.3582 22.7898 21.0387 23.507 22.2276C23.6197 22.4151 23.7419 22.4782 23.9437 22.4763C24.7794 22.4695 25.615 22.4734 26.4506 22.4734C27.0911 22.4734 27.11 22.4734 27.0873 21.807C27.0608 21.0202 27.4274 20.4733 28.03 20.0556C28.2384 19.9109 28.4601 19.8274 28.7112 19.9857C29.2001 20.2946 29.5667 20.7016 29.6719 21.2941C29.7221 21.5778 29.7202 21.8731 29.7183 22.1625C29.7174 22.3792 29.7903 22.4666 30.0082 22.4617C30.481 22.451 30.9538 22.4578 31.4275 22.4578V22.4598ZM43.7147 36.1075C44.5891 36.1075 45.4646 36.1085 46.339 36.1075C46.6147 36.1075 46.6583 36.0628 46.6593 35.785C46.6612 35.107 46.6612 34.428 46.6593 33.75C46.6593 33.4693 46.6157 33.4246 46.3428 33.4236C44.6015 33.4226 42.8601 33.4256 41.1178 33.4197C40.9055 33.4197 40.8392 33.514 40.8402 33.7092C40.8421 34.4115 40.844 35.1148 40.8402 35.8171C40.8392 36.0317 40.9226 36.1133 41.1386 36.1114C41.9979 36.1017 42.8554 36.1075 43.7147 36.1075ZM13.0171 36.1182C13.8764 36.1182 14.7347 36.1182 15.5941 36.1182C15.8811 36.1182 15.9143 36.09 15.9152 35.8074C15.9181 35.1128 15.9133 34.4183 15.9181 33.7238C15.92 33.4965 15.8328 33.4178 15.6054 33.4188C13.8792 33.4265 12.1539 33.4226 10.4277 33.4236C10.1388 33.4236 10.099 33.4654 10.098 33.7607C10.0961 34.4309 10.0961 35.1012 10.098 35.7714C10.098 36.0832 10.1331 36.1172 10.4391 36.1182C11.2984 36.1192 12.1578 36.1182 13.0171 36.1182ZM40.8411 38.2552C40.8411 38.635 40.8468 39.0158 40.8383 39.3956C40.8345 39.5704 40.8932 39.6433 41.0694 39.6413C41.7478 39.6355 42.4262 39.6355 43.1045 39.6413C43.2779 39.6423 43.3442 39.5733 43.3395 39.3966C43.3319 39.1382 43.3281 38.8778 43.3471 38.6204C43.367 38.3543 43.5536 38.1814 43.7725 38.1921C44.0055 38.2037 44.1429 38.3708 44.1486 38.6573C44.1533 38.908 44.1581 39.1586 44.1486 39.4092C44.1419 39.5763 44.2016 39.6404 44.3655 39.6394C45.0515 39.6345 45.7384 39.6365 46.4243 39.6394C46.5892 39.6394 46.664 39.5792 46.6621 39.3956C46.6545 38.6515 46.6536 37.9075 46.6621 37.1644C46.665 36.9507 46.5844 36.8807 46.3855 36.8817C44.6185 36.8856 42.8516 36.8856 41.0837 36.8817C40.8942 36.8817 40.8345 36.9584 40.8383 37.141C40.8449 37.5131 40.8402 37.8851 40.8402 38.2571L40.8411 38.2552ZM10.099 38.2377C10.099 38.6175 10.1066 38.9983 10.0961 39.3781C10.0905 39.5665 10.1587 39.6413 10.3406 39.6404C11.0265 39.6365 11.7134 39.6355 12.3993 39.6404C12.5699 39.6413 12.6144 39.5636 12.6097 39.4034C12.6011 39.145 12.6002 38.8856 12.6134 38.6272C12.6182 38.5301 12.6542 38.4223 12.7082 38.3426C12.8086 38.1959 12.9668 38.1493 13.1288 38.2125C13.3174 38.2853 13.4046 38.4534 13.414 38.6505C13.4263 38.9002 13.4254 39.1518 13.4197 39.4024C13.4159 39.5617 13.468 39.6413 13.6357 39.6404C14.3302 39.6365 15.0247 39.6375 15.7182 39.6404C15.8555 39.6404 15.919 39.586 15.9181 39.4393C15.9152 38.6632 15.9143 37.8871 15.9181 37.1109C15.9181 36.9458 15.8537 36.8827 15.6916 36.8827C13.9162 36.8856 12.1416 36.8865 10.3662 36.8827C10.1615 36.8827 10.0886 36.9633 10.0961 37.1721C10.1085 37.5276 10.0999 37.8832 10.099 38.2397V38.2377ZM28.3796 23.2952C28.2138 23.2952 28.0489 23.2952 27.8831 23.2952C26.7794 23.2952 25.6756 23.301 24.5728 23.2913C24.3322 23.2893 24.2583 23.3729 24.2649 23.6147C24.2801 24.1315 24.2744 24.6483 24.2668 25.166C24.2649 25.3389 24.3199 25.4195 24.497 25.4147C24.7803 25.4079 25.0645 25.4089 25.3478 25.4147C25.5506 25.4186 25.6292 25.3273 25.6226 25.1204C25.615 24.8872 25.6131 24.6502 25.6387 24.419C25.6652 24.184 25.831 24.0567 26.0451 24.0684C26.2593 24.08 26.3957 24.2199 26.4071 24.4647C26.4175 24.69 26.4213 24.9173 26.4108 25.1427C26.4023 25.3292 26.4743 25.4127 26.6543 25.4118C27.0248 25.4108 27.3952 25.4098 27.7657 25.4137C27.9059 25.4147 27.9656 25.3496 27.9646 25.2078C27.9627 24.9815 27.9608 24.7551 27.9675 24.5288C27.976 24.2452 28.1408 24.0664 28.3805 24.0674C28.6193 24.0674 28.7851 24.2481 28.7936 24.5307C28.8003 24.7483 28.8003 24.9669 28.7955 25.1854C28.7927 25.3399 28.8562 25.404 29.0077 25.4021C29.3943 25.3972 29.7799 25.3972 30.1664 25.4021C30.3247 25.404 30.372 25.3273 30.3692 25.1786C30.3645 24.9523 30.3645 24.726 30.3692 24.4997C30.3758 24.2286 30.5189 24.0664 30.7434 24.0625C30.9623 24.0587 31.1053 24.1995 31.1233 24.4666C31.1385 24.6842 31.1385 24.9028 31.129 25.1204C31.1205 25.3176 31.1982 25.404 31.3896 25.4011C31.6729 25.3972 31.9571 25.3953 32.2413 25.4011C32.4204 25.405 32.4952 25.3379 32.4914 25.1456C32.482 24.6454 32.4886 24.1441 32.4886 23.6429C32.4886 23.3039 32.481 23.2952 32.1399 23.2952C30.8865 23.2952 29.633 23.2952 28.3796 23.2952ZM28.3796 40.5224C25.2086 40.5224 22.0366 40.5224 18.8655 40.5224C18.5728 40.5224 18.5633 40.5331 18.5633 40.8371C18.5633 41.1285 18.587 41.1547 18.8741 41.1547C25.1858 41.1547 31.4966 41.1547 37.8084 41.1547C38.1305 41.1547 38.1589 41.1285 38.1599 40.8507C38.1618 40.5292 38.1561 40.5224 37.8226 40.5224C34.6753 40.5224 31.527 40.5224 28.3796 40.5224ZM28.3853 27.4138C29.995 27.4138 31.6037 27.4138 33.2134 27.4138C33.292 27.4138 33.3744 27.4215 33.4483 27.4011C33.4995 27.3866 33.5658 27.339 33.581 27.2914C33.7648 26.7221 33.4322 26.2501 32.8524 26.2501C29.9495 26.2501 27.0456 26.2501 24.1427 26.2501C23.993 26.2501 23.8433 26.2501 23.6927 26.253C23.4719 26.2588 23.3109 26.3676 23.2464 26.5803C23.201 26.7309 23.182 26.8951 23.1773 27.0534C23.1678 27.4118 23.1744 27.4138 23.5335 27.4138C25.1508 27.4138 26.768 27.4138 28.3853 27.4138ZM6.36992 30.5727C6.36992 31.1788 6.37276 31.7849 6.36803 32.3911C6.36613 32.5698 6.41445 32.6504 6.61057 32.6475C7.40735 32.6368 8.20319 32.6446 8.99998 32.6426C9.28326 32.6426 9.306 32.6164 9.30695 32.3182C9.30789 31.1545 9.30789 29.9908 9.30695 28.8271C9.30695 28.559 9.25294 28.5027 8.98577 28.5017C8.20509 28.4988 7.42441 28.5066 6.64373 28.4968C6.43529 28.4939 6.36518 28.5726 6.36803 28.7785C6.3756 29.3769 6.36992 29.9743 6.36992 30.5727ZM50.3893 30.6183C50.3893 30.0122 50.3855 29.4051 50.3912 28.7989C50.3931 28.6115 50.3457 28.5172 50.1392 28.5192C49.3424 28.527 48.5456 28.525 47.7488 28.5211C47.5252 28.5202 47.4466 28.6173 47.4485 28.8446C47.4561 30.0093 47.4513 31.173 47.4523 32.3376C47.4523 32.631 47.4703 32.6475 47.7678 32.6485C48.557 32.6504 49.3452 32.6436 50.1344 32.6533C50.3315 32.6553 50.395 32.5882 50.3921 32.3901C50.3827 31.8005 50.3893 31.2099 50.3893 30.6193V30.6183ZM28.3682 39.6394C30.8761 39.6394 33.3839 39.6394 35.8917 39.6394C35.978 39.6394 36.0699 39.6501 36.1495 39.6248C36.2035 39.6083 36.2698 39.5432 36.2811 39.4888C36.3721 39.0682 36.2717 38.9449 35.8557 38.9449C30.8713 38.9449 25.8869 38.9449 20.9025 38.9449C20.8239 38.9449 20.7395 38.9303 20.6675 38.9536C20.6012 38.974 20.5159 39.0236 20.4913 39.0818C20.3492 39.4267 20.4885 39.6404 20.8428 39.6404C23.3506 39.6404 25.8585 39.6404 28.3663 39.6404L28.3682 39.6394ZM16.7395 30.5445C16.7395 31.1506 16.7395 31.7567 16.7395 32.3629C16.7395 32.495 16.7395 32.6261 16.9299 32.6252C17.7656 32.6222 18.6012 32.6232 19.4368 32.6252C19.6064 32.6252 19.6784 32.5368 19.6775 32.3687C19.6756 32.1589 19.6689 31.9481 19.6803 31.7383C19.6888 31.5693 19.6244 31.4945 19.4634 31.4576C19.1839 31.3935 19.0635 31.2516 19.0579 30.9719C19.0474 30.5115 19.0427 30.0501 19.0607 29.5906C19.0692 29.3623 19.164 29.1758 19.433 29.136C19.6547 29.1039 19.704 28.9845 19.6784 28.6989C19.6604 28.4998 19.5373 28.4735 19.3809 28.4735C18.6002 28.4755 17.8196 28.4813 17.0389 28.4696C16.8124 28.4667 16.7319 28.5425 16.7357 28.7737C16.7461 29.3633 16.7395 29.9539 16.7395 30.5445ZM40.0405 30.5989C40.0405 30.0005 40.0386 29.4022 40.0415 28.8048C40.0415 28.6406 40.0159 28.5202 39.8132 28.5211C39.0012 28.526 38.1883 28.524 37.3764 28.5221C37.2248 28.5221 37.13 28.5833 37.1367 28.7484C37.1433 28.9087 37.0884 29.0991 37.3385 29.1418C37.6407 29.1933 37.7411 29.3196 37.744 29.6304C37.7487 30.0666 37.7478 30.5037 37.744 30.9398C37.7421 31.2254 37.617 31.3964 37.3432 31.4547C37.1878 31.4877 37.1281 31.5586 37.1329 31.715C37.1395 31.9413 37.1405 32.1676 37.1329 32.394C37.1262 32.5814 37.2011 32.6514 37.3839 32.6504C38.1883 32.6446 38.9927 32.6436 39.797 32.6504C39.9875 32.6524 40.0434 32.5756 40.0415 32.393C40.0349 31.7946 40.0405 31.1963 40.0405 30.5989ZM22.191 29.0398C22.2024 29.0709 22.2128 29.102 22.2242 29.1321C22.3236 29.1321 22.4231 29.1321 22.5235 29.1321C24.0063 29.1321 25.4899 29.1205 26.9727 29.1399C27.3403 29.1447 27.634 29.0835 27.8443 28.7513C27.9021 28.66 27.9997 28.593 28.084 28.5202C28.2526 28.3735 28.499 28.3696 28.6648 28.5202C28.8059 28.6484 28.9481 28.7785 29.0674 28.9272C29.1896 29.0787 29.327 29.137 29.5165 29.136C31.1025 29.1302 32.6875 29.1331 34.2735 29.1321C34.3635 29.1321 34.4536 29.1224 34.5436 29.1166C34.554 29.0913 34.5644 29.0661 34.5758 29.0408C34.3446 28.8718 34.103 28.7144 33.8851 28.5289C33.634 28.3162 33.3621 28.2462 33.0371 28.2482C31.2626 28.2608 29.4881 28.254 27.7136 28.254C26.3568 28.254 24.9992 28.2589 23.6425 28.2501C23.3866 28.2482 23.1668 28.2987 22.9631 28.4628C22.713 28.6649 22.4487 28.8485 22.191 29.0398ZM18.1881 39.6753C18.5898 39.6753 18.9925 39.6715 19.3942 39.6773C19.6026 39.6802 19.686 39.5967 19.6832 39.3742C19.6727 38.6719 19.6803 37.9686 19.6784 37.2663C19.6784 36.9788 19.6292 36.9303 19.3449 36.9293C18.5728 36.9273 17.7997 36.9351 17.0275 36.9244C16.8096 36.9215 16.7348 36.9992 16.7367 37.2178C16.7442 37.9531 16.7433 38.6884 16.7367 39.4228C16.7348 39.6093 16.7954 39.6841 16.982 39.6792C17.3837 39.6695 17.7864 39.6753 18.1881 39.6753ZM38.6052 39.6384C39.0069 39.6384 39.4095 39.6326 39.8113 39.6413C39.9875 39.6452 40.0453 39.5763 40.0434 39.3995C40.0367 38.6399 40.0377 37.8812 40.0424 37.1216C40.0434 36.9468 39.9837 36.8788 39.8075 36.8807C39.004 36.8875 38.1997 36.8875 37.3963 36.8807C37.2011 36.8788 37.1319 36.9536 37.1338 37.1508C37.1405 37.8939 37.1414 38.6369 37.1329 39.38C37.13 39.5869 37.2134 39.6462 37.401 39.6413C37.8027 39.6326 38.2044 39.6384 38.6071 39.6384H38.6052ZM48.9501 33.4226C48.5636 33.4226 48.178 33.4217 47.7914 33.4226C47.5015 33.4236 47.4542 33.4693 47.4532 33.7539C47.4513 34.4329 47.4561 35.1109 47.4504 35.7899C47.4485 36.0152 47.5347 36.1114 47.7592 36.1094C48.5551 36.1036 49.3519 36.1036 50.1477 36.1094C50.3211 36.1114 50.3912 36.0444 50.3902 35.8715C50.3883 35.1361 50.3874 34.4008 50.3902 33.6665C50.3902 33.479 50.3135 33.4139 50.1316 33.4188C49.7375 33.4294 49.3433 33.4217 48.9492 33.4217L48.9501 33.4226ZM18.2023 36.1172C18.5965 36.1172 18.9915 36.1114 19.3857 36.1192C19.5988 36.124 19.6832 36.0337 19.6813 35.8161C19.6746 35.1206 19.6756 34.4251 19.6813 33.7306C19.6832 33.5188 19.6083 33.4188 19.3913 33.4197C18.587 33.4256 17.7817 33.4256 16.9773 33.4197C16.7992 33.4188 16.7385 33.4955 16.7395 33.6645C16.7414 34.3998 16.7423 35.1361 16.7395 35.8715C16.7385 36.0599 16.8153 36.124 16.9963 36.1192C17.398 36.1085 17.8006 36.1162 18.2033 36.1162L18.2023 36.1172ZM7.80243 36.1065C8.21267 36.1065 8.62196 36.1046 9.03219 36.1065C9.21789 36.1075 9.30884 36.024 9.30789 35.8297C9.306 35.1187 9.306 34.4076 9.30789 33.6975C9.30789 33.5033 9.21789 33.4207 9.03219 33.4207C8.22025 33.4226 7.4083 33.4246 6.59636 33.4188C6.42961 33.4178 6.36992 33.4916 6.37087 33.649C6.37181 34.3921 6.37276 35.1352 6.37087 35.8783C6.37087 36.058 6.45424 36.1124 6.62099 36.1085C7.01512 36.0997 7.40925 36.1056 7.80338 36.1056L7.80243 36.1065ZM44.664 41.1538C46.4224 41.1538 48.1808 41.1538 49.9402 41.1538C50.0264 41.1538 50.1155 41.1606 50.1998 41.1431C50.2548 41.1314 50.3258 41.0965 50.3504 41.0498C50.5039 40.7662 50.341 40.4913 50.0236 40.4913C46.4433 40.4913 42.8629 40.4913 39.2826 40.4913C38.9377 40.4913 38.9169 40.5136 38.9245 40.8585C38.9292 41.112 38.9728 41.1528 39.2703 41.1528C41.0685 41.1538 42.8667 41.1538 44.664 41.1538ZM38.59 36.1065C38.9842 36.1065 39.3783 36.1007 39.7715 36.1094C39.9373 36.1124 40.0216 36.058 40.0225 35.8783C40.0254 35.1352 40.032 34.393 40.0358 33.6499C40.0367 33.4926 39.9704 33.4188 39.8056 33.4197C39.0022 33.4246 38.1987 33.4246 37.3953 33.4197C37.2106 33.4188 37.1357 33.5052 37.1357 33.681C37.1357 34.3998 37.1357 35.1177 37.1357 35.8365C37.1357 36.0249 37.2144 36.1133 37.4095 36.1094C37.8037 36.1007 38.1958 36.1065 38.59 36.1065ZM28.4184 38.1202C28.7889 38.1202 29.1584 38.1163 29.5288 38.1202C29.7193 38.1231 29.7941 38.0386 29.7932 37.8424C29.7875 37.1566 29.7846 36.4698 29.7941 35.784C29.7969 35.5684 29.7098 35.5023 29.5127 35.5043C28.7804 35.5101 28.048 35.5091 27.3156 35.5043C27.128 35.5033 27.0418 35.5791 27.0428 35.7763C27.0466 36.4621 27.0466 37.1478 27.0428 37.8346C27.0428 38.0405 27.1328 38.1241 27.3317 38.1202C27.6937 38.1134 28.0565 38.1182 28.4184 38.1182V38.1202ZM12.0478 40.4913C10.3595 40.4913 8.67122 40.4913 6.98291 40.4913C6.84079 40.4913 6.69773 40.4806 6.55751 40.4991C6.49403 40.5068 6.40119 40.5603 6.38413 40.6137C6.26476 40.9857 6.38887 41.1538 6.76784 41.1538C10.3017 41.1538 13.8366 41.1538 17.3705 41.1538C17.4415 41.1538 17.5135 41.1586 17.5827 41.147C17.6244 41.1402 17.6936 41.1081 17.6964 41.0819C17.7116 40.9158 17.7343 40.7429 17.7021 40.5826C17.6926 40.535 17.5183 40.4952 17.4198 40.4952C15.6291 40.4903 13.8385 40.4913 12.0478 40.4913ZM33.4133 38.1202C33.7837 38.1202 34.1542 38.1144 34.5246 38.1221C34.7037 38.126 34.788 38.0561 34.787 37.8696C34.7842 37.1585 34.7852 36.4475 34.787 35.7374C34.787 35.5752 34.716 35.5053 34.5559 35.5062C33.7989 35.5091 33.0428 35.5101 32.2858 35.5062C32.121 35.5062 32.0622 35.583 32.0622 35.7423C32.0651 36.4533 32.0651 37.1644 32.0622 37.8744C32.0622 38.0648 32.1485 38.127 32.3256 38.1221C32.6875 38.1134 33.0504 38.1202 33.4133 38.1202ZM23.3431 35.5082C22.965 35.5082 22.5861 35.5111 22.208 35.5062C22.0498 35.5043 21.9759 35.5703 21.9769 35.7345C21.9788 36.4455 21.9797 37.1556 21.9769 37.8667C21.9769 38.0512 22.0527 38.1231 22.2346 38.1221C22.9679 38.1163 23.7002 38.1153 24.4336 38.1221C24.6278 38.1241 24.7036 38.0464 24.7017 37.8521C24.6979 37.1576 24.696 36.463 24.7017 35.7685C24.7036 35.5655 24.6183 35.4994 24.4298 35.5043C24.0678 35.513 23.705 35.5072 23.3421 35.5072L23.3431 35.5082ZM48.9492 36.8836C48.5314 36.8836 48.1136 36.8856 47.6958 36.8836C47.5347 36.8827 47.4494 36.939 47.4504 37.1226C47.4551 37.89 47.4542 38.6573 47.4504 39.4247C47.4504 39.5695 47.5101 39.6355 47.6436 39.6375C47.872 39.6394 48.1003 39.6355 48.3296 39.6394C48.485 39.6413 48.5323 39.5617 48.5266 39.4121C48.5191 39.1867 48.5219 38.9594 48.5266 38.7341C48.5333 38.4466 48.7569 38.2057 49.0051 38.2105C49.187 38.2134 49.3272 38.4291 49.3348 38.7283C49.3405 38.9546 49.3414 39.1809 49.3348 39.4063C49.3301 39.5695 49.3935 39.6452 49.5556 39.6413C49.7678 39.6365 49.9809 39.6355 50.1941 39.6413C50.3362 39.6462 50.3893 39.5869 50.3893 39.4422C50.3855 38.6593 50.3846 37.8754 50.3893 37.0925C50.3893 36.9351 50.3287 36.8807 50.178 36.8827C49.7687 36.8895 49.3585 36.8846 48.9483 36.8856L48.9492 36.8836ZM7.81096 36.8836C7.40167 36.8836 6.99143 36.8875 6.58214 36.8817C6.43245 36.8797 6.36897 36.9303 6.36897 37.0896C6.37276 37.8725 6.37182 38.6554 6.36897 39.4393C6.36897 39.5821 6.41634 39.6462 6.5613 39.6413C6.76595 39.6345 6.97154 39.6336 7.17523 39.6413C7.35809 39.6491 7.43009 39.5724 7.42441 39.3839C7.41683 39.1255 7.41304 38.8662 7.43388 38.6098C7.45567 38.3397 7.64042 38.1765 7.86496 38.194C8.0895 38.2105 8.22025 38.3679 8.22593 38.6457C8.23162 38.9118 8.23256 39.179 8.22783 39.4451C8.22498 39.5792 8.27993 39.6384 8.40784 39.6375C8.62859 39.6375 8.84934 39.6345 9.06914 39.6404C9.25389 39.6452 9.31168 39.5597 9.30979 39.3752C9.30221 38.6408 9.29937 37.9055 9.30979 37.1712C9.31358 36.94 9.21978 36.8778 9.01419 36.8817C8.61248 36.8904 8.21077 36.8846 7.80906 36.8846L7.81096 36.8836ZM13.0047 31.4459C13.0047 31.4459 13.0047 31.4537 13.0047 31.4566C12.9024 31.4566 12.8001 31.4566 12.6968 31.4566C11.9313 31.4605 11.1667 31.4683 10.4012 31.4663C10.188 31.4663 10.0734 31.5304 10.0961 31.7742C10.1123 31.951 10.1037 32.1298 10.098 32.3075C10.0914 32.5115 10.1805 32.6038 10.3794 32.6038C12.1388 32.6018 13.8982 32.6018 15.6575 32.6057C15.8328 32.6057 15.901 32.5261 15.902 32.36C15.902 32.1579 15.8925 31.9549 15.9058 31.7538C15.9219 31.5236 15.8394 31.4381 15.6083 31.4411C14.7404 31.4517 13.8726 31.4459 13.0047 31.4459ZM43.7412 31.4692C42.8658 31.4692 41.9903 31.4731 41.1149 31.4663C40.9093 31.4644 40.8278 31.5392 40.8402 31.7499C40.8525 31.9598 40.843 32.1706 40.8449 32.3804C40.8458 32.5436 40.9093 32.629 41.0874 32.6281C42.8468 32.6242 44.6052 32.6242 46.3646 32.6281C46.5626 32.6281 46.6337 32.529 46.6346 32.3464C46.6346 32.1608 46.6365 31.9743 46.6356 31.7888C46.6337 31.4993 46.6081 31.4712 46.322 31.4702C45.4617 31.4683 44.6024 31.4702 43.7421 31.4702L43.7412 31.4692ZM18.2222 27.642C18.6476 27.642 19.0721 27.6391 19.4975 27.643C19.7229 27.6449 19.831 27.5294 19.8414 27.3069C19.8594 26.9426 19.7324 26.6415 19.4472 26.423C19.0825 26.1442 18.7073 25.88 18.3425 25.6012C18.2146 25.5041 18.1142 25.4992 17.9863 25.6051C17.6632 25.8741 17.3354 26.1374 17.0029 26.3929C16.7082 26.6182 16.5661 26.9057 16.5908 27.2855C16.6097 27.575 16.6599 27.6381 16.9479 27.6411C17.3733 27.6449 17.7968 27.642 18.2222 27.642ZM7.82517 27.6663C8.25056 27.6663 8.67691 27.6673 9.1023 27.6663C9.36 27.6653 9.46138 27.5692 9.4718 27.3069C9.48601 26.931 9.33347 26.6347 9.03977 26.4142C8.67785 26.1442 8.31025 25.8809 7.95118 25.606C7.82612 25.5099 7.73706 25.5225 7.61958 25.6216C7.30408 25.8877 6.98385 26.149 6.6532 26.3958C6.33013 26.6367 6.19086 26.9465 6.22023 27.3535C6.23633 27.5779 6.33392 27.6702 6.54804 27.6673C6.97343 27.6624 7.39977 27.6653 7.82517 27.6663ZM48.9265 27.6663C49.3594 27.6663 49.7924 27.6663 50.2263 27.6663C50.3656 27.6663 50.502 27.6547 50.5295 27.472C50.5911 27.0728 50.5276 26.7124 50.1913 26.456C49.8066 26.1636 49.4182 25.8761 49.0222 25.6012C48.9577 25.5565 48.8118 25.5487 48.754 25.5934C48.358 25.8965 47.9686 26.2102 47.5915 26.5386C47.3632 26.7377 47.2713 27.0126 47.2921 27.3205C47.3092 27.5672 47.4125 27.6663 47.6512 27.6673C48.0766 27.6692 48.502 27.6673 48.9274 27.6673L48.9265 27.6663ZM38.5578 27.6663C38.9917 27.6663 39.4257 27.6663 39.8596 27.6663C40.0017 27.6663 40.1343 27.6469 40.1599 27.4652C40.2177 27.0641 40.1466 26.7037 39.8122 26.4482C39.4342 26.1597 39.0505 25.8771 38.6582 25.609C38.5891 25.5614 38.4337 25.5536 38.3721 25.6012C37.9875 25.8945 37.6132 26.2025 37.2456 26.5182C37.0012 26.728 36.8913 27.0097 36.9263 27.338C36.9491 27.5478 37.0467 27.6751 37.2797 27.6692C37.7051 27.6595 38.1315 27.6663 38.5578 27.6663ZM23.5051 30.0015C22.3937 30.0015 21.2824 29.9995 20.1711 30.0054C20.0773 30.0054 19.9143 30.0374 19.903 30.0841C19.867 30.2356 19.8622 30.4065 19.9001 30.5561C19.9134 30.6066 20.0887 30.6368 20.19 30.6368C22.3966 30.6416 24.6041 30.6377 26.8107 30.6436C27.0238 30.6436 27.1318 30.5979 27.1186 30.3492C27.1006 30.018 27.1025 30.0025 26.8154 30.0025C25.7116 30.0025 24.6088 30.0025 23.5051 30.0025V30.0015ZM33.2541 30.0209C32.1428 30.0209 31.0314 30.019 29.9201 30.0248C29.8377 30.0248 29.7088 30.0549 29.6804 30.1122C29.5364 30.4056 29.705 30.663 30.0253 30.663C31.6492 30.663 33.2731 30.663 34.896 30.663C35.4711 30.663 36.0471 30.6649 36.6222 30.6591C36.7027 30.6591 36.8439 30.63 36.8515 30.5911C36.8837 30.4376 36.8989 30.2696 36.8667 30.1181C36.8553 30.0666 36.6857 30.0238 36.5881 30.0238C35.4768 30.017 34.3654 30.0199 33.2541 30.0199V30.0209ZM35.6189 34.7651C35.6189 35.7753 35.6189 36.7855 35.6189 37.7957C35.6189 38.1027 35.6378 38.1202 35.9211 38.1202C36.2338 38.1202 36.2897 38.0745 36.2897 37.7928C36.2906 35.7802 36.2906 33.7675 36.2897 31.7548C36.2897 31.4896 36.2556 31.477 35.9221 31.4644C35.7079 31.4556 35.6104 31.5091 35.6142 31.7577C35.6265 32.7602 35.6189 33.7636 35.6189 34.7651ZM26.209 34.7864C26.209 33.784 26.209 32.7815 26.209 31.7791C26.209 31.4887 26.1816 31.4683 25.8405 31.4692C25.542 31.4692 25.5383 31.4721 25.5373 31.783C25.5373 33.2867 25.5373 34.7903 25.5373 36.294C25.5373 36.8117 25.5335 37.3285 25.542 37.8463C25.543 37.9327 25.5743 38.06 25.6339 38.0969C25.9078 38.2659 26.21 38.0745 26.21 37.7462C26.21 36.7603 26.21 35.7734 26.21 34.7874L26.209 34.7864ZM31.2323 34.7884C31.2323 33.7782 31.2257 32.7679 31.237 31.7577C31.2399 31.5081 31.1395 31.4566 30.9263 31.4653C30.6013 31.478 30.5691 31.4916 30.5691 31.7674C30.5682 33.7714 30.5682 35.7763 30.5691 37.7802C30.5691 38.0697 30.6269 38.1212 30.9272 38.1202C31.2067 38.1202 31.2314 38.0969 31.2314 37.7948C31.2323 36.7923 31.2323 35.7908 31.2323 34.7884ZM21.145 34.7913C21.145 33.7821 21.1384 32.7728 21.1498 31.7635C21.1526 31.5236 21.0683 31.4556 20.8475 31.4644C20.5159 31.478 20.4799 31.4916 20.4799 31.7548C20.479 33.7655 20.479 35.7763 20.4799 37.786C20.4799 38.0687 20.5396 38.1202 20.8447 38.1202C21.1242 38.1202 21.146 38.0998 21.146 37.7948C21.1469 36.7933 21.145 35.7928 21.145 34.7913ZM33.4265 34.6796C33.8131 34.6796 34.1987 34.6757 34.5852 34.6815C34.7482 34.6845 34.8155 34.6135 34.8107 34.4513C34.8022 34.1929 34.7975 33.9346 34.7927 33.6762C34.7899 33.4984 34.7179 33.4188 34.5322 33.4207C33.7913 33.4285 33.0504 33.4275 32.3095 33.4207C32.1361 33.4188 32.0632 33.4877 32.0641 33.6597C32.066 33.9258 32.0679 34.1929 32.0641 34.4591C32.0613 34.6242 32.1295 34.6864 32.2925 34.6825C32.6705 34.6738 33.0485 34.6796 33.4265 34.6796ZM28.3948 34.6796C28.7728 34.6796 29.1499 34.6777 29.5279 34.6806C29.6927 34.6815 29.7742 34.6135 29.7733 34.4377C29.7723 34.1881 29.777 33.9375 29.7884 33.6878C29.7969 33.4897 29.7117 33.4197 29.5212 33.4207C28.7898 33.4265 28.0584 33.4275 27.327 33.4207C27.1195 33.4188 27.0428 33.5149 27.0447 33.7111C27.0466 33.9452 27.0494 34.1784 27.0447 34.4125C27.0399 34.6058 27.1157 34.6883 27.3109 34.6835C27.6728 34.6738 28.0347 34.6806 28.3966 34.6796H28.3948ZM23.3383 34.6854C23.7239 34.6854 24.1105 34.6825 24.4961 34.6874C24.6335 34.6893 24.7017 34.6388 24.6998 34.4921C24.696 34.2095 24.6998 33.9268 24.6988 33.6451C24.6988 33.4838 24.6202 33.4217 24.461 33.4226C23.7126 33.4275 22.965 33.4285 22.2166 33.4226C22.0385 33.4207 21.9769 33.5042 21.9778 33.6694C21.9788 33.9278 21.9854 34.1861 21.975 34.4445C21.9674 34.6388 22.0479 34.6961 22.2279 34.6913C22.5974 34.6806 22.9679 34.6883 23.3383 34.6874V34.6854ZM33.4095 32.6252C33.7875 32.6252 34.1655 32.6184 34.5436 32.6281C34.7198 32.632 34.7861 32.5523 34.7861 32.3852C34.7852 32.1511 34.7833 31.917 34.787 31.6829C34.7899 31.5265 34.7188 31.4683 34.572 31.4683C33.8074 31.4712 33.0438 31.4712 32.2792 31.4683C32.1333 31.4683 32.0585 31.5197 32.0622 31.679C32.0679 31.9131 32.067 32.1472 32.0622 32.3813C32.0585 32.5678 32.1399 32.6339 32.3218 32.629C32.6838 32.6184 33.0466 32.6261 33.4085 32.6261L33.4095 32.6252ZM23.3232 32.6252C23.7012 32.6252 24.0792 32.6203 24.4572 32.6281C24.6136 32.631 24.6979 32.5766 24.6979 32.4115C24.6979 32.1608 24.6969 31.9112 24.6988 31.6606C24.7007 31.51 24.6183 31.4692 24.4876 31.4692C23.723 31.4712 22.9594 31.4721 22.1948 31.4683C22.029 31.4683 21.9702 31.5401 21.975 31.7024C21.9816 31.9199 21.9826 32.1385 21.975 32.3561C21.9674 32.5659 22.0574 32.6368 22.2592 32.63C22.6135 32.6164 22.9679 32.6261 23.3222 32.6261L23.3232 32.6252ZM28.4023 31.4692C28.0319 31.4692 27.6624 31.4692 27.2919 31.4692C27.1631 31.4692 27.0485 31.4916 27.0466 31.6586C27.0437 31.9093 27.0305 32.1608 27.056 32.4085C27.0646 32.4862 27.182 32.6135 27.2512 32.6145C28.0148 32.629 28.7794 32.6232 29.543 32.6232C29.7032 32.6232 29.7676 32.5338 29.7666 32.3784C29.7657 32.1686 29.7562 31.9578 29.7704 31.749C29.7856 31.5294 29.6823 31.4653 29.49 31.4673C29.1281 31.4721 28.7652 31.4683 28.4033 31.4692H28.4023ZM28.93 14.9773C28.93 14.7675 28.9357 14.5587 28.9291 14.3489C28.9177 14.0108 28.7444 13.8506 28.3976 13.8467C28.0537 13.8428 27.8614 14.0031 27.8528 14.3362C27.8405 14.7792 27.8509 15.2221 27.8481 15.6651C27.8481 15.8292 27.9267 15.8982 28.0802 15.8972C28.2924 15.8953 28.5047 15.8943 28.7169 15.8972C28.8647 15.8992 28.9319 15.8283 28.931 15.6787C28.9291 15.4455 28.931 15.2114 28.931 14.9783L28.93 14.9773ZM27.9315 21.8031C27.9144 22.5608 27.8585 22.4491 28.4743 22.4598C28.5293 22.4608 28.5842 22.4569 28.6392 22.4598C28.7965 22.4676 28.8723 22.3966 28.8685 22.2325C28.8637 22.0149 28.8694 21.7973 28.8618 21.5807C28.8524 21.3272 28.7425 21.1212 28.5643 20.9464C28.4431 20.8269 28.3426 20.8347 28.2195 20.9483C27.9428 21.2019 27.9116 21.5292 27.9305 21.8041L27.9315 21.8031ZM28.3881 30.6193C28.4431 30.6193 28.498 30.6193 28.553 30.6193C28.8353 30.6173 28.8675 30.5814 28.8476 30.3007C28.8268 30.0093 28.7055 29.7635 28.5264 29.543C28.4317 29.4274 28.3237 29.4022 28.2375 29.5333C28.1304 29.6974 28.0092 29.8674 27.9608 30.0539C27.8263 30.5697 27.8756 30.6193 28.3881 30.6193Z" fill="#F35427"/>
<path id="Vector_3" d="M43.7446 35.2642C43.5495 35.2603 43.3534 35.0544 43.3543 34.8543C43.3543 34.6513 43.5722 34.4317 43.7664 34.4366C43.9644 34.4424 44.1464 34.6406 44.1454 34.8494C44.1445 35.0826 43.9644 35.2691 43.7446 35.2642Z" fill="#F35427"/>
<path id="Vector_4" d="M13.0081 34.4385C13.1986 34.4365 13.4004 34.6444 13.4023 34.8436C13.4042 35.0553 13.2014 35.268 12.9987 35.2651C12.7883 35.2622 12.614 35.0825 12.6112 34.8639C12.6083 34.6502 12.8035 34.4394 13.0081 34.4385Z" fill="#F35427"/>
<path id="Vector_5" d="M8.22332 30.5883C8.22332 30.7495 8.22522 30.9108 8.22332 31.0711C8.21953 31.3023 8.07837 31.4208 7.87941 31.4674C7.70413 31.5082 7.48054 31.3703 7.46633 31.1624C7.43696 30.7563 7.44359 30.3455 7.47012 29.9394C7.48338 29.7316 7.67571 29.6451 7.85477 29.6636C8.049 29.683 8.21669 29.7898 8.22143 30.0327C8.22522 30.2182 8.22143 30.4028 8.22143 30.5883H8.22332Z" fill="#F35427"/>
<path id="Vector_6" d="M48.5325 30.5668C48.5325 30.3978 48.5259 30.2278 48.5344 30.0588C48.5449 29.8354 48.6955 29.6751 48.8992 29.6566C49.0726 29.6411 49.2857 29.7839 49.3 29.985C49.3265 30.3609 49.3331 30.7407 49.3075 31.1156C49.2914 31.3478 49.0697 31.4974 48.8774 31.4711C48.6832 31.4439 48.5401 31.2613 48.5325 31.0243C48.5278 30.8718 48.5325 30.7183 48.5325 30.5649H48.5344L48.5325 30.5668Z" fill="#F35427"/>
<path id="Vector_7" d="M18.5918 30.5744C18.5918 30.7434 18.5947 30.9124 18.5918 31.0814C18.5861 31.3136 18.4421 31.4292 18.2413 31.47C18.0631 31.5059 17.8481 31.3631 17.8339 31.1553C17.8073 30.756 17.8102 30.3529 17.8358 29.9547C17.85 29.7351 18.0432 29.6458 18.2337 29.6671C18.4175 29.6875 18.5823 29.7876 18.588 30.0197C18.5928 30.2053 18.589 30.3898 18.589 30.5754C18.589 30.5754 18.5909 30.5744 18.5918 30.5744Z" fill="#F35427"/>
<path id="Vector_8" d="M38.1634 30.5449C38.1634 30.3836 38.1568 30.2214 38.1653 30.0602C38.1757 29.8339 38.3216 29.6736 38.5234 29.6493C38.6987 29.6289 38.9185 29.7872 38.9327 29.999C38.9564 30.3681 38.9592 30.7401 38.9355 31.1093C38.9213 31.3336 38.7224 31.4842 38.5348 31.4745C38.3377 31.4638 38.1738 31.2822 38.1643 31.0519C38.1577 30.8829 38.1634 30.7129 38.1634 30.543V30.5449Z" fill="#F35427"/>
<path id="Vector_9" d="M18.5501 38.3395C18.5453 38.5474 18.335 38.7611 18.137 38.7581C17.9257 38.7552 17.7334 38.5503 17.7372 38.3327C17.741 38.1268 17.9503 37.9111 18.1483 37.9101C18.3445 37.9101 18.5539 38.1345 18.5501 38.3395Z" fill="#F35427"/>
<path id="Vector_10" d="M38.1648 38.3272C38.162 38.0765 38.3164 37.9027 38.5466 37.8978C38.7693 37.892 38.9436 38.0775 38.9417 38.3174C38.9398 38.5428 38.7484 38.7478 38.5428 38.7419C38.3458 38.7371 38.1676 38.5409 38.1648 38.3272Z" fill="#F35427"/>
<path id="Vector_11" d="M48.536 34.8476C48.5379 34.6281 48.7349 34.429 48.9405 34.4367C49.1404 34.4455 49.3176 34.6446 49.3129 34.8564C49.3081 35.073 49.1291 35.2614 48.9273 35.2634C48.7037 35.2653 48.5331 35.0846 48.536 34.8476Z" fill="#F35427"/>
<path id="Vector_12" d="M18.5473 34.8397C18.552 35.0437 18.3398 35.2642 18.1408 35.2642C17.94 35.2642 17.7429 35.0699 17.7372 34.8669C17.7315 34.6678 17.9447 34.4424 18.1427 34.4385C18.3294 34.4346 18.5435 34.6464 18.5473 34.8397Z" fill="#F35427"/>
<path id="Vector_13" d="M8.22206 34.8253C8.22585 35.0768 8.05436 35.2663 7.82603 35.2633C7.62518 35.2604 7.44801 35.072 7.44233 34.8544C7.43664 34.6339 7.6195 34.4241 7.82414 34.4153C8.03921 34.4066 8.21827 34.5902 8.22206 34.8253Z" fill="#F35427"/>
<path id="Vector_14" d="M38.1658 34.8591C38.1658 34.6376 38.3553 34.4365 38.5609 34.4385C38.7608 34.4404 38.9398 34.6347 38.9389 34.8484C38.9389 35.0767 38.7532 35.2719 38.5419 35.2651C38.3316 35.2593 38.1658 35.0796 38.1658 34.8591Z" fill="#F35427"/>
</g>
<defs>
<clipPath id="clip0_7_1859">
<rect width="56" height="56" fill="white" transform="translate(0.200012)"/>
</clipPath>
</defs>
</svg>
