<svg width="17" height="17" viewBox="0 0 17 17" fill="none" xmlns="http://www.w3.org/2000/svg">
<g id="SVG" clip-path="url(#clip0_7_1789)">
<path id="Vector" fill-rule="evenodd" clip-rule="evenodd" d="M3.92998 7.543C5.17398 10.033 7.30798 12.077 9.79698 13.41L11.752 11.454C12.019 11.188 12.374 11.099 12.642 11.277C13.619 11.632 14.686 11.81 15.842 11.81C16.374 11.81 16.73 12.166 16.73 12.699V15.721C16.73 16.254 16.374 16.61 15.841 16.61C7.48598 16.61 0.72998 9.854 0.72998 1.499C0.72998 0.966001 1.08598 0.610001 1.61898 0.610001H4.72998C5.26298 0.610001 5.61898 0.966001 5.61898 1.499C5.61898 2.566 5.79698 3.632 6.15198 4.699C6.24198 4.966 6.15198 5.321 5.97398 5.588L3.92998 7.543Z" fill="#01202B"/>
</g>
<defs>
<clipPath id="clip0_7_1789">
<rect width="16" height="16" fill="white" transform="translate(0.72998 0.610001)"/>
</clipPath>
</defs>
</svg>
