<svg width="57" height="56" viewBox="0 0 57 56" fill="none" xmlns="http://www.w3.org/2000/svg">
<g id="523d3f74-eea6-43d9-8e94-180fc4fc775e-1696572242255-4102515828415223.svg%2Bxml" clip-path="url(#clip0_7_1852)">
<path id="Vector" d="M48.61 0H8.60999C4.19171 0 0.609985 3.58172 0.609985 8V48C0.609985 52.4183 4.19171 56 8.60999 56H48.61C53.0283 56 56.61 52.4183 56.61 48V8C56.61 3.58172 53.0283 0 48.61 0Z" fill="#FFF0E9"/>
<path id="Vector_2" fill-rule="evenodd" clip-rule="evenodd" d="M28.1209 6.20991C28.0057 6.32535 27.9113 6.87636 27.9113 7.43436C27.9113 8.28605 27.8621 8.44891 27.6041 8.44891C27.435 8.44891 27.1985 8.29148 27.0785 8.09906C26.9578 7.9056 26.6712 7.74922 26.437 7.74922C26.1669 7.74922 25.9734 7.87604 25.9027 8.09906C25.834 8.31596 25.6384 8.44891 25.3883 8.44891C24.4519 8.44891 24.3766 9.55966 25.2992 9.76257C25.7951 9.87154 25.8153 9.91405 25.8153 10.8436C25.8153 11.6019 25.5872 12.4149 24.76 14.6046C23.6879 17.4427 23.6145 17.9571 24.2522 18.1599C24.5792 18.2638 24.5927 18.4653 24.5927 23.2415V28.2151H20.4007H16.2087V27.687C16.2087 27.2103 16.2515 27.1696 16.6476 27.2693C17.1552 27.3968 17.606 27.0963 17.606 26.6305C17.606 26.4557 17.1344 25.1158 16.558 23.6528C15.7081 21.4955 15.51 20.8031 15.51 19.9902C15.51 19.0226 15.5276 18.9844 16.02 18.8858C16.5976 18.7702 16.8789 18.1945 16.551 17.7988C16.2359 17.4185 9.19 17.4243 8.87456 17.8049C8.56976 18.1726 8.78478 18.5916 9.39698 18.823C9.89164 19.01 9.92063 19.0744 9.92116 19.9883C9.92151 20.7471 9.68955 21.5745 8.84626 23.8235C7.67355 26.9511 7.65748 27.2756 8.6784 27.2273L9.22197 27.2014V36.8917V46.5819H8.24977C7.71512 46.5819 7.12562 46.6634 6.93977 46.7629C6.559 46.967 6.49682 47.4561 6.81157 47.7713C7.11601 48.0762 50.104 48.0762 50.4084 47.7713C50.7232 47.4561 50.661 46.967 50.2802 46.7629C50.0944 46.6634 49.5049 46.5819 48.9702 46.5819H47.998V36.8917V27.2014L48.5416 27.2273C49.5702 27.2761 49.5541 26.9448 48.3769 23.8492C47.5135 21.5785 47.2993 20.8175 47.2993 20.0182C47.2993 19.0709 47.3255 19.011 47.823 18.823C48.4352 18.5916 48.6502 18.1726 48.3454 17.8049C48.03 17.4243 40.9841 17.4185 40.669 17.7988C40.3455 18.1891 40.6138 18.731 41.1939 18.8585C41.6929 18.9682 41.71 19.0054 41.71 19.9822C41.71 20.8049 41.5153 21.4867 40.662 23.6528C40.0856 25.1158 39.614 26.4557 39.614 26.6305C39.614 27.0963 40.0648 27.3968 40.5724 27.2693C40.9685 27.1696 41.0113 27.2103 41.0113 27.687V28.2151H36.8193H32.6273V23.2415C32.6273 18.4653 32.6408 18.2638 32.9678 18.1599C33.6055 17.9571 33.5321 17.4427 32.46 14.6046C31.6328 12.4149 31.4047 11.6019 31.4047 10.8436C31.4047 9.91405 31.4249 9.87154 31.9208 9.76257C32.8434 9.55966 32.7681 8.44891 31.8317 8.44891C31.5816 8.44891 31.386 8.31596 31.3173 8.09906C31.2466 7.87604 31.0531 7.74922 30.783 7.74922C30.5488 7.74922 30.2622 7.9056 30.1415 8.09906C30.0215 8.29148 29.785 8.44891 29.6159 8.44891C29.3579 8.44891 29.3087 8.28605 29.3087 7.43436C29.3087 6.40302 29.1123 6 28.61 6C28.4563 6 28.2362 6.09446 28.1209 6.20991ZM27.9113 10.6354C27.9113 11.3059 27.8596 11.4226 27.562 11.4226C27.2644 11.4226 27.2127 11.3059 27.2127 10.6354C27.2127 9.96495 27.2644 9.84828 27.562 9.84828C27.8596 9.84828 27.9113 9.96495 27.9113 10.6354ZM30.0073 10.6354C30.0073 11.3059 29.9556 11.4226 29.658 11.4226C29.3604 11.4226 29.3087 11.3059 29.3087 10.6354C29.3087 9.96495 29.3604 9.84828 29.658 9.84828C29.9556 9.84828 30.0073 9.96495 30.0073 10.6354ZM30.9236 14.44C31.2607 15.3298 31.5179 16.0797 31.4951 16.1065C31.4723 16.133 30.8021 15.9142 30.0056 15.62L28.5576 15.0854L27.1613 15.6193C26.3933 15.913 25.7467 16.1318 25.7242 16.1056C25.7018 16.0795 25.9593 15.3298 26.2964 14.44L26.9094 12.822H28.61H30.3106L30.9236 14.44ZM29.8758 17.1219L31.23 17.5735V32.0777C31.23 46.4652 31.2272 46.5819 30.8807 46.5819C30.5474 46.5819 30.5313 46.4652 30.5313 44.0399C30.5313 41.0045 30.3605 40.4153 29.3586 39.994C28.7819 39.7515 28.6081 39.7466 27.9987 39.9565C26.8735 40.3442 26.6892 40.913 26.689 44.0018C26.6887 46.4676 26.6731 46.5819 26.3383 46.5819C25.9902 46.5819 25.9883 46.4941 26.0326 32.0345L26.0773 17.4871L27.2127 17.0923C27.8371 16.8752 28.387 16.6914 28.4348 16.6839C28.4825 16.6764 29.1309 16.8735 29.8758 17.1219ZM12.0167 19.8188C12.0167 20.5768 11.97 20.6934 11.6673 20.6934C11.3646 20.6934 11.318 20.5768 11.318 19.8188C11.318 19.0609 11.3646 18.9442 11.6673 18.9442C11.97 18.9442 12.0167 19.0609 12.0167 19.8188ZM14.1127 19.8188C14.1127 20.5768 14.066 20.6934 13.7633 20.6934C13.4606 20.6934 13.414 20.5768 13.414 19.8188C13.414 19.0609 13.4606 18.9442 13.7633 18.9442C14.066 18.9442 14.1127 19.0609 14.1127 19.8188ZM27.6172 19.2841C26.7715 19.6687 26.3381 20.3674 26.342 21.3406C26.3453 22.2132 26.648 22.7796 27.372 23.2683C28.453 23.9977 30.0762 23.5872 30.6573 22.4374C30.9582 21.8418 30.935 20.7811 30.6071 20.1463C30.3444 19.6376 29.1979 18.9519 28.61 18.9519C28.4659 18.9519 28.0191 19.1015 27.6172 19.2841ZM43.806 19.8188C43.806 20.5768 43.7594 20.6934 43.4567 20.6934C43.154 20.6934 43.1073 20.5768 43.1073 19.8188C43.1073 19.0609 43.154 18.9442 43.4567 18.9442C43.7594 18.9442 43.806 19.0609 43.806 19.8188ZM45.902 19.8188C45.902 20.5768 45.8554 20.6934 45.5527 20.6934C45.25 20.6934 45.2033 20.5768 45.2033 19.8188C45.2033 19.0609 45.25 18.9442 45.5527 18.9442C45.8554 18.9442 45.902 19.0609 45.902 19.8188ZM29.2089 20.6184C29.5523 20.9625 29.5656 21.8066 29.2318 22.0841C28.8297 22.4183 28.0341 22.2355 27.7957 21.754C27.3316 20.8169 28.4832 19.8918 29.2089 20.6184ZM15.1079 23.7304C15.4356 24.583 15.6798 25.304 15.6506 25.3327C15.6213 25.3614 14.9292 25.1125 14.1127 24.7794L12.628 24.174L11.318 24.7091C10.5975 25.0035 9.95592 25.2437 9.89216 25.2428C9.82858 25.2421 9.99277 24.6706 10.257 23.9732C10.5211 23.2758 10.788 22.5646 10.8499 22.3928C10.9496 22.1162 11.1653 22.0862 12.7373 22.1304L14.5123 22.1803L15.1079 23.7304ZM46.8611 23.7108C47.1771 24.5527 47.3855 25.2421 47.3238 25.2428C47.2623 25.2437 46.6225 25.0035 45.902 24.7091L44.592 24.174L43.1073 24.7794C42.2908 25.1125 41.6 25.3626 41.5722 25.3353C41.5284 25.2925 41.88 24.3105 42.5631 22.5677L42.754 22.0806L44.5202 22.1304L46.2865 22.1803L46.8611 23.7108ZM13.8456 26.1938L14.8113 26.6215V36.6017V46.5819H12.7153H10.6193V36.5461V26.5105L11.449 26.144C12.511 25.675 12.6821 25.6785 13.8456 26.1938ZM45.7387 26.1375L46.6007 26.5089V36.5454V46.5819H44.5047H42.4087V36.6013V26.621L43.3257 26.2036C44.469 25.6833 44.6713 25.6777 45.7387 26.1375ZM26.9631 27.0905C26.7552 27.2988 26.6887 27.7388 26.6887 28.9058C26.6887 30.5741 26.8509 30.9143 27.5961 30.8086C27.9814 30.7539 28.0008 30.6771 28.0488 29.0281C28.0991 27.305 27.9702 26.8157 27.4658 26.8157C27.3403 26.8157 27.1142 26.9394 26.9631 27.0905ZM29.2337 27.0905C29.0259 27.2988 28.9593 27.7388 28.9593 28.9058C28.9593 30.5741 29.1216 30.9143 29.8667 30.8086C30.252 30.7539 30.2714 30.6771 30.3195 29.0281C30.3698 27.305 30.2409 26.8157 29.7364 26.8157C29.611 26.8157 29.3848 26.9394 29.2337 27.0905ZM12.3056 27.3866C12.0467 27.5761 12.0107 27.8677 12.0537 29.4234C12.0954 30.9274 12.1564 31.272 12.4097 31.4317C12.6322 31.5718 12.7985 31.5718 13.021 31.4317C13.2737 31.2724 13.3354 30.9286 13.3766 29.4465C13.4369 27.2838 13.1637 26.7582 12.3056 27.3866ZM43.9957 27.4097C43.8635 27.5693 43.8107 28.2752 43.8434 29.4465C43.8846 30.9286 43.9463 31.2724 44.199 31.4317C44.4215 31.5718 44.5878 31.5718 44.8103 31.4317C45.0636 31.272 45.1246 30.9274 45.1663 29.4234C45.2093 27.8677 45.1733 27.5761 44.9144 27.3866C44.523 27.0999 44.2467 27.1069 43.9957 27.4097ZM24.5927 31.2762V32.938H20.4007H16.2087V31.2762V29.6144H20.4007H24.5927V31.2762ZM41.0113 31.2762V32.938H36.8193H32.6273V31.2762V29.6144H36.8193H41.0113V31.2762ZM12.2263 34.1974C11.8914 34.5327 11.945 37.739 12.2911 38.0857C12.6358 38.4309 12.7948 38.4309 13.1396 38.0857C13.3515 37.8734 13.414 37.4228 13.414 36.1091C13.414 34.3793 13.2849 33.9875 12.7153 33.9875C12.5616 33.9875 12.3415 34.0819 12.2263 34.1974ZM44.0156 34.1974C43.6808 34.5327 43.7344 37.739 44.0804 38.0857C44.4252 38.4309 44.5842 38.4309 44.9289 38.0857C45.1408 37.8734 45.2033 37.4228 45.2033 36.1091C45.2033 34.3793 45.0743 33.9875 44.5047 33.9875C44.351 33.9875 44.1309 34.0819 44.0156 34.1974ZM26.9058 34.3648C26.5671 34.704 26.6132 37.5604 26.9631 37.9108C27.1142 38.0619 27.3403 38.1856 27.4658 38.1856C27.9702 38.1856 28.0991 37.6964 28.0488 35.9732C27.9995 34.2794 27.9912 34.249 27.5608 34.1986C27.3199 34.1705 27.0252 34.2452 26.9058 34.3648ZM29.1764 34.3648C28.8378 34.704 28.8839 37.5604 29.2337 37.9108C29.3848 38.0619 29.611 38.1856 29.7364 38.1856C30.2409 38.1856 30.3698 37.6964 30.3195 35.9732C30.2702 34.2794 30.2618 34.249 29.8314 34.1986C29.5906 34.1705 29.2959 34.2452 29.1764 34.3648ZM24.5927 40.4596V46.5819H20.4007H16.2087V40.4596V34.3373H20.4007H24.5927V40.4596ZM41.0113 40.4596V46.5819H36.8193H32.6273V40.4596V34.3373H36.8193H41.0113V40.4596ZM17.4663 35.5968C17.3478 35.7154 17.2567 36.2835 17.2567 36.9026C17.2567 37.8151 17.3145 38.0294 17.602 38.1835C17.8767 38.3308 18.0207 38.2951 18.3059 38.0095C18.6028 37.7121 18.6526 37.483 18.5953 36.6746C18.5129 35.5109 18.021 35.0412 17.4663 35.5968ZM19.9116 35.5968C19.7932 35.7154 19.702 36.2835 19.702 36.9026C19.702 37.834 19.7567 38.0277 20.0658 38.1935C20.6611 38.5124 21.0993 37.9736 21.0993 36.9225C21.0993 36.45 21.0179 35.9113 20.9185 35.7252C20.7147 35.3438 20.2263 35.2816 19.9116 35.5968ZM22.3569 35.5968C22.2385 35.7154 22.1473 36.2835 22.1473 36.9026C22.1473 37.8069 22.2064 38.0299 22.4851 38.1795C22.9222 38.4137 22.9454 38.4109 23.2703 38.0857C23.4558 37.8998 23.5447 37.4865 23.5447 36.8088C23.5447 35.789 23.3471 35.3869 22.846 35.3869C22.6923 35.3869 22.4722 35.4813 22.3569 35.5968ZM33.8849 35.5968C33.569 35.9132 33.6168 37.7522 33.9497 38.0857C34.2746 38.4109 34.2978 38.4137 34.7349 38.1795C35.0136 38.0299 35.0727 37.8069 35.0727 36.9026C35.0727 35.7897 34.887 35.3869 34.374 35.3869C34.2203 35.3869 34.0002 35.4813 33.8849 35.5968ZM36.3015 35.7252C36.2021 35.9113 36.1207 36.45 36.1207 36.9225C36.1207 37.9736 36.5589 38.5124 37.1542 38.1935C37.4633 38.0277 37.518 37.834 37.518 36.9026C37.518 36.2835 37.4268 35.7154 37.3084 35.5968C36.9937 35.2816 36.5053 35.3438 36.3015 35.7252ZM38.9298 35.549C38.5379 35.7976 38.5912 37.8185 38.9976 38.1162C39.221 38.2797 39.4077 38.2962 39.6381 38.1727C39.9022 38.0312 39.9633 37.7922 39.9633 36.9026C39.9633 35.5564 39.6226 35.11 38.9298 35.549ZM17.4664 39.2061C17.3073 39.3097 17.2551 39.7153 17.2918 40.5628C17.3421 41.7287 17.3606 41.7734 17.8126 41.8257C18.4482 41.8992 18.6198 41.4894 18.4942 40.1972C18.4088 39.3198 18.3347 39.1403 18.0427 39.1029C17.8505 39.0784 17.5911 39.1248 17.4664 39.2061ZM19.8892 39.3074C19.7661 39.4559 19.7055 39.9962 19.7369 40.663C19.7844 41.669 19.8265 41.7768 20.1919 41.8287C20.8338 41.9198 21.0993 41.5607 21.0993 40.6016C21.0993 40.126 21.0179 39.5846 20.9185 39.3985C20.7065 39.0018 20.1811 38.9553 19.8892 39.3074ZM22.3569 39.2701C22.1395 39.4879 22.0675 41.0972 22.2534 41.5822C22.3782 41.9083 23.0357 41.9489 23.3351 41.6491C23.4503 41.5336 23.5447 40.9984 23.5447 40.4596C23.5447 39.4608 23.3447 39.0602 22.846 39.0602C22.6923 39.0602 22.4722 39.1547 22.3569 39.2701ZM33.8849 39.2701C33.6675 39.4879 33.5955 41.0972 33.7814 41.5822C33.843 41.743 34.0914 41.859 34.374 41.859C34.9562 41.859 35.0727 41.6144 35.0727 40.3928C35.0727 39.4561 34.8652 39.0602 34.374 39.0602C34.2203 39.0602 34.0002 39.1547 33.8849 39.2701ZM36.3015 39.3985C36.2021 39.5846 36.1207 40.126 36.1207 40.6016C36.1207 41.5607 36.3862 41.9198 37.0281 41.8287C37.3935 41.7768 37.4356 41.669 37.4831 40.663C37.5145 39.9962 37.4539 39.4559 37.3308 39.3074C37.0389 38.9553 36.5135 39.0018 36.3015 39.3985ZM38.8135 39.2972C38.7636 39.4277 38.7464 40.0377 38.7754 40.6529C38.8278 41.7675 38.8299 41.7715 39.352 41.7715H39.876L39.9282 40.5628C39.9824 39.3107 39.8673 39.0684 39.2156 39.0628C39.0444 39.0615 38.8635 39.1669 38.8135 39.2972ZM12.2063 40.8787C12.0741 41.0382 12.0214 41.7442 12.054 42.9155C12.0953 44.3976 12.1569 44.7413 12.4097 44.9007C12.6322 45.0408 12.7985 45.0408 13.021 44.9007C13.2737 44.7413 13.3354 44.3976 13.3766 42.9155C13.4285 41.0559 13.3064 40.6345 12.7153 40.6345C12.5468 40.6345 12.3178 40.7444 12.2063 40.8787ZM43.9957 40.8787C43.8635 41.0382 43.8107 41.7442 43.8434 42.9155C43.8846 44.3976 43.9463 44.7413 44.199 44.9007C44.4215 45.0408 44.5878 45.0408 44.8103 44.9007C45.0631 44.7413 45.1247 44.3976 45.166 42.9155C45.2178 41.0559 45.0957 40.6345 44.5047 40.6345C44.3361 40.6345 44.1071 40.7444 43.9957 40.8787ZM28.9244 41.3692C29.0678 41.5128 29.134 42.3682 29.134 44.0805V46.5819H28.61H28.086V44.0805C28.086 41.7372 28.1898 41.1593 28.61 41.1593C28.6676 41.1593 28.8091 41.2537 28.9244 41.3692ZM17.334 42.9589C17.2816 43.0958 17.2624 43.711 17.2914 44.3262C17.3438 45.4408 17.3459 45.4449 17.868 45.4449H18.392V44.133C18.392 42.8312 18.3883 42.8207 17.9106 42.7656C17.6144 42.7315 17.3927 42.8058 17.334 42.9589ZM19.7823 43.1364C19.7268 43.3581 19.7057 43.9682 19.7354 44.4921C19.783 45.3347 19.836 45.4515 20.1919 45.5021C20.8338 45.5932 21.0993 45.2341 21.0993 44.275C21.0993 43.1936 20.8639 42.7336 20.3105 42.7336C20.0103 42.7336 19.8533 42.8532 19.7823 43.1364ZM22.3342 42.9813C22.013 43.3689 22.1665 45.1909 22.5403 45.4258C23.1042 45.7802 23.451 45.3529 23.5101 44.2313C23.566 43.1735 23.3709 42.7336 22.846 42.7336C22.6774 42.7336 22.4471 42.845 22.3342 42.9813ZM33.8849 42.9435C33.7697 43.0589 33.6753 43.5942 33.6753 44.133C33.6753 45.1869 33.8734 45.5323 34.4776 45.5323C34.9515 45.5323 35.0727 45.2339 35.0727 44.0661C35.0727 43.1294 34.8652 42.7336 34.374 42.7336C34.2203 42.7336 34.0002 42.828 33.8849 42.9435ZM36.3015 43.0719C36.2021 43.258 36.1207 43.7994 36.1207 44.275C36.1207 45.2341 36.3862 45.5932 37.0281 45.5021C37.398 45.4496 37.4349 45.3467 37.4829 44.2362C37.5369 42.9895 37.4212 42.742 36.7818 42.7362C36.6171 42.7348 36.401 42.8858 36.3015 43.0719ZM38.818 42.9589C38.7656 43.0958 38.7464 43.711 38.7754 44.3262C38.8278 45.4408 38.8299 45.4449 39.352 45.4449H39.876V44.133C39.876 42.8312 39.8723 42.8207 39.3946 42.7656C39.0984 42.7315 38.8767 42.8058 38.818 42.9589Z" fill="#F35427"/>
</g>
<defs>
<clipPath id="clip0_7_1852">
<rect width="56" height="56" fill="white" transform="translate(0.609985)"/>
</clipPath>
</defs>
</svg>
