<svg width="222" height="21" viewBox="0 0 222 21" fill="none" xmlns="http://www.w3.org/2000/svg">
<g id="48886c98-c518-4b13-a94e-08f40df64311-1696415185560-4102515828415223.svg%2Bxml" clip-path="url(#clip0_7_1822)">
<path id="Vector" d="M28 0H4C1.79086 0 0 1.79086 0 4V17C0 19.2091 1.79086 21 4 21H28C30.2091 21 32 19.2091 32 17V4C32 1.79086 30.2091 0 28 0Z" fill="white"/>
<path id="Vector_2" d="M10.3883 12.672V6.66H11.7683V12.672C11.7683 14.184 10.7483 15.084 9.30831 15.084C7.86831 15.084 6.84831 14.184 6.84831 12.672H8.22831C8.24031 13.368 8.57631 13.872 9.30831 13.872C10.0403 13.872 10.3883 13.368 10.3883 12.672ZM18.6018 6.648V7.764H15.3618V10.212H18.2418V11.328H15.3618V13.884H18.6018V15H13.9938V6.648H18.6018ZM24.8947 6.648V7.764H21.6547V10.212H24.5347V11.328H21.6547V13.884H24.8947V15H20.2867V6.648H24.8947Z" fill="#FF693D"/>
<path id="Vector_3" d="M76 0H43C40.7909 0 39 1.79086 39 4V17C39 19.2091 40.7909 21 43 21H76C78.2091 21 80 19.2091 80 17V4C80 1.79086 78.2091 0 76 0Z" fill="white"/>
<path id="Vector_4" d="M51.8801 6.648H53.2481V15H51.8801L47.7641 8.772V15H46.3961V6.648H47.7641L51.8801 12.864V6.648ZM59.6525 6.648V7.764H56.4125V10.212H59.2925V11.328H56.4125V13.884H59.6525V15H55.0445V6.648H59.6525ZM65.9455 6.648V7.764H62.7055V10.212H65.5855V11.328H62.7055V13.884H65.9455V15H61.3375V6.648H65.9455ZM67.1985 7.776V6.66H73.0185V7.776H70.7985V15H69.4305V7.776H67.1985Z" fill="#FF693D"/>
<path id="Vector_5" d="M218 0H91C88.7909 0 87 1.79086 87 4V17C87 19.2091 88.7909 21 91 21H218C220.209 21 222 19.2091 222 17V4C222 1.79086 220.209 0 218 0Z" fill="white"/>
<path id="Vector_6" d="M94.5101 12.624H95.7701C95.9261 13.404 96.4421 13.848 97.3541 13.848C98.4461 13.848 98.9981 13.116 98.9981 10.884C98.6021 11.436 97.8461 11.736 97.0541 11.736C95.5181 11.736 94.2701 10.788 94.2701 8.94C94.2701 7.2 95.3381 6.048 97.1741 6.048C99.4301 6.048 100.186 7.596 100.186 10.464C100.186 13.416 99.5621 14.988 97.2701 14.988C95.4581 14.988 94.6181 13.872 94.5101 12.624ZM97.2941 10.584C98.2661 10.584 98.8421 9.924 98.8421 8.94C98.8421 7.824 98.2061 7.188 97.2101 7.188C96.1901 7.188 95.5781 7.896 95.5781 8.904C95.5781 9.804 96.0821 10.584 97.2941 10.584ZM101.633 9.8984V7.7024H101.165V7.0328H101.633V6.0464H102.461V7.0328H103.426V7.7024H102.461V9.8984C102.461 10.1936 102.576 10.316 102.922 10.316H103.426V11H102.778C102.072 11 101.633 10.7048 101.633 9.8984ZM104.398 11V5.672H105.219V7.4936C105.493 7.1624 105.939 6.968 106.45 6.968C107.336 6.968 108.027 7.5512 108.027 8.66V11H107.213V8.7824C107.213 8.0552 106.817 7.6808 106.22 7.6808C105.615 7.6808 105.219 8.0552 105.219 8.7824V11H104.398ZM118.071 8.52H116.703C116.727 7.908 116.379 7.584 115.863 7.584C115.323 7.584 114.975 7.944 114.975 8.388C114.975 8.844 115.227 9.216 115.815 9.852L118.023 12.048L118.875 10.644H120.351L119.271 12.492C119.175 12.66 119.067 12.828 118.971 12.984L120.999 15H119.211L118.179 13.968C117.375 14.772 116.451 15.156 115.287 15.156C113.487 15.156 112.287 14.16 112.287 12.6C112.287 11.472 112.923 10.524 114.243 9.984C113.775 9.42 113.607 8.976 113.607 8.388C113.607 7.296 114.495 6.468 115.923 6.468C117.375 6.468 118.155 7.38 118.071 8.52ZM115.287 13.992C116.067 13.992 116.703 13.68 117.279 13.068L115.071 10.848C114.099 11.232 113.655 11.808 113.655 12.552C113.655 13.356 114.303 13.992 115.287 13.992ZM125.769 15V7.5H124.653V6.252H127.149V15H125.769ZM129.029 10.512C129.029 8.016 129.701 6.096 132.149 6.096C134.597 6.096 135.269 8.016 135.269 10.512C135.269 13.056 134.597 14.976 132.149 14.976C129.701 14.976 129.029 13.056 129.029 10.512ZM133.925 10.512C133.925 8.88 133.745 7.344 132.149 7.344C130.553 7.344 130.373 8.88 130.373 10.512C130.373 12.228 130.553 13.728 132.149 13.728C133.745 13.728 133.925 12.228 133.925 10.512ZM136.666 9.8984V7.7024H136.198V7.0328H136.666V6.0464H137.494V7.0328H138.458V7.7024H137.494V9.8984C137.494 10.1936 137.609 10.316 137.954 10.316H138.458V11H137.81C137.105 11 136.666 10.7048 136.666 9.8984ZM139.431 11V5.672H140.252V7.4936C140.525 7.1624 140.972 6.968 141.483 6.968C142.369 6.968 143.06 7.5512 143.06 8.66V11H142.246V8.7824C142.246 8.0552 141.85 7.6808 141.253 7.6808C140.648 7.6808 140.252 8.0552 140.252 8.7824V11H139.431ZM147.8 15V6.66H152.708V7.776H149.168V10.236H151.928V11.352H149.168V15H147.8ZM160.276 11.688C160.276 13.764 158.74 15.108 156.844 15.108C154.96 15.108 153.532 13.764 153.532 11.688C153.532 9.612 155.02 8.28 156.904 8.28C158.788 8.28 160.276 9.612 160.276 11.688ZM154.924 11.688C154.924 13.188 155.812 13.92 156.844 13.92C157.864 13.92 158.872 13.188 158.872 11.688C158.872 10.188 157.9 9.468 156.88 9.468C155.848 9.468 154.924 10.188 154.924 11.688ZM167.616 8.388V15H166.248V14.208C165.816 14.772 165.072 15.096 164.292 15.096C162.744 15.096 161.568 14.124 161.568 12.276V8.388H162.924V12.072C162.924 13.284 163.584 13.908 164.58 13.908C165.588 13.908 166.248 13.284 166.248 12.072V8.388H167.616ZM174.113 15V11.304C174.113 10.092 173.453 9.468 172.457 9.468C171.449 9.468 170.789 10.092 170.789 11.304V15H169.421V8.388H170.789V9.144C171.233 8.604 171.965 8.28 172.757 8.28C174.305 8.28 175.469 9.252 175.469 11.1V15H174.113ZM176.758 11.664C176.758 9.624 178.138 8.28 179.89 8.28C180.754 8.28 181.666 8.688 182.17 9.312V6.12H183.55V15H182.17V14.004C181.75 14.604 180.958 15.108 179.878 15.108C178.138 15.108 176.758 13.704 176.758 11.664ZM182.17 11.688C182.17 10.272 181.198 9.468 180.166 9.468C179.146 9.468 178.162 10.236 178.162 11.664C178.162 13.092 179.146 13.92 180.166 13.92C181.198 13.92 182.17 13.116 182.17 11.688ZM184.891 11.664C184.891 9.624 186.271 8.28 188.011 8.28C189.127 8.28 189.895 8.808 190.303 9.348V8.388H191.683V15H190.303V14.016C189.883 14.58 189.091 15.108 187.987 15.108C186.271 15.108 184.891 13.704 184.891 11.664ZM190.303 11.688C190.303 10.272 189.331 9.468 188.299 9.468C187.279 9.468 186.295 10.236 186.295 11.664C186.295 13.092 187.279 13.92 188.299 13.92C189.331 13.92 190.303 13.116 190.303 11.688ZM193.696 13.164V9.504H192.916V8.388H193.696V6.744H195.076V8.388H196.684V9.504H195.076V13.164C195.076 13.656 195.268 13.86 195.844 13.86H196.684V15H195.604C194.428 15 193.696 14.508 193.696 13.164ZM197.944 15V8.388H199.312V15H197.944ZM198.64 7.512C198.148 7.512 197.764 7.128 197.764 6.636C197.764 6.144 198.148 5.76 198.64 5.76C199.12 5.76 199.504 6.144 199.504 6.636C199.504 7.128 199.12 7.512 198.64 7.512ZM207.409 11.688C207.409 13.764 205.873 15.108 203.977 15.108C202.093 15.108 200.665 13.764 200.665 11.688C200.665 9.612 202.153 8.28 204.037 8.28C205.921 8.28 207.409 9.612 207.409 11.688ZM202.057 11.688C202.057 13.188 202.945 13.92 203.977 13.92C204.997 13.92 206.005 13.188 206.005 11.688C206.005 10.188 205.033 9.468 204.013 9.468C202.981 9.468 202.057 10.188 202.057 11.688ZM213.453 15V11.304C213.453 10.092 212.793 9.468 211.797 9.468C210.789 9.468 210.129 10.092 210.129 11.304V15H208.761V8.388H210.129V9.144C210.573 8.604 211.305 8.28 212.097 8.28C213.645 8.28 214.809 9.252 214.809 11.1V15H213.453Z" fill="#FF693D"/>
</g>
<defs>
<clipPath id="clip0_7_1822">
<rect width="222" height="21" fill="white"/>
</clipPath>
</defs>
</svg>
