<svg width="57" height="56" viewBox="0 0 57 56" fill="none" xmlns="http://www.w3.org/2000/svg">
<g id="9ff61e3b-5196-4cc8-aa93-10bda330441f-1696572050384-4102515828415223.svg%2Bxml" clip-path="url(#clip0_7_1895)">
<path id="Vector" d="M48.39 0H8.39001C3.97174 0 0.390015 3.58172 0.390015 8V48C0.390015 52.4183 3.97174 56 8.39001 56H48.39C52.8083 56 56.39 52.4183 56.39 48V8C56.39 3.58172 52.8083 0 48.39 0Z" fill="#FFF0E9"/>
<path id="Vector_2" fill-rule="evenodd" clip-rule="evenodd" d="M25.0337 6.14048C24.9073 6.23449 24.8198 6.4879 24.7753 6.8894L24.7078 7.49627L23.702 8.20124L22.6961 8.90623H21.0497C19.9104 8.90623 19.3641 8.94607 19.2763 9.03546C19.185 9.12829 19.1492 9.842 19.1492 11.5663V13.968H18.5342C17.6007 13.968 17.5702 14.0157 17.5367 15.5296L17.5081 16.8219L16.7365 16.8758C16.211 16.9124 15.9328 16.9812 15.8646 17.0911C15.8095 17.18 15.7637 18.0383 15.7627 18.9986L15.7611 20.7444L14.8384 20.7755C13.9571 20.8053 13.9085 20.8199 13.7534 21.1012L13.5912 21.3958L14.6762 22.5031L15.7611 23.6104V28.6434C15.7611 33.4181 15.7514 33.6764 15.5705 33.6764C15.2933 33.6764 15.1258 33.8908 15.1258 34.2458C15.1258 34.4923 15.1916 34.5819 15.4435 34.6786L15.7611 34.8005L15.7588 36.0424L15.7566 37.2842L15.4147 37.4458C14.8538 37.7108 14.9226 38.415 15.5093 38.415H15.7611V41.6998V44.9845H15.147C14.8093 44.9845 14.4758 45.0427 14.4059 45.1137C14.3288 45.1921 14.2788 45.5733 14.2788 46.083V46.923H9.95901C6.74031 46.923 5.60678 46.956 5.51213 47.0523C5.33393 47.2335 5.35394 47.63 5.55141 47.8308C5.70165 47.9836 7.96553 48 28.89 48C49.8145 48 52.0784 47.9836 52.2286 47.8308C52.4261 47.63 52.4461 47.2335 52.2679 47.0523C52.1732 46.956 51.0397 46.923 47.821 46.923H43.5012V46.083C43.5012 45.5733 43.4512 45.1921 43.3741 45.1137C43.3042 45.0427 42.9707 44.9845 42.633 44.9845H42.0189V41.6998V38.415H42.2707C42.8574 38.415 42.9262 37.7108 42.3653 37.4458L42.0234 37.2842L42.0212 36.0188C42.0189 34.7624 42.0207 34.7533 42.2672 34.7533C42.9626 34.7533 43.0505 33.7645 42.3611 33.6965L42.0189 33.6627V28.6366V23.6104L43.1038 22.5031L44.1888 21.3958L44.0265 21.1012C43.8715 20.8199 43.8229 20.8053 42.9416 20.7755L42.0189 20.7444V18.9793C42.0189 16.8876 42.0135 16.8758 41.0585 16.8758H40.4307V15.6001C40.4307 14.0626 40.3734 13.968 39.443 13.968H38.8425V11.6454C38.8425 10.2504 38.7988 9.23965 38.733 9.11451C38.6316 8.92206 38.496 8.90623 36.9505 8.90623H35.2777L34.2278 8.17346L33.1781 7.44069L33.1234 6.8223C33.09 6.44289 33.0081 6.16481 32.9117 6.10278C32.8216 6.04484 31.1499 6.00101 28.9896 6.00004C26.0373 5.99875 25.1835 6.02912 25.0337 6.14048ZM32.0663 7.50413C32.0663 7.89313 32.1154 7.97002 32.5957 8.33479C32.8869 8.55589 33.1251 8.77494 33.1251 8.82147C33.1251 8.8681 31.2431 8.90623 28.9429 8.90623C26.6427 8.90623 24.7616 8.86982 24.7627 8.82545C24.7637 8.78108 25.0019 8.5868 25.292 8.39381C25.7727 8.07416 25.8195 8.00642 25.8195 7.63099C25.8195 7.4044 25.8513 7.18664 25.8902 7.14722C25.9289 7.1077 27.3344 7.07539 29.0136 7.07539H32.0663V7.50413ZM37.7838 11.9756V13.968H28.9959H20.208V11.9756V9.98319H28.9959H37.7838V11.9756ZM23.5596 11.4725C23.2864 11.7796 23.3358 12.298 23.6633 12.56C24.0297 12.8532 24.2893 12.8419 24.6067 12.5189C24.9052 12.2154 24.9388 11.8592 24.7018 11.515C24.4897 11.2069 23.818 11.182 23.5596 11.4725ZM33.3004 11.4725C33.1206 11.6746 33.0675 12.206 33.2061 12.4171C33.3123 12.5789 33.7091 12.7833 33.9171 12.7833C34.1802 12.7833 34.6074 12.2865 34.6074 11.9804C34.6074 11.373 33.702 11.0211 33.3004 11.4725ZM39.3719 15.9603V16.8758H28.9959H18.6198V15.9603V15.0449H28.9959H39.3719V15.9603ZM40.9601 19.3528V20.7528H28.89H16.8199V19.3528V17.9527H28.89H40.9601V19.3528ZM41.6748 22.2875L41.3033 22.7452H28.89H16.4767L16.1052 22.2875L15.7337 21.8298H28.89H42.0463L41.6748 22.2875ZM40.9395 24.3876L40.9072 24.8991H28.89H16.8728L16.8405 24.3876L16.8082 23.876H28.89H40.9718L40.9395 24.3876ZM40.935 29.8262L40.9072 33.6225L38.6043 33.6516L36.3015 33.6806V30.5769C36.3015 28.3064 36.2674 27.4384 36.1744 27.3438C35.9907 27.157 21.7893 27.157 21.6056 27.3438C21.5126 27.4384 21.4785 28.3064 21.4785 30.5769V33.6806L19.1757 33.6516L16.8728 33.6225L16.845 29.8262L16.8171 26.0299H28.89H40.9629L40.935 29.8262ZM28.3606 28.7008V29.1101L27.7401 29.2405C25.8708 29.6331 24.1019 31.3351 23.6026 33.2214C23.4838 33.6699 23.4754 33.6764 23.0096 33.6764H22.5373V30.984V28.2916H25.449H28.3606V28.7008ZM35.2427 30.984V33.6764H34.7704C34.3046 33.6764 34.2962 33.6699 34.1774 33.2214C33.6781 31.3351 31.9092 29.6331 30.0399 29.2405L29.4194 29.1101V28.7008V28.2916H32.331H35.2427V30.984ZM18.6947 29.3703C17.9921 29.9323 18.6684 31.0271 19.4607 30.6103C19.9254 30.3658 20.0308 29.8843 19.7051 29.4927C19.4193 29.1493 19.0299 29.1021 18.6947 29.3703ZM38.3388 29.2645C37.7879 29.4897 37.7688 30.3207 38.308 30.6043C39.1034 31.0227 39.7962 29.939 39.0929 29.3764C38.7878 29.1321 38.6959 29.1186 38.3388 29.2645ZM30.8283 30.694C32.0938 31.3301 32.9737 32.4975 33.2295 33.8795C33.2943 34.2294 33.3369 36.9331 33.3369 40.6925V46.9254L28.9165 46.8973L24.4961 46.8692L24.4687 40.6789C24.4517 36.8182 24.4819 34.2648 24.5491 33.894C24.7654 32.6998 25.5808 31.477 26.5433 30.9032C27.4477 30.3641 28.0048 30.2217 29.0631 30.2589C29.9308 30.2893 30.1125 30.3341 30.8283 30.694ZM21.4785 36.0457V37.3381H19.1492H16.8199V36.0457V34.7533H19.1492H21.4785V36.0457ZM23.3843 36.0457V37.3381H22.9608H22.5373V36.0457V34.7533H22.9608H23.3843V36.0457ZM35.2427 36.0457V37.3381H34.8192H34.3957V36.0457V34.7533H34.8192H35.2427V36.0457ZM40.9601 36.0457V37.3381H38.6308H36.3015V36.0457V34.7533H38.6308H40.9601V36.0457ZM21.4537 41.7267L21.4816 44.9845H19.1508H16.8199V41.7716C16.8199 40.0044 16.8526 38.5254 16.8925 38.4847C16.9324 38.4441 17.9688 38.424 19.1954 38.4399L21.4256 38.4689L21.4537 41.7267ZM23.3843 42.669V46.923H22.9608H22.5373V42.669V38.415H22.9608H23.3843V42.669ZM35.2427 42.669V46.923H34.8192H34.3957V42.669V38.415H34.8192H35.2427V42.669ZM40.9352 41.7267L40.9632 44.9845H38.6324H36.3015V41.7716C36.3015 40.0044 36.3342 38.5254 36.3741 38.4847C36.414 38.4441 37.4503 38.424 38.6769 38.4399L40.9072 38.4689L40.9352 41.7267ZM21.4785 46.4923V46.923H18.4081H15.3376V46.4923V46.0615H18.4081H21.4785V46.4923ZM42.4424 46.4923V46.923H39.3719H36.3015V46.4923V46.0615H39.3719H42.4424V46.4923Z" fill="#F35427"/>
</g>
<defs>
<clipPath id="clip0_7_1895">
<rect width="56" height="56" fill="white" transform="translate(0.390015)"/>
</clipPath>
</defs>
</svg>
