<svg width="17" height="17" viewBox="0 0 17 17" fill="none" xmlns="http://www.w3.org/2000/svg">
<g id="922a7c4e-5102-4f94-b3b8-fc671f13f075-1699972762221-4102515828415223.svg%2Bxml">
<path id="Vector" d="M5.50146 8.08924C5.43153 8.01931 5.3839 7.93022 5.36461 7.83323C5.34531 7.73624 5.3552 7.63571 5.39304 7.54434C5.43088 7.45297 5.49497 7.37488 5.57719 7.31993C5.65942 7.26499 5.75609 7.23566 5.85498 7.23566H7.97998V3.35999C7.97998 3.22738 8.03266 3.1002 8.12643 3.00643C8.22019 2.91267 8.34737 2.85999 8.47998 2.85999C8.61259 2.85999 8.73977 2.91267 8.83353 3.00643C8.9273 3.1002 8.97998 3.22738 8.97998 3.35999V7.23566H11.105C11.2039 7.23566 11.3006 7.26499 11.3828 7.31993C11.465 7.37488 11.5291 7.45297 11.5669 7.54434C11.6048 7.6357 11.6147 7.73624 11.5954 7.83323C11.5761 7.93022 11.5284 8.01931 11.4585 8.08923L8.8335 10.7136C8.73974 10.8073 8.61257 10.86 8.47998 10.86C8.34739 10.86 8.22022 10.8073 8.12646 10.7136L5.50146 8.08924ZM13.98 9.85998C13.8474 9.85998 13.7202 9.91266 13.6265 10.0064C13.5327 10.1002 13.48 10.2274 13.48 10.36V13.86H3.47998V10.36C3.47998 10.2274 3.4273 10.1002 3.33353 10.0064C3.23977 9.91266 3.11259 9.85998 2.97998 9.85998C2.84737 9.85998 2.72019 9.91266 2.62643 10.0064C2.53266 10.1002 2.47998 10.2274 2.47998 10.36V13.86C2.48028 14.1251 2.58574 14.3793 2.77321 14.5668C2.96068 14.7542 3.21486 14.8597 3.47998 14.86H13.48C13.7451 14.8597 13.9993 14.7542 14.1868 14.5668C14.3742 14.3793 14.4797 14.1251 14.48 13.86V10.36C14.48 10.2274 14.4273 10.1002 14.3335 10.0064C14.2398 9.91266 14.1126 9.85998 13.98 9.85998Z" fill="white"/>
</g>
</svg>
