<svg width="57" height="56" viewBox="0 0 57 56" fill="none" xmlns="http://www.w3.org/2000/svg">
<g id="2d4c2d0f-5a92-413d-8a99-4d046ebbf44d-1696572083209-4102515828415223.svg%2Bxml" clip-path="url(#clip0_7_1902)">
<path id="Vector" d="M48.02 0H8.02C3.60173 0 0.0200043 3.58172 0.0200043 8V48C0.0200043 52.4183 3.60173 56 8.02 56H48.02C52.4383 56 56.02 52.4183 56.02 48V8C56.02 3.58172 52.4383 0 48.02 0Z" fill="#FFF0E9"/>
<path id="Vector_2" d="M42.1759 46.9005C42.4173 46.9005 42.5988 46.9005 42.7804 46.9005C44.5714 46.9005 46.3624 46.9005 48.1534 46.9005C48.3088 46.9005 48.5053 46.859 48.6101 46.9363C48.7879 47.0684 49.0237 47.2833 49.0199 47.4587C49.0162 47.6341 48.7691 47.8303 48.5876 47.9623C48.494 48.0302 48.3162 47.9849 48.1759 47.9849C34.7348 47.9849 21.2957 47.9849 7.85462 47.9849C7.71426 47.9849 7.53459 48.0302 7.44289 47.9604C7.2651 47.8246 7.04052 47.6322 7.01993 47.4437C7.00309 47.2871 7.2258 47.0608 7.3961 46.9439C7.51775 46.8609 7.72736 46.9005 7.89766 46.9005C9.65687 46.8986 11.4179 46.9005 13.1771 46.9005H13.7423C13.7554 46.7081 13.7741 46.5422 13.7741 46.3781C13.7741 42.6911 13.7835 39.004 13.761 35.317C13.7592 35.0021 13.6244 34.6268 13.4242 34.3854C12.7298 33.5537 12.4997 32.6314 12.5839 31.5583C12.655 30.638 12.5932 29.7082 12.597 28.7822C12.6007 28.2315 12.7785 28.0599 13.3343 28.0543C13.6431 28.0505 13.9519 28.0543 14.3113 28.0543C14.3113 26.9717 14.3842 25.9345 14.2776 24.9179C14.2327 24.4823 13.8265 24.0749 13.5589 23.6713C13.0386 22.8905 13.2857 22.0362 13.3231 21.2083C13.3287 21.08 13.6169 20.9254 13.8022 20.8575C13.9632 20.799 14.1615 20.8443 14.3786 20.8443C14.3899 20.6293 14.403 20.4765 14.403 20.3238C14.403 18.8018 14.4142 17.2798 14.3936 15.7579C14.3917 15.5599 14.2327 15.3637 14.1522 15.1638C14.0829 14.996 13.9706 14.8281 13.965 14.6546C13.9426 14.0436 13.9482 13.4306 13.9613 12.8196C13.965 12.6706 13.9931 12.4481 14.0885 12.3896C14.4816 12.1501 14.403 11.7861 14.4048 11.4353C14.4048 11.0751 14.4254 10.713 14.4011 10.3528C14.3431 9.51164 14.5639 8.76292 15.1085 8.12736C15.436 7.7464 15.5595 7.32394 15.5109 6.82983C15.494 6.66386 15.4866 6.44887 15.5745 6.33005C15.6887 6.17729 15.9058 6.00378 16.0705 6.01321C16.2351 6.02264 16.3905 6.23953 16.5421 6.37531C16.5701 6.39983 16.5758 6.46773 16.5683 6.5111C16.4036 7.36166 16.8977 7.94442 17.3244 8.5913C17.5676 8.96094 17.6837 9.45506 17.7342 9.9058C17.8016 10.5263 17.7398 11.16 17.7623 11.7861C17.7679 11.9275 17.8877 12.0671 17.9607 12.2048C18.0748 12.4254 18.2713 12.6348 18.2938 12.863C18.3443 13.3759 18.305 13.8965 18.3125 14.4151C18.3181 14.7885 18.3125 15.1393 17.8821 15.3128C17.8091 15.343 17.7604 15.5165 17.7585 15.624C17.7511 17.2402 17.7585 18.8565 17.7473 20.4728C17.7454 20.7726 17.869 20.8386 18.1385 20.8443C18.7972 20.8594 18.9002 20.9838 18.9076 21.6703C18.917 22.5058 18.7935 22.4492 19.688 22.4492C25.2632 22.4492 30.8384 22.4492 36.4154 22.4492C36.8272 22.4492 37.0343 22.2481 37.0368 21.8457C37.0405 20.9593 37.0536 20.9556 37.9182 20.8254C38.0249 20.8103 38.1877 20.6217 38.1896 20.5142C38.2065 18.8678 38.2027 17.2195 38.1971 15.5712C38.1971 15.4731 38.1615 15.3241 38.0942 15.2883C37.7161 15.0865 37.7236 14.7451 37.7274 14.3925C37.733 13.9681 37.7311 13.5457 37.7274 13.1213C37.7236 12.7574 37.6974 12.399 38.0923 12.1765C38.1728 12.1312 38.1915 11.9294 38.1952 11.7993C38.2065 11.2656 38.2233 10.7318 38.1952 10.2C38.1541 9.45883 38.3375 8.79875 38.8166 8.23486C39.1909 7.79543 39.3818 7.30886 39.2957 6.7261C39.2844 6.65066 39.2919 6.56768 39.3013 6.49224C39.3424 6.19049 39.5165 5.94343 39.8122 6.01133C40.0162 6.05848 40.3437 6.33948 40.325 6.47338C40.1977 7.36732 40.6918 7.96705 41.1353 8.63656C41.3805 9.00432 41.4666 9.50787 41.5265 9.96238C41.592 10.4565 41.5396 10.9638 41.5433 11.4674C41.5433 11.8012 41.4628 12.152 41.897 12.3311C42 12.3745 42.0617 12.6272 42.0673 12.7856C42.0861 13.4118 42.0898 14.0417 42.0673 14.6678C42.0617 14.8394 41.9887 15.111 41.8746 15.1582C41.4965 15.3109 41.5433 15.5995 41.5433 15.8937C41.5433 17.3836 41.5489 18.8754 41.5302 20.3653C41.5265 20.7292 41.6332 20.8613 42.0056 20.8556C42.5352 20.8462 42.6793 21.0234 42.6905 21.5723C42.6924 21.6666 42.6812 21.7627 42.6924 21.8552C42.8103 22.7736 42.5876 23.5883 41.9869 24.2974C41.6781 24.6614 41.5957 25.0895 41.6163 25.5667C41.6463 26.24 41.6444 26.917 41.6163 27.5903C41.5995 27.975 41.7398 28.092 42.0992 28.058C42.3462 28.0354 42.597 28.0486 42.8459 28.058C43.2146 28.0731 43.4335 28.2674 43.4354 28.6464C43.4429 30.059 43.4541 31.4716 43.4242 32.8823C43.4186 33.1218 43.2726 33.4066 43.1023 33.5857C42.32 34.4137 42.1291 35.3717 42.1516 36.4995C42.2152 39.7622 42.174 43.0268 42.174 46.2895C42.174 46.4724 42.174 46.6572 42.174 46.9024L42.1759 46.9005ZM32.6275 46.8816C32.6275 46.6723 32.6275 46.5026 32.6275 46.3328C32.6275 44.6562 32.5882 42.9758 32.6444 41.3011C32.6818 40.1771 32.2177 39.3756 31.3736 38.7325C30.4304 38.012 29.3655 37.5443 28.2426 37.2011C28.1154 37.1615 27.96 37.1521 27.8346 37.1879C26.6799 37.5311 25.5701 37.9819 24.6082 38.7306C23.8109 39.3492 23.3786 40.1318 23.4048 41.1917C23.4479 42.8985 23.4142 44.6091 23.4161 46.3177C23.4161 46.4988 23.4329 46.678 23.4441 46.8816H32.6294H32.6275ZM38.0904 25.1669H17.8746V28.0524H18.9862C19.6687 28.0524 20.023 27.7173 20.0492 27.0472C20.053 26.9698 20.0305 26.8642 20.0717 26.8171C20.2065 26.6662 20.3618 26.4286 20.5134 26.4248C20.6949 26.421 20.9083 26.5983 21.0561 26.7473C21.1328 26.8246 21.1066 27.0151 21.1085 27.1547C21.1197 27.7519 21.4173 28.0505 22.0012 28.0505C22.6487 28.0505 22.9844 27.7305 23.0081 27.0905C23.0081 27.0434 23.0081 26.9962 23.0137 26.9491C23.0511 26.6077 23.2214 26.3776 23.5807 26.3946C23.9157 26.4097 24.073 26.636 24.0842 26.9604C24.0935 27.2263 24.0673 27.496 24.101 27.7582C24.1141 27.86 24.2414 28.026 24.3219 28.0297C24.859 28.0543 25.398 28.0429 25.9837 28.0429C25.9837 27.6959 25.98 27.4168 25.9837 27.1377C25.9912 26.6398 26.199 26.3531 26.5545 26.3909C27 26.4361 27.0711 26.7624 27.0748 27.1415C27.0823 28.0486 27.0861 28.0486 27.9975 28.0486C28.9426 28.0486 28.9463 28.0486 28.965 27.0943C28.9725 26.7247 29.0698 26.4323 29.4853 26.3927C29.8297 26.3607 30.0449 26.6322 30.0542 27.0924C30.0617 27.3979 30.0542 27.7054 30.0542 28.0486C30.4136 28.0486 30.6924 28.0486 30.9713 28.0486C31.9182 28.0486 31.9239 28.0486 31.9444 27.0943C31.9519 26.7265 32.0455 26.4286 32.4628 26.3909C32.8091 26.3588 33.0187 26.6266 33.0299 27.0943C33.0374 27.3998 33.0299 27.7054 33.0299 28.0486C33.6269 28.0486 34.1397 28.0656 34.6487 28.0335C34.7498 28.0278 34.8995 27.8393 34.9182 27.7167C34.9613 27.4413 34.9145 27.1509 34.9482 26.8737C34.9837 26.5794 35.1559 26.3739 35.4778 26.3927C35.7829 26.4116 35.9644 26.5889 35.9794 26.9057C35.9925 27.1867 35.9682 27.4734 36.0018 27.7506C36.0149 27.8543 36.1385 28.0278 36.2152 28.0297C36.8309 28.0524 37.4466 28.0429 38.0848 28.0429V25.165L38.0904 25.1669ZM22.3006 33.4914C21.6531 33.4914 21.028 33.5499 20.4198 33.4763C19.6544 33.3839 19.1303 33.6385 18.8047 34.325C18.6569 34.6381 18.4192 34.9625 18.4154 35.285C18.3836 38.31 18.4005 41.3351 18.3855 44.3601C18.3836 44.7467 18.524 44.8354 18.8758 44.8279C19.8565 44.809 20.8371 44.8033 21.8159 44.8316C22.2277 44.8429 22.34 44.7166 22.3381 44.3036C22.3212 40.8711 22.3287 37.4387 22.3269 34.0063C22.3269 33.8535 22.3119 33.7008 22.3006 33.4914ZM33.7411 33.4952V44.8203C34.8471 44.8203 35.9326 44.8014 37.0162 44.8297C37.4373 44.841 37.5701 44.7279 37.5664 44.2847C37.5458 41.303 37.5477 38.3232 37.5627 35.3415C37.5664 34.5645 36.9825 34.1308 36.6344 33.5574C36.6101 33.5178 36.524 33.499 36.466 33.499C35.5676 33.4952 34.6693 33.4971 33.7411 33.4971V33.4952ZM32.5826 38.344C32.6051 38.1271 32.6257 38.0083 32.6257 37.8913C32.6275 36.575 32.6126 35.2586 32.6369 33.9422C32.6444 33.5442 32.4872 33.482 32.1428 33.4839C29.3899 33.4952 26.6369 33.4971 23.8839 33.4839C23.5227 33.4839 23.3973 33.5763 23.403 33.9554C23.4217 35.2718 23.4067 36.5882 23.4086 37.9045C23.4086 38.0158 23.4404 38.1271 23.4703 38.3081C24.6849 37.203 26.0661 36.5731 27.5446 36.1544C27.8384 36.0714 28.1977 36.0733 28.4915 36.16C29.9681 36.59 31.3418 37.2369 32.5826 38.3477V38.344ZM19.6675 29.1443C19.6675 29.5045 19.6937 29.8006 19.6618 30.0911C19.6094 30.5531 19.7947 30.6625 20.2364 30.6606C25.3231 30.6455 30.4098 30.6512 35.4965 30.6512C36.0842 30.6512 36.3774 30.3494 36.3761 29.7459C36.3761 29.3461 36.1709 29.1456 35.7604 29.1443C30.5951 29.1443 25.4317 29.1443 20.2663 29.1443C20.0979 29.1443 19.9276 29.1443 19.6675 29.1443ZM17.3169 44.8222C17.3169 44.1508 17.3169 43.5284 17.3169 42.9061C17.3169 40.509 17.3131 38.112 17.3225 35.715C17.3225 35.383 17.2514 35.2265 16.8846 35.2472C16.3418 35.2755 15.7953 35.268 15.2526 35.2491C14.9494 35.2397 14.8428 35.3453 14.8484 35.6546C14.8633 36.5467 14.854 37.4406 14.854 38.3345C14.854 40.3393 14.8615 42.3459 14.8465 44.3507C14.8428 44.7204 14.9532 44.8467 15.3219 44.8316C15.9582 44.8052 16.5945 44.8241 17.3169 44.8241V44.8222ZM41.1016 40.0564C41.1016 38.5967 41.0942 37.1388 41.1073 35.6791C41.111 35.3529 41.0118 35.234 40.6843 35.2472C40.1397 35.268 39.5951 35.2642 39.0505 35.2472C38.7604 35.2397 38.6332 35.3227 38.6332 35.6414C38.6425 38.5741 38.6406 41.5086 38.6332 44.4412C38.6332 44.726 38.7286 44.8316 39.0131 44.8241C39.5577 44.809 40.1041 44.7977 40.6469 44.8279C41.0324 44.8486 41.1129 44.6921 41.1091 44.3356C41.0923 42.908 41.1016 41.4803 41.1016 40.0526V40.0564ZM13.66 29.167C13.66 30.1307 13.6749 31.051 13.6525 31.9714C13.645 32.3297 13.7723 32.4259 14.111 32.4221C15.4622 32.407 16.8153 32.4164 18.1665 32.4146C18.2975 32.4146 18.4285 32.3863 18.5539 32.3712V29.1688H13.6581L13.66 29.167ZM37.4897 29.1726V32.4108C39.058 32.4108 40.5926 32.4146 42.1272 32.4014C42.2096 32.4014 42.363 32.2675 42.363 32.1939C42.378 31.1962 42.3743 30.2005 42.3743 29.1745H37.4897V29.1726ZM28.0199 32.4127C30.6512 32.4127 33.2844 32.4051 35.9157 32.4202C36.2975 32.4221 36.4678 32.2712 36.3424 31.9355C36.2975 31.8167 36.0018 31.7318 35.8222 31.7318C31.8509 31.7205 27.8796 31.7224 23.9083 31.7224C22.6319 31.7224 21.3537 31.7337 20.0773 31.7149C19.688 31.7092 19.5889 31.911 19.6955 32.2014C19.7367 32.3146 20.0062 32.4032 20.1709 32.4032C22.7872 32.4164 25.4036 32.4127 28.0199 32.4127ZM18.4604 24.024H37.4934C37.4148 23.6185 37.1958 23.5091 36.8272 23.5091C30.9133 23.5186 24.9993 23.5186 19.0854 23.5091C18.728 23.5091 18.5296 23.6261 18.4585 24.024H18.4604ZM15.5277 15.3204V20.8386C15.7486 20.8386 15.9338 20.8179 16.1135 20.8424C16.5533 20.9009 16.7049 20.7481 16.6974 20.2804C16.6675 18.7924 16.688 17.3044 16.6843 15.8164C16.6843 15.6523 16.6618 15.4901 16.6487 15.3204H15.5277ZM40.4204 20.7632V15.3317H39.2657C39.2657 15.5259 39.2657 15.6957 39.2657 15.8635C39.2657 17.195 39.2657 18.5265 39.2657 19.8579C39.2657 20.5847 39.6257 20.9027 40.3456 20.8122C40.3587 20.8122 40.3718 20.7953 40.4186 20.7651L40.4204 20.7632ZM38.1765 21.9249C38.053 22.6001 38.4423 23.9146 38.8877 23.9863C39.5408 24.0919 40.2876 24.1428 40.8846 23.9221C41.4872 23.6977 41.7361 22.5756 41.5358 21.9268H38.1746L38.1765 21.9249ZM17.7642 21.908C16.7086 21.908 15.6681 21.8985 14.6275 21.9212C14.5283 21.923 14.3711 22.106 14.3431 22.2267C14.1896 22.9301 14.6481 23.428 15.0336 23.892C15.1834 24.073 15.6288 24.0183 15.9413 24.0428C16.2202 24.0655 16.5009 24.056 16.7798 24.0428C16.8977 24.0372 17.068 24.0278 17.1204 23.9523C17.5358 23.3601 18.0505 22.7925 17.7623 21.9061L17.7642 21.908ZM16.7741 26.5625H16.7685C16.7685 26.3909 16.7704 26.2173 16.7685 26.0457C16.7536 25.0631 16.7554 25.0707 15.7654 25.1178C15.5053 25.131 15.4061 25.2197 15.4117 25.4799C15.4229 26.0287 15.4173 26.5776 15.4154 27.1264C15.4117 28.124 15.4098 28.1146 16.4204 28.0524C16.6787 28.0373 16.7854 27.9524 16.776 27.6903C16.7648 27.315 16.7723 26.9378 16.7723 26.5625H16.7741ZM40.5421 26.587V26.0721C40.5421 25.0575 40.5421 25.0669 39.5296 25.1178C39.2657 25.131 39.1759 25.2253 39.1815 25.4818C39.1909 26.0118 39.1815 26.5436 39.1834 27.0736C39.1834 28.1391 39.1834 28.1486 40.222 28.0335C40.3381 28.0203 40.514 27.8317 40.5271 27.7091C40.5683 27.3395 40.5421 26.9623 40.5421 26.587ZM22.31 45.9424H18.4341V46.8515H22.31V45.9424ZM33.7093 46.8703H37.5177V45.9236H33.7429C33.7298 46.0217 33.7111 46.0952 33.7111 46.1688C33.7074 46.3856 33.7111 46.6025 33.7111 46.8684L33.7093 46.8703ZM16.0836 8.71766C15.6213 9.18726 15.4978 9.45883 15.4922 10.0227C15.4866 10.5074 15.4903 10.994 15.4922 11.4787C15.4922 11.9464 15.7298 12.1777 16.2052 12.1727C16.2202 12.1727 16.237 12.1708 16.252 12.1727C16.6132 12.2274 16.7068 12.0464 16.6937 11.7125C16.6731 11.1807 16.6712 10.647 16.6937 10.1151C16.7161 9.55502 16.4972 9.11748 16.0854 8.71766H16.0836ZM39.7673 8.62525C39.5801 9.0609 39.335 9.40037 39.2975 9.76059C39.2264 10.4565 39.262 11.1675 39.2807 11.8691C39.2844 11.9709 39.4342 12.1425 39.5333 12.1557C39.8178 12.1953 40.1116 12.1689 40.4915 12.1689C40.2782 10.977 40.8902 9.72852 39.7654 8.62336L39.7673 8.62525ZM17.2982 45.9368H14.8802V46.8552H17.2982V45.9368ZM38.7043 45.9311C38.5115 46.8477 38.5489 46.8986 39.4098 46.8986C39.7205 46.8986 40.0293 46.8986 40.34 46.8986C40.5889 46.8986 40.8378 46.8986 41.0717 46.8986V45.9311H38.7043ZM17.9869 33.5197H14.2345C14.388 33.9554 14.5882 34.2062 15.0786 34.176C15.7579 34.1345 16.4448 34.1345 17.1241 34.176C17.6163 34.2062 17.8091 33.9403 17.985 33.5197H17.9869ZM38.0193 33.5141C38.1709 34.0384 38.4628 34.2043 38.9401 34.176C39.6045 34.1364 40.2726 34.144 40.9388 34.1741C41.4273 34.1968 41.607 33.9214 41.7454 33.5141H38.0193ZM40.9763 13.2816H38.8577C38.7005 14.202 38.7155 14.2208 39.5745 14.2208C39.7916 14.2208 40.0087 14.2208 40.2258 14.2208C40.7885 14.2208 41.0393 13.9078 40.9781 13.2816H40.9763ZM15.0617 13.2722C15.0505 13.4325 15.0505 13.5702 15.0299 13.7041C14.9644 14.1171 15.131 14.2642 15.5408 14.2265C15.8927 14.1944 16.252 14.2208 16.6076 14.219C17.2551 14.219 17.257 14.219 17.2327 13.5872C17.2289 13.4816 17.199 13.3778 17.1821 13.2722H15.0636H15.0617Z" fill="#F35427"/>
<path id="Vector_3" d="M20.934 36.0917C20.9209 36.2765 20.9658 36.501 20.8779 36.6386C20.7693 36.8103 20.5354 37.029 20.38 37.0121C20.1966 36.9913 19.9515 36.7688 19.8916 36.5821C19.8055 36.3143 19.8579 35.9993 19.8598 35.7032C19.8635 35.3524 20.0432 35.1299 20.3931 35.1299C20.7188 35.1299 20.8872 35.3543 20.9172 35.673C20.9303 35.8126 20.919 35.9522 20.919 36.0917C20.9246 36.0917 20.9284 36.0917 20.934 36.0917Z" fill="#F35427"/>
<path id="Vector_4" d="M20.9311 42.8589C20.9218 43.0305 20.9742 43.2436 20.8918 43.3643C20.7683 43.5473 20.5512 43.783 20.3753 43.7811C20.205 43.7792 19.9523 43.5322 19.8924 43.3436C19.8082 43.072 19.8644 42.7552 19.8662 42.4591C19.87 42.1253 20.0347 41.914 20.3715 41.9122C20.7009 41.9084 20.8824 42.1121 20.9143 42.4383C20.9292 42.5779 20.9161 42.7193 20.9161 42.8608H20.9311V42.8589Z" fill="#F35427"/>
<path id="Vector_5" d="M20.9229 39.5038C20.9229 39.551 20.9229 39.5981 20.9229 39.6453C20.9173 40.1696 20.7432 40.4223 20.3877 40.4204C20.0302 40.4185 19.8599 40.1733 19.8562 39.6472C19.8562 39.4435 19.8505 39.2398 19.8636 39.038C19.8824 38.7287 20.0452 38.5401 20.3615 38.5307C20.6983 38.5212 20.8799 38.7098 20.9135 39.038C20.9304 39.1926 20.9154 39.3511 20.9154 39.5076C20.9154 39.5076 20.9192 39.5076 20.9229 39.5076V39.5038Z" fill="#F35427"/>
<path id="Vector_6" d="M36.1456 36.1037C36.1493 36.7733 35.9809 37.058 35.5916 37.0429C35.2192 37.0297 35.0863 36.7865 35.0845 36.1113C35.0845 35.9717 35.0845 35.8322 35.0882 35.6907C35.0976 35.3644 35.2566 35.1438 35.586 35.1306C35.9397 35.1155 36.1156 35.3418 36.1437 35.6832C36.1549 35.8227 36.1456 35.9623 36.1456 36.1019V36.1037Z" fill="#F35427"/>
<path id="Vector_7" d="M35.0906 39.4605C35.0906 39.319 35.0831 39.1776 35.0906 39.038C35.1112 38.7287 35.2703 38.5382 35.5866 38.5269C35.9253 38.5137 36.1125 38.708 36.1368 39.0342C36.1593 39.3303 36.206 39.6509 36.1181 39.9187C36.0507 40.1205 35.8093 40.3619 35.609 40.4015C35.2965 40.4638 35.1056 40.2186 35.0888 39.8848C35.0813 39.7452 35.0888 39.6038 35.0888 39.4623H35.0906V39.4605Z" fill="#F35427"/>
<path id="Vector_8" d="M35.0864 42.8325C35.0883 42.1555 35.2249 41.9103 35.6011 41.9009C35.9941 41.8914 36.1513 42.163 36.1513 42.8514C36.1513 43.5379 35.996 43.8094 35.6011 43.8076C35.2174 43.8057 35.0846 43.5548 35.0864 42.8325Z" fill="#F35427"/>
</g>
<defs>
<clipPath id="clip0_7_1902">
<rect width="56" height="56" fill="white" transform="translate(0.0200043)"/>
</clipPath>
</defs>
</svg>
