<svg width="57" height="56" viewBox="0 0 57 56" fill="none" xmlns="http://www.w3.org/2000/svg">
<g id="bb7c1280-6800-4cfe-9be6-80d3e25a83b0-1696572181478-4102515828415223.svg%2Bxml" clip-path="url(#clip0_7_1936)">
<path id="Vector" d="M48.39 0H8.39001C3.97174 0 0.390015 3.58172 0.390015 8V48C0.390015 52.4183 3.97174 56 8.39001 56H48.39C52.8083 56 56.39 52.4183 56.39 48V8C56.39 3.58172 52.8083 0 48.39 0Z" fill="#FFF0E9"/>
<path id="Vector_2" d="M28.8869 48.994C22.8157 48.994 16.7455 48.9921 10.6744 48.9994C10.4393 48.9994 10.3891 48.9232 10.39 48.7017C10.3972 46.7291 10.3972 44.7574 10.39 42.7848C10.39 42.5724 10.4393 42.4753 10.6636 42.4998C10.8188 42.5161 10.9776 42.4934 11.1337 42.5052C11.3274 42.5198 11.3929 42.4471 11.392 42.2465C11.3839 41.2035 11.3884 40.1605 11.3884 39.1184C11.3884 38.4838 11.3947 37.8484 11.3857 37.2139C11.383 37.0423 11.4404 36.9851 11.6037 36.9924C11.7975 37.0015 11.9921 36.986 12.1859 36.996C12.3608 37.0051 12.4191 36.937 12.4182 36.7591C12.4119 35.6634 12.4155 34.5677 12.4164 33.4721C12.4164 33.2645 12.5172 33.1607 12.7187 33.1607C12.8757 33.1607 13.0336 33.1498 13.1888 33.1634C13.3861 33.1807 13.448 33.1044 13.4462 32.9056C13.439 31.7718 13.4426 30.6389 13.4426 29.5051C13.4426 29.2661 13.5598 29.1465 13.7943 29.1465C14.1704 29.1465 14.3585 28.9556 14.3585 28.5737C14.3585 27.5162 14.3639 26.4577 14.354 25.4002C14.3522 25.1987 14.4114 25.1279 14.607 25.146C14.755 25.1605 14.9057 25.1497 15.0546 25.1487C15.3345 25.1469 15.3479 25.1342 15.3488 24.8564C15.3488 23.7381 15.3488 22.6197 15.3488 21.5013C15.3488 21.4333 15.3291 21.3552 15.356 21.2998C15.3865 21.2363 15.4556 21.1518 15.5139 21.1473C15.7211 21.1292 15.9319 21.1319 16.14 21.1437C16.3266 21.1546 16.3849 21.082 16.3831 20.8949C16.3759 19.7312 16.3849 18.5674 16.375 17.4037C16.3732 17.1958 16.4271 17.1123 16.6361 17.1313C16.7841 17.145 16.9357 17.1241 17.0837 17.1395C17.2981 17.1613 17.3698 17.0814 17.368 16.8599C17.3591 15.7189 17.3645 14.5778 17.3636 13.4367C17.3636 13.1335 17.3627 13.1335 17.6533 13.1326C17.8022 13.1326 17.952 13.1263 18.1009 13.1335C18.2561 13.1417 18.3162 13.0745 18.3135 12.9211C18.309 12.6488 18.3135 12.3774 18.3135 12.105C18.3135 10.5255 18.3108 8.94602 18.3144 7.3665C18.3162 6.63575 18.7925 6.08564 19.4716 6.01302C20.2099 5.93405 20.8656 6.52319 20.8817 7.29116C20.8925 7.81948 20.8898 8.34961 20.8817 8.87793C20.879 9.05858 20.9275 9.13756 21.1194 9.1312C21.4845 9.1194 21.8514 9.12122 22.2165 9.13211C22.4022 9.13756 22.4632 9.0731 22.4605 8.88429C22.4515 8.12903 22.448 7.37286 22.4623 6.6176C22.465 6.46328 22.5206 6.28717 22.6094 6.1628C22.726 5.99759 22.9207 5.964 23.1154 6.04116C23.3262 6.12468 23.4293 6.28989 23.4302 6.51683C23.4329 7.23488 23.4302 7.95292 23.4338 8.67006C23.4356 9.19021 23.371 9.12212 23.8877 9.12848C24.321 9.13393 24.7542 9.12212 25.1866 9.13211C25.3741 9.13665 25.4315 9.06584 25.4297 8.88157C25.4225 8.11087 25.4252 7.34018 25.4279 6.56948C25.4279 6.25812 25.5885 6.05024 25.845 6.01121C26.1554 5.964 26.3994 6.20093 26.4021 6.56495C26.4066 7.24486 26.4039 7.92478 26.4039 8.6056C26.4039 8.66643 26.3958 8.72815 26.4057 8.78625C26.4254 8.897 26.4514 9.10034 26.4819 9.10125C26.6515 9.10851 26.8668 9.12394 26.9852 9.03044C27.3628 8.73451 27.7575 8.49123 28.2276 8.38683C28.3693 8.35506 28.3935 8.26519 28.3926 8.13811C28.3899 7.60162 28.3845 7.06512 28.3971 6.52863C28.407 6.09926 28.825 5.85235 29.1434 6.10017C29.2645 6.19458 29.3569 6.39792 29.365 6.55678C29.3919 7.07693 29.3802 7.59889 29.3704 8.12086C29.3677 8.28698 29.4233 8.36505 29.5848 8.40227C30.0144 8.50121 30.3993 8.70092 30.7204 9.00684C30.89 9.16842 31.0792 9.13211 31.2658 9.10851C31.3062 9.10306 31.3555 8.9678 31.3564 8.89246C31.3636 8.18259 31.3609 7.4718 31.3609 6.76102C31.3609 6.69294 31.36 6.62486 31.3609 6.55678C31.3708 6.22453 31.5744 6.00122 31.8605 6.00667C32.1404 6.01302 32.3342 6.22816 32.336 6.55496C32.3396 7.31022 32.3369 8.06639 32.3378 8.82165C32.3378 9.12666 32.3387 9.12576 32.632 9.12576C33.1101 9.12576 33.5882 9.11849 34.0655 9.12939C34.2655 9.13393 34.3391 9.07674 34.3364 8.8616C34.3247 8.08364 34.3328 7.30478 34.3328 6.52682C34.3328 6.28898 34.4404 6.11923 34.6593 6.03572C34.8432 5.96491 35.036 5.99305 35.1482 6.151C35.237 6.27537 35.2953 6.45057 35.298 6.60398C35.3132 7.35198 35.3123 8.09998 35.3007 8.84798C35.2971 9.06947 35.3706 9.13846 35.5832 9.13029C35.9483 9.11577 36.3152 9.12122 36.6803 9.12848C36.8355 9.1312 36.8902 9.07129 36.8884 8.91515C36.8821 8.38593 36.8821 7.85761 36.8875 7.32838C36.8947 6.66571 37.3127 6.15827 37.9496 6.02664C38.5291 5.90772 39.1391 6.24632 39.3651 6.84181C39.4351 7.02609 39.4557 7.23942 39.4566 7.44003C39.4629 9.23106 39.4602 11.0221 39.4611 12.8131C39.4611 13.1299 39.462 13.1299 39.767 13.1308C40.1952 13.1314 40.4093 13.3484 40.4093 13.7817C40.4093 14.802 40.4147 15.8224 40.4048 16.8418C40.403 17.0651 40.4595 17.1658 40.6936 17.1404C40.8417 17.1241 40.9933 17.1486 41.1413 17.1341C41.3332 17.115 41.3996 17.174 41.3978 17.3819C41.388 18.5302 41.3933 19.6795 41.3933 20.8278C41.3933 21.1382 41.3942 21.1391 41.7055 21.1391C41.8697 21.1391 42.0347 21.1509 42.198 21.1364C42.381 21.1192 42.4276 21.1936 42.4267 21.3688C42.4213 22.5171 42.424 23.6664 42.424 24.8147C42.424 25.146 42.4258 25.1478 42.7434 25.1478C42.8923 25.1478 43.043 25.1569 43.191 25.1442C43.3695 25.1297 43.4188 25.2014 43.4179 25.3784C43.4108 26.5349 43.4144 27.6905 43.4144 28.847C43.4144 29.142 43.4153 29.142 43.7149 29.1429C44.1263 29.1447 44.332 29.3559 44.332 29.7765C44.332 30.7969 44.332 31.8172 44.332 32.8366C44.332 33.0484 44.4334 33.1549 44.6361 33.1562C44.7931 33.1562 44.951 33.167 45.1062 33.1525C45.3008 33.1344 45.3645 33.2024 45.3627 33.4049C45.3537 34.5006 45.3582 35.5962 45.3582 36.6919C45.3582 36.9897 45.3591 36.9897 45.6578 36.9897C45.8067 36.9897 45.9574 37.0005 46.1055 36.9869C46.3127 36.9679 46.3898 37.0296 46.3889 37.2602C46.3791 38.8769 46.3844 40.4945 46.3853 42.1113C46.3853 42.1267 46.3853 42.1412 46.3853 42.1567C46.3853 42.3836 46.5016 42.4977 46.7343 42.4989C46.876 42.4989 47.0186 42.5061 47.1595 42.498C47.3227 42.488 47.3864 42.5497 47.3819 42.7204C47.373 43.0753 47.3793 43.4303 47.3793 43.7861C47.3793 45.4255 47.3748 47.0659 47.3837 48.7053C47.3846 48.935 47.3209 48.9967 47.094 48.9967C41.0229 48.9903 34.9526 48.9921 28.8815 48.9921L28.8869 48.994ZM40.429 43.4865C38.5183 43.4865 36.6068 43.4893 34.6961 43.4829C34.496 43.4829 34.4216 43.5356 34.4225 43.7498C34.4314 45.0797 34.4314 46.4086 34.427 47.7385C34.427 47.9291 34.4772 48.0054 34.679 48.0045C38.5013 48 42.3236 47.999 46.1458 48.0045C46.3495 48.0045 46.414 47.9455 46.4131 47.7349C46.4042 46.4204 46.4087 45.106 46.4087 43.7915C46.4087 43.4874 46.4078 43.4874 46.0965 43.4874C44.2082 43.4874 42.3191 43.4874 40.4308 43.4874L40.429 43.4865ZM17.3582 43.4874C15.4538 43.4874 13.5494 43.4911 11.6459 43.4829C11.4297 43.4829 11.3669 43.5465 11.3687 43.7643C11.3776 45.0869 11.3768 46.4095 11.3696 47.7313C11.3687 47.9355 11.4243 48.0072 11.6333 48.0072C15.4421 48.0018 19.25 48.0009 23.0588 48.0054C23.2714 48.0054 23.3423 47.9382 23.3414 47.7204C23.3333 46.4059 23.3324 45.0906 23.3414 43.7761C23.3432 43.5465 23.275 43.482 23.0481 43.4829C21.1517 43.492 19.2545 43.4874 17.3582 43.4874ZM39.9401 37.9809C38.1936 37.9809 36.4471 37.9846 34.6997 37.9764C34.4835 37.9755 34.4189 38.0436 34.4207 38.2605C34.4297 39.5523 34.4261 40.844 34.4261 42.1358C34.4261 42.4998 34.4261 42.5016 34.7795 42.5016C38.2358 42.5016 41.692 42.5007 45.1474 42.5052C45.3475 42.5052 45.4246 42.4535 45.4237 42.2384C45.4156 40.9085 45.4147 39.5795 45.4237 38.2496C45.4255 38.0218 45.3403 37.9764 45.1358 37.9764C43.4036 37.9837 41.6723 37.9809 39.9401 37.9809ZM17.8444 37.9809C16.1122 37.9809 14.3791 37.9846 12.647 37.9764C12.4191 37.9755 12.3536 38.0454 12.3554 38.2723C12.3644 39.5868 12.3644 40.9021 12.3572 42.2166C12.3563 42.4281 12.4101 42.5061 12.6326 42.5052C16.1122 42.4989 19.5918 42.4998 23.0714 42.5052C23.2786 42.5052 23.3423 42.4372 23.3405 42.2302C23.3333 40.9157 23.3369 39.6004 23.336 38.2859C23.336 37.9818 23.3333 37.9809 23.04 37.9809C21.3078 37.9809 19.5748 37.9809 17.8426 37.9809H17.8444ZM39.1454 34.1302C37.4957 34.1293 35.8461 34.1284 34.1973 34.1293C33.904 34.1293 33.904 34.1347 33.9479 34.4189C34.069 35.1868 34.1973 35.9539 34.3005 36.7237C34.3292 36.937 34.4009 36.996 34.6073 36.996C37.7792 36.9906 40.9511 36.9915 44.1239 36.996C44.3293 36.996 44.3948 36.9325 44.3921 36.7237C44.3814 35.953 44.3787 35.1823 44.3921 34.4125C44.3966 34.1747 44.3132 34.1247 44.0943 34.1256C42.4447 34.1338 40.7941 34.1302 39.1454 34.1302ZM18.6391 34.1302C16.9814 34.1302 15.3246 34.1338 13.6669 34.1256C13.448 34.1247 13.3852 34.1955 13.3879 34.4107C13.3978 35.1886 13.396 35.9666 13.3888 36.7455C13.387 36.9316 13.4471 36.996 13.6328 36.996C16.828 36.9924 20.0233 36.9924 23.2185 36.996C23.3728 36.996 23.4401 36.9497 23.4634 36.7836C23.5746 35.9993 23.7002 35.2159 23.8231 34.4334C23.8707 34.1338 23.8742 34.132 23.5648 34.132C21.9223 34.132 20.2798 34.132 18.6374 34.132L18.6391 34.1302ZM28.9003 37.9809C27.4525 37.9809 26.0038 37.9837 24.556 37.9773C24.3676 37.9773 24.2932 38.0227 24.2941 38.2288C24.303 39.5732 24.3021 40.9185 24.2976 42.2629C24.2976 42.439 24.3542 42.5062 24.5282 42.5043C25.0951 42.498 25.6629 42.498 26.2299 42.5043C26.3886 42.5062 26.4523 42.4471 26.4774 42.2892C26.5348 41.9324 26.5878 41.5721 26.6856 41.2253C26.8829 40.5245 27.2031 39.8891 27.7746 39.417C28.4097 38.8914 29.2322 38.8433 29.8799 39.3526C30.184 39.5922 30.4477 39.9108 30.6576 40.2404C31.0254 40.8186 31.1994 41.4776 31.2721 42.1612C31.2966 42.3875 31.4237 42.501 31.6533 42.5016C32.1611 42.5016 32.6688 42.4925 33.1756 42.5061C33.399 42.5125 33.4716 42.4444 33.4698 42.2111C33.4591 40.8967 33.4591 39.5822 33.4698 38.2678C33.4716 38.0336 33.399 37.9755 33.1765 37.9764C31.7511 37.9855 30.3257 37.9809 28.9003 37.9809ZM38.3237 30.1315C36.7332 30.1315 35.1428 30.1315 33.5524 30.1315C33.4151 30.1315 33.2725 30.1097 33.3084 30.3348C33.4411 31.1545 33.5694 31.9751 33.6932 32.7958C33.7174 32.9564 33.7937 33 33.9488 33C36.9952 32.9955 40.0415 32.9937 43.0878 33C43.3121 33 43.3632 32.921 43.3596 32.7113C43.3489 31.9479 43.3471 31.1854 43.3596 30.422C43.3632 30.195 43.3022 30.1251 43.0717 30.126C41.4884 30.136 39.9061 30.1315 38.3228 30.1306L38.3237 30.1315ZM19.4626 30.1315C17.8722 30.1315 16.2817 30.1342 14.6913 30.1278C14.4922 30.1278 14.4159 30.1778 14.4186 30.3929C14.4303 31.1709 14.4285 31.9497 14.4195 32.7277C14.4168 32.931 14.4751 32.9991 14.685 32.9991C17.717 32.9928 20.7481 32.9937 23.7801 32.9991C23.9711 32.9991 24.059 32.951 24.0877 32.7477C24.1972 31.9779 24.3201 31.2099 24.443 30.4419C24.4896 30.1487 24.4806 30.1315 24.1882 30.1315C22.613 30.1315 21.0378 30.1315 19.4626 30.1315ZM41.6956 28.9595C41.6956 28.9723 41.6956 28.9859 41.6965 28.9986C41.8894 28.985 42.0832 28.9804 42.2742 28.9523C42.3271 28.945 42.4052 28.8742 42.4115 28.8243C42.4384 28.6092 42.4527 28.3904 42.4554 28.1725C42.4617 27.5634 42.4581 26.9552 42.4617 26.3461C42.4626 26.1854 42.4007 26.1191 42.2339 26.121C41.6687 26.1273 41.1027 26.1201 40.5376 26.1201C38.53 26.1201 36.5224 26.1219 34.5149 26.1246C34.2171 26.1246 33.9201 26.14 33.6223 26.14C33.3622 26.14 33.102 26.1309 32.841 26.1237C32.7235 26.1201 32.6751 26.1772 32.6948 26.2916C32.7244 26.4614 32.7666 26.6284 32.7899 26.7991C32.8787 27.4481 32.9639 28.0981 33.0464 28.748C33.0671 28.9087 33.1334 28.9886 33.3057 28.9868C33.8699 28.9813 34.435 28.9895 35.0002 28.985C35.4469 28.9813 35.8927 28.9614 36.3394 28.9586C37.0463 28.9541 37.7532 28.9586 38.46 28.9586C39.5392 28.9586 40.6174 28.9586 41.6965 28.9586L41.6956 28.9595ZM21.3078 28.9886C21.3078 28.9804 21.3078 28.9713 21.3078 28.9632C21.6433 28.9632 21.9788 28.9632 22.3143 28.9632C22.648 28.9632 22.9817 28.9632 23.3145 28.9632C23.6572 28.965 24.0016 28.9514 24.3434 28.9768C24.6295 28.9986 24.6896 28.9813 24.73 28.6918C24.8395 27.9147 24.939 27.1358 25.0485 26.3597C25.0709 26.2018 25.0278 26.14 24.8646 26.14C24.2331 26.1382 23.6006 26.1228 22.9691 26.1219C21.402 26.1201 19.8349 26.1219 18.2678 26.1255C18.0148 26.1255 17.7627 26.1446 17.5098 26.1437C16.846 26.1409 16.1822 26.1346 15.5193 26.1228C15.3677 26.1201 15.3183 26.1909 15.3255 26.3279C15.3363 26.5304 15.3596 26.7328 15.3578 26.9352C15.3524 27.508 15.3363 28.0799 15.3246 28.6527C15.3183 28.9468 15.33 28.9677 15.6188 28.9677C16.2961 28.9686 16.9734 28.9568 17.6506 28.9595C18.4454 28.9632 19.2411 28.9795 20.0358 28.9868C20.4601 28.9904 20.8835 28.9868 21.3078 28.9868V28.9886ZM36.7512 22.1295C35.2666 22.1295 33.7811 22.1322 32.2965 22.1259C32.0902 22.125 32.0426 22.1858 32.0776 22.391C32.2095 23.1725 32.3288 23.955 32.4409 24.7393C32.4678 24.9245 32.5324 24.9944 32.7244 24.9944C35.5447 24.989 38.3658 24.9881 41.1861 24.9944C41.4005 24.9944 41.4723 24.93 41.4687 24.7112C41.4579 23.9414 41.4561 23.1707 41.4687 22.4009C41.4723 22.1722 41.3888 22.125 41.1825 22.1259C39.7051 22.1331 38.2277 22.1295 36.7503 22.1304L36.7512 22.1295ZM21.0235 22.1286C19.5452 22.1295 18.0668 22.1341 16.5885 22.125C16.3696 22.1241 16.3069 22.1958 16.3104 22.4109C16.3212 23.1816 16.3203 23.9523 16.3104 24.723C16.3078 24.9336 16.3777 24.9944 16.5813 24.9944C19.4034 24.989 22.2264 24.989 25.0485 24.9944C25.2297 24.9944 25.2996 24.9291 25.3247 24.7548C25.4387 23.9632 25.5553 23.1707 25.6863 22.3819C25.7221 22.1649 25.654 22.1241 25.4584 22.125C23.9801 22.1313 22.5018 22.1286 21.0235 22.1286ZM35.9465 18.1199C34.5203 18.1199 33.094 18.1226 31.6677 18.1163C31.4748 18.1163 31.4192 18.1735 31.4515 18.3668C31.5843 19.1638 31.7134 19.9609 31.8291 20.7606C31.8552 20.9394 31.9305 20.9794 32.0911 20.9794C34.7947 20.9757 37.4975 20.9757 40.2012 20.9794C40.3896 20.9794 40.4443 20.9122 40.4425 20.7279C40.4344 19.95 40.4317 19.1711 40.4434 18.3931C40.447 18.168 40.3671 18.1145 40.1581 18.1154C38.7543 18.1235 37.3504 18.1199 35.9465 18.1199ZM21.6146 20.9767C22.9655 20.9767 24.3174 20.9739 25.6683 20.9803C25.8441 20.9803 25.9123 20.9294 25.9383 20.7461C26.0513 19.9536 26.1778 19.1638 26.3097 18.375C26.3411 18.1889 26.3079 18.1163 26.1052 18.1172C23.2678 18.1226 20.4314 18.1226 17.5941 18.1172C17.3985 18.1172 17.334 18.1762 17.3367 18.3759C17.3456 19.1466 17.3483 19.9173 17.3349 20.688C17.3304 20.9195 17.403 20.9839 17.6273 20.9821C18.9558 20.973 20.2852 20.9776 21.6137 20.9776L21.6146 20.9767ZM35.4092 16.9816C36.6633 16.9825 37.9182 16.9788 39.1723 16.9861C39.3741 16.987 39.4468 16.928 39.4441 16.7165C39.4333 15.9313 39.4351 15.1452 39.4423 14.359C39.4441 14.1702 39.3786 14.1094 39.1956 14.1094C36.6642 14.1139 34.1336 14.1139 31.6022 14.1094C31.4111 14.1094 31.3403 14.1648 31.343 14.3681C31.3528 15.1461 31.3546 15.9249 31.343 16.7029C31.3394 16.9244 31.412 16.9861 31.6237 16.9843C32.8859 16.9761 34.1471 16.9816 35.4092 16.9816ZM22.3941 16.9816C23.6554 16.9816 24.9166 16.977 26.1778 16.9843C26.3752 16.9852 26.4353 16.9226 26.4326 16.7238C26.4227 15.9458 26.42 15.1679 26.4317 14.3899C26.4353 14.1657 26.3545 14.1085 26.1464 14.1094C23.6311 14.1148 21.1159 14.1148 18.6015 14.1085C18.3889 14.1085 18.3351 14.1847 18.3377 14.3854C18.3467 15.1179 18.3413 15.8505 18.3413 16.5831C18.3413 17.0142 18.3054 16.9807 18.745 16.9807C19.9614 16.9816 21.1778 16.9816 22.3941 16.9816ZM28.9012 43.4893C27.4597 43.4893 26.0191 43.4929 24.5775 43.4847C24.3649 43.4838 24.2941 43.5401 24.2958 43.7625C24.3057 45.017 24.2994 46.2716 24.3048 47.5261C24.3075 48.0526 24.2142 48.0027 24.8072 48.009C24.9767 48.0108 25.0386 47.9428 25.0637 47.7757C25.3418 45.9275 26.7295 44.6013 28.5666 44.4197C30.5643 44.2227 32.4526 45.7451 32.7056 47.7658C32.728 47.9455 32.7908 48.0272 32.9711 48.0081C33.0375 48.0009 33.1056 48.0072 33.1729 48.0063C33.4653 48.0045 33.4671 48.0045 33.4671 47.6986C33.4671 46.3914 33.4618 45.0842 33.4725 43.777C33.4743 43.5455 33.4052 43.482 33.1801 43.4838C31.7538 43.4929 30.3275 43.4884 28.9012 43.4893ZM28.9129 30.1333C27.8454 30.1324 26.7779 30.1351 25.7096 30.1288C25.5338 30.1278 25.4539 30.1841 25.4279 30.362C25.3095 31.1681 25.1839 31.9742 25.0583 32.7794C25.0341 32.931 25.0709 33.0009 25.2395 33C26.255 32.9946 27.2704 32.9937 28.2859 32.9982C28.4509 32.9982 28.4877 32.9265 28.485 32.7794C28.4787 32.4545 28.4823 32.1295 28.485 31.8045C28.4877 31.4704 28.6832 31.2353 28.9604 31.229C29.2502 31.2217 29.4592 31.4586 29.4628 31.8018C29.4655 32.1267 29.4691 32.4517 29.4628 32.7767C29.4592 32.941 29.5166 33.0018 29.6843 33.0009C30.6325 32.9946 31.5807 32.9955 32.5288 32.9991C32.6849 32.9991 32.7459 32.9537 32.7199 32.7876C32.5898 31.9751 32.4634 31.1627 32.3414 30.3484C32.3162 30.1796 32.2373 30.1288 32.0722 30.1297C31.0191 30.136 29.966 30.1333 28.9129 30.1333ZM31.0128 12.9493C31.1232 12.9611 31.1806 12.9729 31.238 12.9729C33.0518 12.9729 34.8647 12.972 36.6785 12.9765C36.8463 12.9765 36.8965 12.9193 36.8947 12.7541C36.8884 11.9534 36.8884 11.1528 36.8965 10.3521C36.8983 10.1597 36.8292 10.1107 36.6489 10.1116C35.0217 10.117 33.3954 10.1152 31.7682 10.1161C31.6901 10.1161 31.613 10.1279 31.5026 10.137C31.8444 11.1664 31.6668 12.0842 31.0128 12.9493ZM26.2693 10.1334C26.1653 10.1252 26.0935 10.1152 26.0217 10.1152C24.3873 10.1143 22.7521 10.1161 21.1177 10.1107C20.9436 10.1107 20.8835 10.1642 20.8853 10.3431C20.8925 11.1365 20.8943 11.9298 20.8853 12.7223C20.8826 12.9239 20.9472 12.9774 21.141 12.9765C22.9252 12.9701 24.7085 12.9729 26.4927 12.972C26.568 12.972 26.6434 12.9574 26.7573 12.9456C26.0971 12.0769 25.932 11.1573 26.2693 10.1334ZM28.8949 26.1255C28.0365 26.1264 27.178 26.1291 26.3205 26.1246C26.1635 26.1237 26.0657 26.1527 26.0549 26.3379C26.0433 26.5476 26.0173 26.7573 25.9823 26.9643C25.8827 27.5507 25.7724 28.1353 25.6737 28.7217C25.6567 28.8216 25.645 28.945 25.8029 28.9577C25.9509 28.9695 26.0989 28.9886 26.2469 28.9877C26.9026 28.9822 27.5584 28.9605 28.2141 28.9668C28.4437 28.9695 28.4967 28.8742 28.4886 28.6718C28.4742 28.2805 28.4635 27.8884 28.4635 27.4962C28.4635 27.1585 28.677 26.9361 28.9775 26.9416C29.2968 26.947 29.4816 27.1495 29.4852 27.5044C29.4888 27.912 29.4906 28.3205 29.4843 28.7281C29.4816 28.8788 29.5049 28.9686 29.6861 28.9668C30.445 28.9614 31.2048 28.9686 31.9637 28.9677C32.1063 28.9677 32.1332 28.8869 32.101 28.7544C32.0444 28.5211 31.9906 28.286 31.9556 28.0491C31.8749 27.5008 31.8004 26.9507 31.735 26.3996C31.7098 26.1863 31.6228 26.1155 31.404 26.1191C30.5679 26.1328 29.7319 26.1246 28.8967 26.1246L28.8949 26.1255ZM28.8905 22.1286C28.2563 22.1286 27.6221 22.1359 26.9879 22.1241C26.7797 22.1204 26.6873 22.1713 26.6568 22.4C26.5519 23.1852 26.4263 23.9677 26.2962 24.7493C26.2648 24.9363 26.3178 24.9953 26.4972 24.9944C27.0865 24.989 27.6768 24.9872 28.2661 24.9944C28.4339 24.9962 28.4904 24.9345 28.4868 24.7702C28.4796 24.4452 28.4832 24.1212 28.4868 23.7962C28.4895 23.4576 28.6788 23.2334 28.964 23.2252C29.2547 23.217 29.461 23.4494 29.4646 23.7962C29.4682 24.1212 29.4708 24.4461 29.4646 24.7702C29.461 24.9345 29.5202 24.9971 29.687 24.9944C30.2091 24.9872 30.7321 24.9872 31.2541 24.9944C31.4407 24.9971 31.5044 24.9454 31.4712 24.743C31.3403 23.9541 31.2192 23.1635 31.1088 22.371C31.0819 22.1758 31.0003 22.1213 30.8182 22.1241C30.1768 22.1322 29.5345 22.1268 28.8932 22.1277L28.8905 22.1286ZM28.8743 48.0036C29.2331 48.0036 29.591 48.0036 29.9499 48.0036C30.48 48.0036 31.0102 48.0054 31.5403 48.0027C31.6462 48.0027 31.7753 48.029 31.7403 47.8311C31.5188 46.602 30.5545 45.5326 29.1641 45.3992C27.6732 45.2558 26.3877 46.2371 26.0522 47.7195C25.9921 47.9863 26.0029 48.0027 26.2765 48.0036C27.143 48.0054 28.0078 48.0036 28.8743 48.0036ZM30.6953 11.1156C30.6872 10.0934 29.8682 9.26555 28.8734 9.27554C27.8732 9.28552 27.0713 10.1161 27.0758 11.1392C27.0802 12.1568 27.8992 12.9729 28.9084 12.9638C29.8987 12.9547 30.7034 12.1232 30.6953 11.1156ZM28.9129 18.1199C28.45 18.1199 27.9871 18.1226 27.5243 18.1181C27.3933 18.1172 27.3108 18.1526 27.2893 18.296C27.1673 19.1175 27.0444 19.9382 26.917 20.7588C26.8928 20.9158 26.9331 20.9812 27.0982 20.9785C27.4938 20.9721 27.8894 20.9703 28.285 20.9794C28.4482 20.983 28.4895 20.9122 28.4868 20.7624C28.4805 20.4374 28.4823 20.1125 28.4859 19.7875C28.4895 19.4371 28.6698 19.2301 28.9649 19.2265C29.2717 19.2228 29.4601 19.4325 29.4637 19.7938C29.4682 20.1261 29.4682 20.4592 29.4637 20.7915C29.4619 20.9276 29.5139 20.9803 29.6485 20.9776C29.992 20.9721 30.3356 20.9703 30.6792 20.9776C30.8316 20.9803 30.8783 20.9222 30.855 20.7742C30.7258 19.9545 30.5993 19.1339 30.4755 18.3124C30.4531 18.1644 30.3831 18.1126 30.2351 18.1154C29.7947 18.1235 29.3542 18.1181 28.9138 18.1181L28.9129 18.1199ZM29.2618 34.1429C29.2538 34.1601 29.2457 34.1774 29.2376 34.1946C29.8171 34.4624 30.1185 34.9617 30.2988 35.5336C30.4253 35.9339 30.4988 36.3533 30.567 36.7691C30.5957 36.9434 30.6558 36.996 30.8218 36.9942C31.5834 36.9878 32.3449 36.9887 33.1065 36.9942C33.2832 36.9951 33.3649 36.9624 33.3299 36.7509C33.1998 35.9693 33.0814 35.185 32.9729 34.3998C32.9442 34.1928 32.8697 34.122 32.6598 34.1238C31.5923 34.1338 30.524 34.1284 29.4565 34.1293C29.3919 34.1293 29.3273 34.1374 29.2627 34.1411L29.2618 34.1429ZM28.4733 34.1374C28.4841 34.1393 28.4554 34.1293 28.4276 34.1293C27.3 34.1293 26.1724 34.1311 25.0449 34.1275C24.8897 34.1275 24.8359 34.2019 24.8152 34.3417C24.6968 35.1405 24.5811 35.9403 24.4501 36.7373C24.4152 36.9506 24.4833 36.9987 24.6789 36.9969C25.4333 36.9887 26.1877 36.9897 26.9412 36.9969C27.117 36.9987 27.1843 36.9497 27.2049 36.7591C27.2731 36.1173 27.3906 35.4782 27.7485 34.9327C27.9441 34.6349 28.2311 34.398 28.4733 34.1374ZM28.8985 14.113C28.4733 14.113 28.0472 14.1157 27.6221 14.1121C27.4785 14.1112 27.396 14.1539 27.3969 14.3164C27.4005 15.1397 27.4005 15.964 27.3996 16.7873C27.3996 16.9335 27.4669 16.987 27.6077 16.9834C27.8311 16.977 28.0562 16.9752 28.2796 16.9834C28.4366 16.9888 28.4904 16.9235 28.4868 16.7692C28.4796 16.4442 28.4832 16.1192 28.4868 15.7942C28.4904 15.4429 28.6895 15.2114 28.9793 15.216C29.2726 15.2205 29.4628 15.4456 29.4664 15.8015C29.4691 16.111 29.478 16.4215 29.4637 16.731C29.4547 16.9353 29.5327 17.0024 29.7247 16.9852C29.8655 16.9725 30.0091 16.9743 30.1499 16.9852C30.3311 16.9988 30.3831 16.9126 30.3813 16.7428C30.3751 15.9422 30.3724 15.1406 30.3768 14.34C30.3777 14.1557 30.2988 14.1085 30.132 14.1112C29.7211 14.1194 29.3103 14.1139 28.9003 14.1139L28.8985 14.113ZM28.8842 42.5025C29.3022 42.5016 29.7202 42.4998 30.1382 42.5025C30.2746 42.5034 30.3517 42.4653 30.3293 42.3064C30.2351 41.641 30.0647 41.0047 29.6529 40.46C29.1748 39.8282 28.6079 39.8264 28.1226 40.4564C27.7064 40.9974 27.5377 41.6356 27.4444 42.301C27.4229 42.4517 27.4875 42.5052 27.631 42.5043C28.049 42.5007 28.4671 42.5034 28.8851 42.5034L28.8842 42.5025ZM38.4959 10.0853C38.4959 9.24649 38.4959 8.40862 38.4959 7.56984C38.4959 7.4718 38.504 7.37104 38.4869 7.27573C38.4573 7.10961 38.3569 7.00158 38.1811 7.0034C38.0079 7.00612 37.9039 7.10325 37.8788 7.27754C37.8689 7.34472 37.8707 7.4128 37.8707 7.48088C37.8707 9.19565 37.8707 10.9104 37.8707 12.6252C37.8707 12.8582 37.9828 12.9744 38.2071 12.9738C38.4959 12.9729 38.4968 12.9729 38.4968 12.6688C38.4968 11.8073 38.4959 10.9467 38.4959 10.0853ZM19.285 10.0608C19.285 10.9522 19.2841 11.8436 19.2868 12.735C19.2868 12.8058 19.3083 12.9338 19.3326 12.9375C19.5003 12.9602 19.6734 12.9738 19.8385 12.9475C19.8771 12.9411 19.912 12.7695 19.912 12.6742C19.9156 10.944 19.9147 9.21472 19.9129 7.48451C19.9129 7.39464 19.9228 7.29116 19.8833 7.21854C19.8385 7.13502 19.7497 7.03698 19.668 7.02337C19.5756 7.00794 19.4393 7.05242 19.3774 7.12231C19.3128 7.19494 19.2895 7.32747 19.2886 7.43368C19.2823 8.30967 19.285 9.18567 19.285 10.0626V10.0608ZM28.877 36.9924C29.0636 36.9924 29.2511 37.0051 29.435 36.9851C29.4942 36.9788 29.5955 36.8853 29.5919 36.839C29.5507 36.3161 29.4368 35.8096 29.1434 35.3657C28.955 35.0806 28.8106 35.0833 28.6231 35.3693C28.3352 35.8077 28.232 36.3079 28.1701 36.8208C28.1531 36.9579 28.2276 36.9924 28.3415 36.9924C28.52 36.9924 28.6985 36.9924 28.877 36.9924Z" fill="#F35427"/>
</g>
<defs>
<clipPath id="clip0_7_1936">
<rect width="56" height="56" fill="white" transform="translate(0.390015)"/>
</clipPath>
</defs>
</svg>
