<svg width="57" height="56" viewBox="0 0 57 56" fill="none" xmlns="http://www.w3.org/2000/svg">
<g id="a1032e8f-7fb9-49cd-bbb6-0faaeb6cc61f-1697650429996-4102515828415223.svg%2Bxml" clip-path="url(#clip0_7_1878)">
<path id="Vector" d="M48.8 0H8.79999C4.38171 0 0.799988 3.58172 0.799988 8V48C0.799988 52.4183 4.38171 56 8.79999 56H48.8C53.2183 56 56.8 52.4183 56.8 48V8C56.8 3.58172 53.2183 0 48.8 0Z" fill="#FFF0E9"/>
<path id="Vector_2" d="M28.1149 13.0827C28.1149 12.8464 28.1061 12.6847 28.1149 12.5231C28.1519 11.9582 28.0903 11.5443 27.5149 11.1446C26.2884 10.2919 26.4731 8.43727 27.7823 7.69828C28.041 7.55261 28.1378 7.40872 28.1184 7.12271C28.0938 6.75676 28.1131 6.38904 28.1131 6H29.5226C29.5226 6.3997 29.4998 6.80828 29.535 7.21331C29.5473 7.36431 29.6617 7.56327 29.7883 7.63965C30.5045 8.066 30.9181 8.67709 30.9233 9.51557C30.9286 10.3736 30.5116 10.9971 29.7778 11.427C29.6581 11.4963 29.5473 11.6775 29.535 11.8161C29.5033 12.2122 29.5244 12.6137 29.5244 13.0827C29.7655 13.0827 29.9925 13.0791 30.2195 13.0827C31.4231 13.1075 32.3152 14.0117 32.3381 15.2322C32.3469 15.6763 32.2009 16.2039 32.3909 16.5396C32.5757 16.8683 33.1088 16.9873 33.4749 17.22C36.3308 19.032 37.8494 21.6362 37.962 25.0452C38.0025 26.2425 37.9691 27.4434 37.9691 28.678H39.3768C39.3768 28.4435 39.3768 28.1984 39.3768 27.9532C39.3768 26.8572 39.3768 25.7629 39.3768 24.6668C39.3786 22.4427 40.5822 20.8599 42.7008 20.2897C42.7554 20.2755 42.8099 20.2595 42.8944 20.2364C42.8944 19.7603 42.9102 19.2878 42.8821 18.817C42.8768 18.7122 42.7378 18.5843 42.6304 18.5221C41.9107 18.1047 41.499 17.49 41.4954 16.6498C41.4919 15.7917 41.909 15.1682 42.6445 14.7401C42.7624 14.6708 42.8733 14.4878 42.8838 14.3493C42.9155 13.9531 42.8944 13.5516 42.8944 13.1182H44.3039C44.3039 13.5019 44.3144 13.8963 44.3004 14.2889C44.2916 14.518 44.3479 14.6513 44.5713 14.7685C45.3069 15.1575 45.7028 15.7935 45.7046 16.632C45.7046 17.4705 45.3086 18.1082 44.5749 18.499C44.3549 18.6163 44.2916 18.7442 44.3004 18.9769C44.3162 19.389 44.3039 19.8029 44.3039 20.2097C44.6734 20.3394 45.0324 20.4247 45.3544 20.5846C46.9082 21.3609 47.7616 22.6292 47.8127 24.3844C47.8531 25.8037 47.8215 27.2249 47.8215 28.7135C48.1558 28.7135 48.4725 28.6869 48.784 28.726C48.9125 28.742 49.1025 28.8752 49.1324 28.9907C49.699 31.2094 50.2463 33.4318 50.7953 35.6541C50.8059 35.695 50.7953 35.7411 50.7953 35.8104H49.2521V50.0024H8.42593V35.8353H6.79999C7.1836 34.2809 7.55137 32.7922 7.91914 31.3018C8.08983 30.6143 8.27987 29.9286 8.41889 29.234C8.49807 28.8343 8.64764 28.6336 9.08052 28.7064C9.30576 28.7437 9.54156 28.7135 9.81431 28.7135C9.81431 27.5962 9.81079 26.5196 9.81431 25.4431C9.81783 24.9262 9.78087 24.3986 9.86006 23.8923C10.175 21.9009 11.3839 20.7356 13.3301 20.2204C13.3301 19.7781 13.3442 19.3073 13.3196 18.8383C13.3143 18.73 13.1911 18.5914 13.0855 18.531C12.3465 18.11 11.9277 17.4847 11.9312 16.6267C11.9347 15.7686 12.3606 15.1504 13.0996 14.7294C13.2158 14.6637 13.3108 14.4701 13.3213 14.3279C13.3513 13.9336 13.3319 13.5339 13.3319 13.1111H14.7414C14.7414 13.2248 14.7484 13.326 14.7414 13.4237C14.6886 14.1059 14.7748 14.6211 15.4365 15.1149C16.5838 15.9676 16.3339 17.76 15.0705 18.4688C14.8083 18.6163 14.7203 18.7619 14.7361 19.0462C14.759 19.4423 14.7414 19.8402 14.7414 20.2328C16.4835 20.6574 17.6484 21.67 18.1164 23.4038C18.2255 23.8106 18.2502 24.2511 18.2555 24.6757C18.2731 26.0045 18.2625 27.335 18.2625 28.6905H19.6685C19.6685 28.5483 19.6667 28.392 19.6685 28.2375C19.6931 26.8323 19.5981 25.4129 19.7688 24.0255C20.1753 20.7107 21.9596 18.3232 24.9088 16.8309C25.1956 16.6853 25.3399 16.5432 25.3065 16.2074C25.2748 15.8841 25.2959 15.5572 25.3012 15.2304C25.3223 14.0117 26.218 13.1075 27.4216 13.0844C27.638 13.0809 27.8545 13.0844 28.1149 13.0844V13.0827ZM8.61597 34.3697C8.71979 34.3857 8.76378 34.3964 8.80602 34.3964C12.4397 34.3964 16.0735 34.3999 19.7072 34.3875C19.8673 34.3875 20.0679 34.2774 20.1823 34.1548C21.3278 32.929 22.4611 31.6891 23.5961 30.4527C23.6682 30.3727 23.728 30.2821 23.8231 30.156H9.6577C9.31104 31.5594 8.96791 32.9468 8.61597 34.3697ZM33.7863 30.1489C33.9482 30.3337 34.0503 30.4545 34.1559 30.5717C35.231 31.7424 36.315 32.9077 37.3796 34.0891C37.5855 34.3164 37.7913 34.4053 38.0958 34.4053C41.5834 34.3946 45.0693 34.3982 48.557 34.3982H49.0304C48.6714 32.9486 48.3247 31.5505 47.9781 30.1489H33.7846H33.7863ZM21.1132 28.6993C21.2223 28.7047 21.3085 28.7118 21.3947 28.7118C22.5966 28.7118 23.7967 28.7189 24.9985 28.7029C25.1323 28.7011 25.2941 28.5927 25.3944 28.4879C25.9523 27.9017 26.4925 27.2977 27.0468 26.7062C28.0991 25.5852 29.542 25.5835 30.5978 26.7026C31.1327 27.2711 31.6659 27.8395 32.1797 28.4275C32.3733 28.6496 32.5792 28.7242 32.8643 28.7171C33.5382 28.6993 34.2122 28.7118 34.8861 28.7118H36.5173V24.475H21.1167V28.6976L21.1132 28.6993ZM38.0043 42.9464V48.5741H47.8021V42.9464H38.0043ZM9.8495 42.9464V48.5741H19.6474V42.9464H9.84774H9.8495ZM47.8039 35.8459H38.9545C39.646 36.3398 39.8677 37.2049 40.7634 37.2884V40.0526H39.3557V37.2671H38.0043V41.4808H47.8021V35.8442L47.8039 35.8459ZM9.85126 35.8317V41.4808H19.6438V37.276H18.2502V40.0543H16.8864V37.2582C17.3932 37.2262 18.2044 36.5192 18.544 35.8317H9.8495H9.85126ZM28.8135 29.0795C28.949 29.2234 29.0616 29.3353 29.1672 29.4543C30.9497 31.4777 32.7305 33.5028 34.5148 35.5226C34.6169 35.6381 34.7524 35.798 34.8773 35.8033C35.5706 35.83 36.2657 35.8157 37.0312 35.8157C36.9203 35.6807 36.8693 35.6115 36.813 35.5493C34.411 32.9361 32.0091 30.3212 29.6036 27.7099C29.0898 27.1521 28.546 27.1645 28.0199 27.7365C25.6549 30.3035 23.2916 32.874 20.9302 35.4445C20.8387 35.5457 20.7595 35.6576 20.631 35.8175C21.319 35.8175 21.9332 35.8371 22.5438 35.8051C22.7338 35.7944 22.9679 35.6932 23.0946 35.5546C24.1204 34.4177 25.1252 33.2612 26.1388 32.1101C27.0221 31.1064 27.9073 30.1045 28.8135 29.0777V29.0795ZM32.3504 48.583H33.7159V41.5288H23.9251V48.5741H25.3205V42.9553H32.3504V48.583ZM24.7926 35.7873H32.8572C31.4935 34.24 30.1755 32.7425 28.824 31.2094C27.4726 32.7443 26.1546 34.24 24.7926 35.7873ZM30.9181 44.3693H26.7388V48.5812H30.9181V44.3693ZM11.2555 25.8943V28.6798H16.8301V25.8943H11.2555ZM46.3961 25.9068H40.8232V28.6922H46.3961V25.9068ZM22.4523 48.5919V37.2653H21.1026V48.5919H22.4523ZM35.1853 37.2635V48.5741H36.5384V37.2635H35.1853ZM30.8987 23.0058C30.7579 20.9896 30.1808 19.1794 28.817 17.6144C27.4462 19.1776 26.8779 20.9896 26.7388 23.0058H30.8987ZM30.6207 17.6232C31.7064 19.2931 32.1921 21.0962 32.3205 22.9987H36.2041C35.7888 20.6414 32.9927 17.9288 30.6207 17.6232ZM21.4352 23.013H25.317C25.4367 21.0855 25.9417 19.2842 27.0133 17.6161C24.5797 17.9803 21.7836 20.7054 21.4334 23.013H21.4352ZM16.8354 24.4288C16.8143 22.7998 15.4981 21.5527 13.9108 21.6131C12.4309 21.67 11.1816 22.9828 11.2537 24.4288H16.8354ZM46.3944 24.4341C46.3979 22.7749 44.9761 21.4781 43.3537 21.6184C41.9002 21.7446 40.6455 23.1444 40.8444 24.4341H46.3944ZM23.9163 37.2635V40.0543H26.672V37.2635H23.9163ZM30.9515 37.26V40.0579H33.7159V37.26H30.9515ZM26.7547 16.1701C28.1483 15.8397 29.5209 15.8486 30.9286 16.179C30.9286 15.8841 30.9304 15.6354 30.9286 15.3867C30.9216 14.7543 30.677 14.5091 30.0453 14.5056C29.4171 14.502 28.7871 14.5287 28.1589 14.5003C26.635 14.4292 26.6632 14.8023 26.723 16.0955C26.723 16.1097 26.7336 16.1221 26.7547 16.1719V16.1701ZM29.4892 40.0632V37.2635H28.1395V40.0632H29.4892ZM44.3004 16.6338C44.3004 16.2501 43.9801 15.9285 43.6 15.9303C43.2199 15.9303 42.9014 16.2536 42.9032 16.6373C42.9032 17.021 43.2234 17.3426 43.6035 17.3426C43.9836 17.3426 44.3021 17.0175 44.3021 16.6355L44.3004 16.6338ZM14.0235 15.9303C13.6434 15.9392 13.3301 16.2678 13.3389 16.6515C13.3477 17.0352 13.6733 17.3514 14.0534 17.3426C14.4335 17.3337 14.7467 17.0033 14.7379 16.6213C14.7291 16.2376 14.4018 15.9214 14.0235 15.9303ZM28.8047 8.82454C28.4246 8.83342 28.1114 9.16206 28.1202 9.54577C28.129 9.92948 28.4545 10.2457 28.8346 10.2368C29.2147 10.2279 29.5279 9.89751 29.5191 9.51557C29.5103 9.13186 29.183 8.81566 28.8047 8.82454Z" fill="#F35427"/>
<path id="Vector_3" d="M40.7563 47.1708H39.3996V44.3818H40.7563V47.1708Z" fill="#F35427"/>
<path id="Vector_4" d="M43.5717 47.1708H42.215V44.3818H43.5717V47.1708Z" fill="#F35427"/>
<path id="Vector_5" d="M45.0451 44.3574H46.3842V47.1606H45.0451V44.3574Z" fill="#F35427"/>
<path id="Vector_6" d="M12.5942 47.1812H11.2551V44.3779H12.5942V47.1812Z" fill="#F35427"/>
<path id="Vector_7" d="M15.4227 47.1703H14.0695V44.376H15.4227V47.1703Z" fill="#F35427"/>
<path id="Vector_8" d="M16.883 44.3682H18.2397V47.1572H16.883V44.3682Z" fill="#F35427"/>
<path id="Vector_9" d="M43.5719 40.0644H42.217V37.2754H43.5719V40.0644Z" fill="#F35427"/>
<path id="Vector_10" d="M45.0373 37.2617H46.394V40.0507H45.0373V37.2617Z" fill="#F35427"/>
<path id="Vector_11" d="M15.4135 40.0679H14.0656V37.2646H15.4135V40.0679Z" fill="#F35427"/>
<path id="Vector_12" d="M11.2473 37.2617H12.6022V40.0578H11.2473V37.2617Z" fill="#F35427"/>
</g>
<defs>
<clipPath id="clip0_7_1878">
<rect width="56" height="56" fill="white" transform="translate(0.799988)"/>
</clipPath>
</defs>
</svg>
