<svg width="25" height="25" viewBox="0 0 25 25" fill="none" xmlns="http://www.w3.org/2000/svg">
<g id="dd8c8bb6-875a-428f-bfda-1009104bd94e-1696578583394-4102515828415223.svg%2Bxml">
<path id="Vector" d="M8.75 15.8101C11.4424 15.8101 13.625 13.6275 13.625 10.9351C13.625 8.24267 11.4424 6.06006 8.75 6.06006C6.05761 6.06006 3.875 8.24267 3.875 10.9351C3.875 13.6275 6.05761 15.8101 8.75 15.8101Z" stroke="#FF693D" stroke-width="1.5" stroke-miterlimit="10"/>
<path id="Vector_2" d="M15.0703 6.24179C15.7408 6.05287 16.444 6.00984 17.1326 6.11558C17.8212 6.22132 18.479 6.47339 19.062 6.8548C19.6449 7.23622 20.1393 7.73812 20.512 8.32671C20.8846 8.9153 21.1267 9.57691 21.2221 10.267C21.3175 10.9571 21.264 11.6595 21.065 12.3272C20.866 12.9948 20.5263 13.612 20.0687 14.1372C19.6111 14.6625 19.0463 15.0836 18.4123 15.3722C17.7782 15.6608 17.0897 15.8101 16.3931 15.8102" stroke="#FF693D" stroke-width="1.5" stroke-linecap="round" stroke-linejoin="round"/>
<path id="Vector_3" d="M2 19.316C2.76138 18.233 3.77215 17.3491 4.94698 16.7389C6.12182 16.1287 7.42622 15.8102 8.75008 15.8101C10.0739 15.81 11.3784 16.1285 12.5532 16.7386C13.7281 17.3487 14.739 18.2326 15.5004 19.3155" stroke="#FF693D" stroke-width="1.5" stroke-linecap="round" stroke-linejoin="round"/>
<path id="Vector_4" d="M16.3926 15.8101C17.7166 15.8091 19.0213 16.1272 20.1962 16.7374C21.3712 17.3476 22.3819 18.2319 23.1426 19.3155" stroke="#FF693D" stroke-width="1.5" stroke-linecap="round" stroke-linejoin="round"/>
</g>
</svg>
