<svg width="25" height="25" viewBox="0 0 25 25" fill="none" xmlns="http://www.w3.org/2000/svg">
<g id="2d53bdda-6761-4473-95a0-5080816a4324-1696787661645-4102515828415223.svg%2Bxml">
<path id="Vector" d="M9.07996 15.0601H15.08" stroke="#FF693D" stroke-width="1.50207" stroke-linecap="round" stroke-linejoin="round"/>
<path id="Vector_2" d="M9.07996 12.0601H15.08" stroke="#FF693D" stroke-width="1.50207" stroke-linecap="round" stroke-linejoin="round"/>
<path id="Vector_3" d="M8.32996 7.56006V6.81006C8.32996 5.8155 8.72505 4.86167 9.42831 4.15841C10.1316 3.45515 11.0854 3.06006 12.08 3.06006C13.0746 3.06006 14.0284 3.45515 14.7317 4.15841C15.4349 4.86167 15.83 5.8155 15.83 6.81006V7.56006H8.32996Z" stroke="#FF693D" stroke-width="1.50207" stroke-linecap="round" stroke-linejoin="round"/>
<path id="Vector_4" d="M9.07996 4.56006H6.08307C4.83871 4.56006 3.82996 5.56881 3.82996 6.81317V20.307C3.82996 21.5513 4.83871 22.5601 6.08307 22.5601H18.0769C19.3212 22.5601 20.33 21.5513 20.33 20.307V6.81317C20.33 5.56881 19.3212 4.56006 18.0769 4.56006H15.455" stroke="#FF693D" stroke-width="1.50207" stroke-linecap="round" stroke-linejoin="round"/>
</g>
</svg>
