<svg width="57" height="56" viewBox="0 0 57 56" fill="none" xmlns="http://www.w3.org/2000/svg">
<g id="1887598a-34d6-42e2-b2e0-ed3a90408d61-1696572161975-4102515828415223.svg%2Bxml" clip-path="url(#clip0_7_1929)">
<path id="Vector" d="M48.8 0H8.79999C4.38171 0 0.799988 3.58172 0.799988 8V48C0.799988 52.4183 4.38171 56 8.79999 56H48.8C53.2183 56 56.8 52.4183 56.8 48V8C56.8 3.58172 53.2183 0 48.8 0Z" fill="#FFF0E9"/>
<path id="Vector_2" d="M29.2969 48.994C23.2257 48.994 17.1555 48.9921 11.0844 48.9994C10.8493 48.9994 10.7991 48.9232 10.8 48.7017C10.8072 46.7291 10.8072 44.7574 10.8 42.7848C10.8 42.5724 10.8493 42.4753 11.0736 42.4998C11.2288 42.5161 11.3876 42.4934 11.5437 42.5052C11.7374 42.5198 11.8029 42.4471 11.802 42.2465C11.7939 41.2035 11.7984 40.1605 11.7984 39.1184C11.7984 38.4838 11.8047 37.8484 11.7957 37.2139C11.793 37.0423 11.8504 36.9851 12.0137 36.9924C12.2075 37.0015 12.4021 36.986 12.5959 36.996C12.7708 37.0051 12.8291 36.937 12.8282 36.7591C12.8219 35.6634 12.8255 34.5677 12.8264 33.4721C12.8264 33.2645 12.9272 33.1607 13.1287 33.1607C13.2857 33.1607 13.4436 33.1498 13.5988 33.1634C13.7961 33.1807 13.858 33.1044 13.8562 32.9056C13.849 31.7718 13.8526 30.6389 13.8526 29.5051C13.8526 29.2661 13.9698 29.1465 14.2043 29.1465C14.5804 29.1465 14.7685 28.9556 14.7685 28.5737C14.7685 27.5162 14.7739 26.4577 14.764 25.4002C14.7622 25.1987 14.8214 25.1279 15.017 25.146C15.165 25.1605 15.3157 25.1497 15.4646 25.1487C15.7445 25.1469 15.7579 25.1342 15.7588 24.8564C15.7588 23.7381 15.7588 22.6197 15.7588 21.5013C15.7588 21.4333 15.7391 21.3552 15.766 21.2998C15.7965 21.2363 15.8656 21.1518 15.9239 21.1473C16.1311 21.1292 16.3419 21.1319 16.55 21.1437C16.7366 21.1546 16.7949 21.082 16.7931 20.8949C16.7859 19.7312 16.7949 18.5674 16.785 17.4037C16.7832 17.1958 16.8371 17.1123 17.0461 17.1313C17.1941 17.145 17.3457 17.1241 17.4937 17.1395C17.7081 17.1613 17.7798 17.0814 17.778 16.8599C17.7691 15.7189 17.7745 14.5778 17.7736 13.4367C17.7736 13.1335 17.7727 13.1335 18.0633 13.1326C18.2122 13.1326 18.362 13.1263 18.5109 13.1335C18.6661 13.1417 18.7262 13.0745 18.7235 12.9211C18.719 12.6488 18.7235 12.3774 18.7235 12.105C18.7235 10.5255 18.7208 8.94602 18.7244 7.3665C18.7262 6.63575 19.2025 6.08564 19.8816 6.01302C20.6199 5.93405 21.2756 6.52319 21.2917 7.29116C21.3025 7.81948 21.2998 8.34961 21.2917 8.87793C21.289 9.05858 21.3375 9.13756 21.5294 9.1312C21.8945 9.1194 22.2614 9.12122 22.6265 9.13211C22.8122 9.13756 22.8732 9.0731 22.8705 8.88429C22.8615 8.12903 22.858 7.37286 22.8723 6.6176C22.875 6.46328 22.9306 6.28717 23.0194 6.1628C23.136 5.99759 23.3307 5.964 23.5254 6.04116C23.7362 6.12468 23.8393 6.28989 23.8402 6.51683C23.8429 7.23488 23.8402 7.95292 23.8438 8.67006C23.8456 9.19021 23.781 9.12212 24.2977 9.12848C24.731 9.13393 25.1642 9.12212 25.5966 9.13211C25.7841 9.13665 25.8415 9.06584 25.8397 8.88157C25.8325 8.11087 25.8352 7.34018 25.8379 6.56948C25.8379 6.25812 25.9985 6.05024 26.255 6.01121C26.5654 5.964 26.8094 6.20093 26.8121 6.56495C26.8166 7.24486 26.8139 7.92478 26.8139 8.6056C26.8139 8.66643 26.8058 8.72815 26.8157 8.78625C26.8354 8.897 26.8614 9.10034 26.8919 9.10125C27.0615 9.10851 27.2768 9.12394 27.3952 9.03044C27.7728 8.73451 28.1675 8.49123 28.6376 8.38683C28.7793 8.35506 28.8035 8.26519 28.8026 8.13811C28.7999 7.60162 28.7945 7.06512 28.8071 6.52863C28.817 6.09926 29.235 5.85235 29.5534 6.10017C29.6745 6.19458 29.7669 6.39792 29.775 6.55678C29.8019 7.07693 29.7902 7.59889 29.7804 8.12086C29.7777 8.28698 29.8333 8.36505 29.9948 8.40227C30.4244 8.50121 30.8093 8.70092 31.1304 9.00684C31.3 9.16842 31.4892 9.13211 31.6758 9.10851C31.7162 9.10306 31.7655 8.9678 31.7664 8.89246C31.7736 8.18259 31.7709 7.4718 31.7709 6.76102C31.7709 6.69294 31.77 6.62486 31.7709 6.55678C31.7808 6.22453 31.9844 6.00122 32.2705 6.00667C32.5504 6.01302 32.7442 6.22816 32.746 6.55496C32.7496 7.31022 32.7469 8.06639 32.7478 8.82165C32.7478 9.12666 32.7487 9.12576 33.042 9.12576C33.5201 9.12576 33.9982 9.11849 34.4755 9.12939C34.6755 9.13393 34.7491 9.07674 34.7464 8.8616C34.7347 8.08364 34.7428 7.30478 34.7428 6.52682C34.7428 6.28898 34.8504 6.11923 35.0693 6.03572C35.2532 5.96491 35.446 5.99305 35.5582 6.151C35.647 6.27537 35.7053 6.45057 35.708 6.60398C35.7232 7.35198 35.7223 8.09998 35.7107 8.84798C35.7071 9.06947 35.7806 9.13846 35.9932 9.13029C36.3583 9.11577 36.7252 9.12122 37.0903 9.12848C37.2455 9.1312 37.3002 9.07129 37.2984 8.91515C37.2921 8.38593 37.2921 7.85761 37.2975 7.32838C37.3047 6.66571 37.7227 6.15827 38.3596 6.02664C38.9391 5.90772 39.5491 6.24632 39.7751 6.84181C39.8451 7.02609 39.8657 7.23942 39.8666 7.44003C39.8729 9.23106 39.8702 11.0221 39.8711 12.8131C39.8711 13.1299 39.872 13.1299 40.177 13.1308C40.6052 13.1314 40.8193 13.3484 40.8193 13.7817C40.8193 14.802 40.8247 15.8224 40.8148 16.8418C40.813 17.0651 40.8695 17.1658 41.1036 17.1404C41.2517 17.1241 41.4033 17.1486 41.5513 17.1341C41.7432 17.115 41.8096 17.174 41.8078 17.3819C41.798 18.5302 41.8033 19.6795 41.8033 20.8278C41.8033 21.1382 41.8042 21.1391 42.1155 21.1391C42.2797 21.1391 42.4447 21.1509 42.608 21.1364C42.791 21.1192 42.8376 21.1936 42.8367 21.3688C42.8313 22.5171 42.834 23.6664 42.834 24.8147C42.834 25.146 42.8358 25.1478 43.1534 25.1478C43.3023 25.1478 43.453 25.1569 43.601 25.1442C43.7795 25.1297 43.8288 25.2014 43.8279 25.3784C43.8208 26.5349 43.8244 27.6905 43.8244 28.847C43.8244 29.142 43.8253 29.142 44.1249 29.1429C44.5363 29.1447 44.742 29.3559 44.742 29.7765C44.742 30.7969 44.742 31.8172 44.742 32.8366C44.742 33.0484 44.8434 33.1549 45.0461 33.1562C45.2031 33.1562 45.361 33.167 45.5162 33.1525C45.7108 33.1344 45.7745 33.2024 45.7727 33.4049C45.7637 34.5006 45.7682 35.5962 45.7682 36.6919C45.7682 36.9897 45.7691 36.9897 46.0678 36.9897C46.2167 36.9897 46.3674 37.0005 46.5155 36.9869C46.7227 36.9679 46.7998 37.0296 46.7989 37.2602C46.7891 38.8769 46.7944 40.4945 46.7953 42.1113C46.7953 42.1267 46.7953 42.1412 46.7953 42.1567C46.7953 42.3836 46.9116 42.4977 47.1443 42.4989C47.286 42.4989 47.4286 42.5061 47.5695 42.498C47.7327 42.488 47.7964 42.5497 47.7919 42.7204C47.783 43.0753 47.7893 43.4303 47.7893 43.7861C47.7893 45.4255 47.7848 47.0659 47.7937 48.7053C47.7946 48.935 47.7309 48.9967 47.504 48.9967C41.4329 48.9903 35.3626 48.9921 29.2915 48.9921L29.2969 48.994ZM40.839 43.4865C38.9283 43.4865 37.0168 43.4893 35.1061 43.4829C34.906 43.4829 34.8316 43.5356 34.8325 43.7498C34.8414 45.0797 34.8414 46.4086 34.837 47.7385C34.837 47.9291 34.8872 48.0054 35.089 48.0045C38.9113 48 42.7336 47.999 46.5558 48.0045C46.7595 48.0045 46.824 47.9455 46.8231 47.7349C46.8142 46.4204 46.8187 45.106 46.8187 43.7915C46.8187 43.4874 46.8178 43.4874 46.5065 43.4874C44.6182 43.4874 42.7291 43.4874 40.8408 43.4874L40.839 43.4865ZM17.7682 43.4874C15.8638 43.4874 13.9594 43.4911 12.0559 43.4829C11.8397 43.4829 11.7769 43.5465 11.7787 43.7643C11.7876 45.0869 11.7868 46.4095 11.7796 47.7313C11.7787 47.9355 11.8343 48.0072 12.0433 48.0072C15.8521 48.0018 19.66 48.0009 23.4688 48.0054C23.6814 48.0054 23.7523 47.9382 23.7514 47.7204C23.7433 46.4059 23.7424 45.0906 23.7514 43.7761C23.7532 43.5465 23.685 43.482 23.4581 43.4829C21.5617 43.492 19.6645 43.4874 17.7682 43.4874ZM40.3501 37.9809C38.6036 37.9809 36.8571 37.9846 35.1097 37.9764C34.8935 37.9755 34.8289 38.0436 34.8307 38.2605C34.8397 39.5523 34.8361 40.844 34.8361 42.1358C34.8361 42.4998 34.8361 42.5016 35.1895 42.5016C38.6458 42.5016 42.102 42.5007 45.5574 42.5052C45.7575 42.5052 45.8346 42.4535 45.8337 42.2384C45.8256 40.9085 45.8247 39.5795 45.8337 38.2496C45.8355 38.0218 45.7503 37.9764 45.5458 37.9764C43.8136 37.9837 42.0823 37.9809 40.3501 37.9809ZM18.2544 37.9809C16.5222 37.9809 14.7891 37.9846 13.057 37.9764C12.8291 37.9755 12.7636 38.0454 12.7654 38.2723C12.7744 39.5868 12.7744 40.9021 12.7672 42.2166C12.7663 42.4281 12.8201 42.5061 13.0426 42.5052C16.5222 42.4989 20.0018 42.4998 23.4814 42.5052C23.6886 42.5052 23.7523 42.4372 23.7505 42.2302C23.7433 40.9157 23.7469 39.6004 23.746 38.2859C23.746 37.9818 23.7433 37.9809 23.45 37.9809C21.7178 37.9809 19.9848 37.9809 18.2526 37.9809H18.2544ZM39.5554 34.1302C37.9057 34.1293 36.2561 34.1284 34.6073 34.1293C34.314 34.1293 34.314 34.1347 34.3579 34.4189C34.479 35.1868 34.6073 35.9539 34.7105 36.7237C34.7392 36.937 34.8109 36.996 35.0173 36.996C38.1892 36.9906 41.3611 36.9915 44.5339 36.996C44.7393 36.996 44.8048 36.9325 44.8021 36.7237C44.7914 35.953 44.7887 35.1823 44.8021 34.4125C44.8066 34.1747 44.7232 34.1247 44.5043 34.1256C42.8547 34.1338 41.2041 34.1302 39.5554 34.1302ZM19.0491 34.1302C17.3914 34.1302 15.7346 34.1338 14.0769 34.1256C13.858 34.1247 13.7952 34.1955 13.7979 34.4107C13.8078 35.1886 13.806 35.9666 13.7988 36.7455C13.797 36.9316 13.8571 36.996 14.0428 36.996C17.238 36.9924 20.4333 36.9924 23.6285 36.996C23.7828 36.996 23.8501 36.9497 23.8734 36.7836C23.9846 35.9993 24.1102 35.2159 24.2331 34.4334C24.2807 34.1338 24.2842 34.132 23.9748 34.132C22.3323 34.132 20.6898 34.132 19.0474 34.132L19.0491 34.1302ZM29.3103 37.9809C27.8625 37.9809 26.4138 37.9837 24.966 37.9773C24.7776 37.9773 24.7032 38.0227 24.7041 38.2288C24.713 39.5732 24.7121 40.9185 24.7076 42.2629C24.7076 42.439 24.7642 42.5062 24.9382 42.5043C25.5051 42.498 26.0729 42.498 26.6399 42.5043C26.7986 42.5062 26.8623 42.4471 26.8874 42.2892C26.9448 41.9324 26.9978 41.5721 27.0956 41.2253C27.2929 40.5245 27.6131 39.8891 28.1846 39.417C28.8197 38.8914 29.6422 38.8433 30.2899 39.3526C30.594 39.5922 30.8577 39.9108 31.0676 40.2404C31.4354 40.8186 31.6094 41.4776 31.6821 42.1612C31.7066 42.3875 31.8337 42.501 32.0633 42.5016C32.5711 42.5016 33.0788 42.4925 33.5856 42.5061C33.809 42.5125 33.8816 42.4444 33.8798 42.2111C33.8691 40.8967 33.8691 39.5822 33.8798 38.2678C33.8816 38.0336 33.809 37.9755 33.5865 37.9764C32.1611 37.9855 30.7357 37.9809 29.3103 37.9809ZM38.7337 30.1315C37.1432 30.1315 35.5528 30.1315 33.9624 30.1315C33.8251 30.1315 33.6825 30.1097 33.7184 30.3348C33.8511 31.1545 33.9794 31.9751 34.1032 32.7958C34.1274 32.9564 34.2037 33 34.3588 33C37.4052 32.9955 40.4515 32.9937 43.4978 33C43.7221 33 43.7732 32.921 43.7696 32.7113C43.7589 31.9479 43.7571 31.1854 43.7696 30.422C43.7732 30.195 43.7122 30.1251 43.4817 30.126C41.8984 30.136 40.3161 30.1315 38.7328 30.1306L38.7337 30.1315ZM19.8726 30.1315C18.2822 30.1315 16.6917 30.1342 15.1013 30.1278C14.9022 30.1278 14.8259 30.1778 14.8286 30.3929C14.8403 31.1709 14.8385 31.9497 14.8295 32.7277C14.8268 32.931 14.8851 32.9991 15.095 32.9991C18.127 32.9928 21.1581 32.9937 24.1901 32.9991C24.3811 32.9991 24.469 32.951 24.4977 32.7477C24.6072 31.9779 24.7301 31.2099 24.853 30.4419C24.8996 30.1487 24.8906 30.1315 24.5982 30.1315C23.023 30.1315 21.4478 30.1315 19.8726 30.1315ZM42.1056 28.9595C42.1056 28.9723 42.1056 28.9859 42.1065 28.9986C42.2994 28.985 42.4932 28.9804 42.6842 28.9523C42.7371 28.945 42.8152 28.8742 42.8215 28.8243C42.8484 28.6092 42.8627 28.3904 42.8654 28.1725C42.8717 27.5634 42.8681 26.9552 42.8717 26.3461C42.8726 26.1854 42.8107 26.1191 42.6439 26.121C42.0787 26.1273 41.5127 26.1201 40.9476 26.1201C38.94 26.1201 36.9324 26.1219 34.9249 26.1246C34.6271 26.1246 34.3301 26.14 34.0323 26.14C33.7722 26.14 33.512 26.1309 33.251 26.1237C33.1335 26.1201 33.0851 26.1772 33.1048 26.2916C33.1344 26.4614 33.1766 26.6284 33.1999 26.7991C33.2887 27.4481 33.3739 28.0981 33.4564 28.748C33.4771 28.9087 33.5434 28.9886 33.7157 28.9868C34.2799 28.9813 34.845 28.9895 35.4102 28.985C35.8569 28.9813 36.3027 28.9614 36.7494 28.9586C37.4563 28.9541 38.1632 28.9586 38.87 28.9586C39.9492 28.9586 41.0274 28.9586 42.1065 28.9586L42.1056 28.9595ZM21.7178 28.9886C21.7178 28.9804 21.7178 28.9713 21.7178 28.9632C22.0533 28.9632 22.3888 28.9632 22.7243 28.9632C23.058 28.9632 23.3917 28.9632 23.7245 28.9632C24.0672 28.965 24.4116 28.9514 24.7534 28.9768C25.0395 28.9986 25.0996 28.9813 25.14 28.6918C25.2495 27.9147 25.349 27.1358 25.4585 26.3597C25.4809 26.2018 25.4378 26.14 25.2746 26.14C24.6431 26.1382 24.0106 26.1228 23.3791 26.1219C21.812 26.1201 20.2449 26.1219 18.6778 26.1255C18.4248 26.1255 18.1727 26.1446 17.9198 26.1437C17.256 26.1409 16.5922 26.1346 15.9293 26.1228C15.7777 26.1201 15.7283 26.1909 15.7355 26.3279C15.7463 26.5304 15.7696 26.7328 15.7678 26.9352C15.7624 27.508 15.7463 28.0799 15.7346 28.6527C15.7283 28.9468 15.74 28.9677 16.0288 28.9677C16.7061 28.9686 17.3834 28.9568 18.0606 28.9595C18.8554 28.9632 19.6511 28.9795 20.4458 28.9868C20.8701 28.9904 21.2935 28.9868 21.7178 28.9868V28.9886ZM37.1612 22.1295C35.6766 22.1295 34.1911 22.1322 32.7065 22.1259C32.5002 22.125 32.4526 22.1858 32.4876 22.391C32.6195 23.1725 32.7388 23.955 32.8509 24.7393C32.8778 24.9245 32.9424 24.9944 33.1344 24.9944C35.9547 24.989 38.7758 24.9881 41.5961 24.9944C41.8105 24.9944 41.8823 24.93 41.8787 24.7112C41.8679 23.9414 41.8661 23.1707 41.8787 22.4009C41.8823 22.1722 41.7988 22.125 41.5925 22.1259C40.1151 22.1331 38.6377 22.1295 37.1603 22.1304L37.1612 22.1295ZM21.4335 22.1286C19.9552 22.1295 18.4768 22.1341 16.9985 22.125C16.7796 22.1241 16.7169 22.1958 16.7204 22.4109C16.7312 23.1816 16.7303 23.9523 16.7204 24.723C16.7178 24.9336 16.7877 24.9944 16.9913 24.9944C19.8134 24.989 22.6364 24.989 25.4585 24.9944C25.6397 24.9944 25.7096 24.9291 25.7347 24.7548C25.8487 23.9632 25.9653 23.1707 26.0963 22.3819C26.1321 22.1649 26.064 22.1241 25.8684 22.125C24.3901 22.1313 22.9118 22.1286 21.4335 22.1286ZM36.3565 18.1199C34.9303 18.1199 33.504 18.1226 32.0777 18.1163C31.8848 18.1163 31.8292 18.1735 31.8615 18.3668C31.9943 19.1638 32.1234 19.9609 32.2391 20.7606C32.2652 20.9394 32.3405 20.9794 32.5011 20.9794C35.2047 20.9757 37.9075 20.9757 40.6112 20.9794C40.7996 20.9794 40.8543 20.9122 40.8525 20.7279C40.8444 19.95 40.8417 19.1711 40.8534 18.3931C40.857 18.168 40.7771 18.1145 40.5681 18.1154C39.1643 18.1235 37.7604 18.1199 36.3565 18.1199ZM22.0246 20.9767C23.3755 20.9767 24.7274 20.9739 26.0783 20.9803C26.2541 20.9803 26.3223 20.9294 26.3483 20.7461C26.4613 19.9536 26.5878 19.1638 26.7197 18.375C26.7511 18.1889 26.7179 18.1163 26.5152 18.1172C23.6778 18.1226 20.8414 18.1226 18.0041 18.1172C17.8085 18.1172 17.744 18.1762 17.7467 18.3759C17.7556 19.1466 17.7583 19.9173 17.7449 20.688C17.7404 20.9195 17.813 20.9839 18.0373 20.9821C19.3658 20.973 20.6952 20.9776 22.0237 20.9776L22.0246 20.9767ZM35.8192 16.9816C37.0733 16.9825 38.3282 16.9788 39.5823 16.9861C39.7841 16.987 39.8568 16.928 39.8541 16.7165C39.8433 15.9313 39.8451 15.1452 39.8523 14.359C39.8541 14.1702 39.7886 14.1094 39.6056 14.1094C37.0742 14.1139 34.5436 14.1139 32.0122 14.1094C31.8211 14.1094 31.7503 14.1648 31.753 14.3681C31.7628 15.1461 31.7646 15.9249 31.753 16.7029C31.7494 16.9244 31.822 16.9861 32.0337 16.9843C33.2959 16.9761 34.5571 16.9816 35.8192 16.9816ZM22.8041 16.9816C24.0654 16.9816 25.3266 16.977 26.5878 16.9843C26.7852 16.9852 26.8453 16.9226 26.8426 16.7238C26.8327 15.9458 26.83 15.1679 26.8417 14.3899C26.8453 14.1657 26.7645 14.1085 26.5564 14.1094C24.0411 14.1148 21.5259 14.1148 19.0115 14.1085C18.7989 14.1085 18.7451 14.1847 18.7477 14.3854C18.7567 15.1179 18.7513 15.8505 18.7513 16.5831C18.7513 17.0142 18.7154 16.9807 19.155 16.9807C20.3714 16.9816 21.5878 16.9816 22.8041 16.9816ZM29.3112 43.4893C27.8697 43.4893 26.4291 43.4929 24.9875 43.4847C24.7749 43.4838 24.7041 43.5401 24.7058 43.7625C24.7157 45.017 24.7094 46.2716 24.7148 47.5261C24.7175 48.0526 24.6242 48.0027 25.2172 48.009C25.3867 48.0108 25.4486 47.9428 25.4737 47.7757C25.7518 45.9275 27.1395 44.6013 28.9766 44.4197C30.9743 44.2227 32.8626 45.7451 33.1156 47.7658C33.138 47.9455 33.2008 48.0272 33.3811 48.0081C33.4475 48.0009 33.5156 48.0072 33.5829 48.0063C33.8753 48.0045 33.8771 48.0045 33.8771 47.6986C33.8771 46.3914 33.8718 45.0842 33.8825 43.777C33.8843 43.5455 33.8152 43.482 33.5901 43.4838C32.1638 43.4929 30.7375 43.4884 29.3112 43.4893ZM29.3229 30.1333C28.2554 30.1324 27.1879 30.1351 26.1196 30.1288C25.9438 30.1278 25.8639 30.1841 25.8379 30.362C25.7195 31.1681 25.5939 31.9742 25.4683 32.7794C25.4441 32.931 25.4809 33.0009 25.6495 33C26.665 32.9946 27.6804 32.9937 28.6959 32.9982C28.8609 32.9982 28.8977 32.9265 28.895 32.7794C28.8887 32.4545 28.8923 32.1295 28.895 31.8045C28.8977 31.4704 29.0932 31.2353 29.3704 31.229C29.6602 31.2217 29.8692 31.4586 29.8728 31.8018C29.8755 32.1267 29.8791 32.4517 29.8728 32.7767C29.8692 32.941 29.9266 33.0018 30.0943 33.0009C31.0425 32.9946 31.9907 32.9955 32.9388 32.9991C33.0949 32.9991 33.1559 32.9537 33.1299 32.7876C32.9998 31.9751 32.8734 31.1627 32.7514 30.3484C32.7262 30.1796 32.6473 30.1288 32.4822 30.1297C31.4291 30.136 30.376 30.1333 29.3229 30.1333ZM31.4228 12.9493C31.5332 12.9611 31.5906 12.9729 31.648 12.9729C33.4618 12.9729 35.2747 12.972 37.0885 12.9765C37.2563 12.9765 37.3065 12.9193 37.3047 12.7541C37.2984 11.9534 37.2984 11.1528 37.3065 10.3521C37.3083 10.1597 37.2392 10.1107 37.0589 10.1116C35.4317 10.117 33.8054 10.1152 32.1782 10.1161C32.1001 10.1161 32.023 10.1279 31.9126 10.137C32.2544 11.1664 32.0768 12.0842 31.4228 12.9493ZM26.6793 10.1334C26.5753 10.1252 26.5035 10.1152 26.4317 10.1152C24.7973 10.1143 23.1621 10.1161 21.5277 10.1107C21.3536 10.1107 21.2935 10.1642 21.2953 10.3431C21.3025 11.1365 21.3043 11.9298 21.2953 12.7223C21.2926 12.9239 21.3572 12.9774 21.551 12.9765C23.3352 12.9701 25.1185 12.9729 26.9027 12.972C26.978 12.972 27.0534 12.9574 27.1673 12.9456C26.5071 12.0769 26.342 11.1573 26.6793 10.1334ZM29.3049 26.1255C28.4465 26.1264 27.588 26.1291 26.7305 26.1246C26.5735 26.1237 26.4757 26.1527 26.4649 26.3379C26.4533 26.5476 26.4273 26.7573 26.3923 26.9643C26.2927 27.5507 26.1824 28.1353 26.0837 28.7217C26.0667 28.8216 26.055 28.945 26.2129 28.9577C26.3609 28.9695 26.5089 28.9886 26.6569 28.9877C27.3126 28.9822 27.9684 28.9605 28.6241 28.9668C28.8537 28.9695 28.9067 28.8742 28.8986 28.6718C28.8842 28.2805 28.8735 27.8884 28.8735 27.4962C28.8735 27.1585 29.087 26.9361 29.3875 26.9416C29.7068 26.947 29.8916 27.1495 29.8952 27.5044C29.8988 27.912 29.9006 28.3205 29.8943 28.7281C29.8916 28.8788 29.9149 28.9686 30.0961 28.9668C30.855 28.9614 31.6148 28.9686 32.3737 28.9677C32.5163 28.9677 32.5432 28.8869 32.511 28.7544C32.4544 28.5211 32.4006 28.286 32.3656 28.0491C32.2849 27.5008 32.2104 26.9507 32.145 26.3996C32.1198 26.1863 32.0328 26.1155 31.814 26.1191C30.9779 26.1328 30.1419 26.1246 29.3067 26.1246L29.3049 26.1255ZM29.3005 22.1286C28.6663 22.1286 28.0321 22.1359 27.3979 22.1241C27.1897 22.1204 27.0973 22.1713 27.0668 22.4C26.9619 23.1852 26.8363 23.9677 26.7062 24.7493C26.6748 24.9363 26.7278 24.9953 26.9072 24.9944C27.4965 24.989 28.0868 24.9872 28.6761 24.9944C28.8439 24.9962 28.9004 24.9345 28.8968 24.7702C28.8896 24.4452 28.8932 24.1212 28.8968 23.7962C28.8995 23.4576 29.0888 23.2334 29.374 23.2252C29.6647 23.217 29.871 23.4494 29.8746 23.7962C29.8782 24.1212 29.8808 24.4461 29.8746 24.7702C29.871 24.9345 29.9302 24.9971 30.097 24.9944C30.6191 24.9872 31.1421 24.9872 31.6641 24.9944C31.8507 24.9971 31.9144 24.9454 31.8812 24.743C31.7503 23.9541 31.6292 23.1635 31.5188 22.371C31.4919 22.1758 31.4103 22.1213 31.2282 22.1241C30.5868 22.1322 29.9445 22.1268 29.3032 22.1277L29.3005 22.1286ZM29.2843 48.0036C29.6431 48.0036 30.001 48.0036 30.3599 48.0036C30.89 48.0036 31.4202 48.0054 31.9503 48.0027C32.0562 48.0027 32.1853 48.029 32.1503 47.8311C31.9288 46.602 30.9645 45.5326 29.5741 45.3992C28.0832 45.2558 26.7977 46.2371 26.4622 47.7195C26.4021 47.9863 26.4129 48.0027 26.6865 48.0036C27.553 48.0054 28.4178 48.0036 29.2843 48.0036ZM31.1053 11.1156C31.0972 10.0934 30.2782 9.26555 29.2834 9.27554C28.2832 9.28552 27.4813 10.1161 27.4858 11.1392C27.4902 12.1568 28.3092 12.9729 29.3184 12.9638C30.3087 12.9547 31.1134 12.1232 31.1053 11.1156ZM29.3229 18.1199C28.86 18.1199 28.3971 18.1226 27.9343 18.1181C27.8033 18.1172 27.7208 18.1526 27.6993 18.296C27.5773 19.1175 27.4544 19.9382 27.327 20.7588C27.3028 20.9158 27.3431 20.9812 27.5082 20.9785C27.9038 20.9721 28.2994 20.9703 28.695 20.9794C28.8582 20.983 28.8995 20.9122 28.8968 20.7624C28.8905 20.4374 28.8923 20.1125 28.8959 19.7875C28.8995 19.4371 29.0798 19.2301 29.3749 19.2265C29.6817 19.2228 29.8701 19.4325 29.8737 19.7938C29.8782 20.1261 29.8782 20.4592 29.8737 20.7915C29.8719 20.9276 29.9239 20.9803 30.0585 20.9776C30.402 20.9721 30.7456 20.9703 31.0892 20.9776C31.2416 20.9803 31.2883 20.9222 31.265 20.7742C31.1358 19.9545 31.0093 19.1339 30.8855 18.3124C30.8631 18.1644 30.7931 18.1126 30.6451 18.1154C30.2047 18.1235 29.7642 18.1181 29.3238 18.1181L29.3229 18.1199ZM29.6718 34.1429C29.6638 34.1601 29.6557 34.1774 29.6476 34.1946C30.2271 34.4624 30.5285 34.9617 30.7088 35.5336C30.8353 35.9339 30.9088 36.3533 30.977 36.7691C31.0057 36.9434 31.0658 36.996 31.2318 36.9942C31.9934 36.9878 32.7549 36.9887 33.5165 36.9942C33.6932 36.9951 33.7749 36.9624 33.7399 36.7509C33.6098 35.9693 33.4914 35.185 33.3829 34.3998C33.3542 34.1928 33.2797 34.122 33.0698 34.1238C32.0023 34.1338 30.934 34.1284 29.8665 34.1293C29.8019 34.1293 29.7373 34.1374 29.6727 34.1411L29.6718 34.1429ZM28.8833 34.1374C28.8941 34.1393 28.8654 34.1293 28.8376 34.1293C27.71 34.1293 26.5824 34.1311 25.4549 34.1275C25.2997 34.1275 25.2459 34.2019 25.2252 34.3417C25.1068 35.1405 24.9911 35.9403 24.8601 36.7373C24.8252 36.9506 24.8933 36.9987 25.0889 36.9969C25.8433 36.9887 26.5977 36.9897 27.3512 36.9969C27.527 36.9987 27.5943 36.9497 27.6149 36.7591C27.6831 36.1173 27.8006 35.4782 28.1585 34.9327C28.3541 34.6349 28.6411 34.398 28.8833 34.1374ZM29.3085 14.113C28.8833 14.113 28.4572 14.1157 28.0321 14.1121C27.8885 14.1112 27.806 14.1539 27.8069 14.3164C27.8105 15.1397 27.8105 15.964 27.8096 16.7873C27.8096 16.9335 27.8769 16.987 28.0177 16.9834C28.2411 16.977 28.4662 16.9752 28.6896 16.9834C28.8466 16.9888 28.9004 16.9235 28.8968 16.7692C28.8896 16.4442 28.8932 16.1192 28.8968 15.7942C28.9004 15.4429 29.0995 15.2114 29.3893 15.216C29.6826 15.2205 29.8728 15.4456 29.8764 15.8015C29.8791 16.111 29.888 16.4215 29.8737 16.731C29.8647 16.9353 29.9427 17.0024 30.1347 16.9852C30.2755 16.9725 30.4191 16.9743 30.5599 16.9852C30.7411 16.9988 30.7931 16.9126 30.7913 16.7428C30.7851 15.9422 30.7824 15.1406 30.7868 14.34C30.7877 14.1557 30.7088 14.1085 30.542 14.1112C30.1311 14.1194 29.7203 14.1139 29.3103 14.1139L29.3085 14.113ZM29.2942 42.5025C29.7122 42.5016 30.1302 42.4998 30.5482 42.5025C30.6846 42.5034 30.7617 42.4653 30.7393 42.3064C30.6451 41.641 30.4747 41.0047 30.0629 40.46C29.5848 39.8282 29.0179 39.8264 28.5326 40.4564C28.1164 40.9974 27.9477 41.6356 27.8544 42.301C27.8329 42.4517 27.8975 42.5052 28.041 42.5043C28.459 42.5007 28.8771 42.5034 29.2951 42.5034L29.2942 42.5025ZM38.9059 10.0853C38.9059 9.24649 38.9059 8.40862 38.9059 7.56984C38.9059 7.4718 38.914 7.37104 38.8969 7.27573C38.8673 7.10961 38.7669 7.00158 38.5911 7.0034C38.4179 7.00612 38.3139 7.10325 38.2888 7.27754C38.2789 7.34472 38.2807 7.4128 38.2807 7.48088C38.2807 9.19565 38.2807 10.9104 38.2807 12.6252C38.2807 12.8582 38.3928 12.9744 38.6171 12.9738C38.9059 12.9729 38.9068 12.9729 38.9068 12.6688C38.9068 11.8073 38.9059 10.9467 38.9059 10.0853ZM19.695 10.0608C19.695 10.9522 19.6941 11.8436 19.6968 12.735C19.6968 12.8058 19.7183 12.9338 19.7426 12.9375C19.9103 12.9602 20.0834 12.9738 20.2485 12.9475C20.2871 12.9411 20.322 12.7695 20.322 12.6742C20.3256 10.944 20.3247 9.21472 20.3229 7.48451C20.3229 7.39464 20.3328 7.29116 20.2933 7.21854C20.2485 7.13502 20.1597 7.03698 20.078 7.02337C19.9856 7.00794 19.8493 7.05242 19.7874 7.12231C19.7228 7.19494 19.6995 7.32747 19.6986 7.43368C19.6923 8.30967 19.695 9.18567 19.695 10.0626V10.0608ZM29.287 36.9924C29.4736 36.9924 29.6611 37.0051 29.845 36.9851C29.9042 36.9788 30.0055 36.8853 30.0019 36.839C29.9607 36.3161 29.8468 35.8096 29.5534 35.3657C29.365 35.0806 29.2206 35.0833 29.0331 35.3693C28.7452 35.8077 28.642 36.3079 28.5801 36.8208C28.5631 36.9579 28.6376 36.9924 28.7515 36.9924C28.93 36.9924 29.1085 36.9924 29.287 36.9924Z" fill="#F35427"/>
</g>
<defs>
<clipPath id="clip0_7_1929">
<rect width="56" height="56" fill="white" transform="translate(0.799988)"/>
</clipPath>
</defs>
</svg>
