<svg width="107" height="28" viewBox="0 0 107 28" fill="none" xmlns="http://www.w3.org/2000/svg">
<g id="vedantu-logo.svg" clip-path="url(#clip0_7_1772)">
<path id="Vector" fill-rule="evenodd" clip-rule="evenodd" d="M105.567 20.5489C105.132 20.5489 104.758 20.9124 104.571 21.7603L104.563 21.7998C104.192 23.544 103.811 25.3335 102.142 25.2734C101.083 25.2734 100.772 23.7592 100.834 23.3957L101.021 13.8863C101.083 12.9777 100.398 12.1297 99.4015 12.0692H99.09C98.5295 12.0692 97.7821 12.1903 97.7821 12.4931C97.7821 12.5915 97.8281 12.6643 97.888 12.7592C98.0127 12.9567 98.1978 13.2499 98.1558 14.068L98.0312 19.7615C98.0312 22.6083 96.1627 25.2128 94.5434 25.1523C94.5434 25.1523 90.9309 26.2425 93.0486 14.2497C93.0838 14.0782 93.1391 13.8938 93.195 13.707C93.4354 12.9042 93.6889 12.0577 92.4257 12.0086C90.6501 11.9592 90.4861 12.5127 90.318 13.0797C90.2798 13.2088 90.2413 13.3387 90.1835 13.4623C89.8098 16.2485 89.5607 19.0347 89.4984 21.8815V22.0632C89.0002 23.5169 88.2528 24.9706 87.0071 24.91C86.1351 24.91 85.5746 24.3043 85.6369 23.0323L85.8237 10.6155C88.0036 10.676 90.1835 10.676 93.5468 10.676C94.6056 10.676 95.1039 6.79957 93.8582 7.9504C91.0555 8.01097 88.3773 8.01097 85.886 8.01097L85.9483 4.19506C85.9483 3.22594 85.0763 2.37796 83.7061 2.37796C83.1455 2.37796 82.3981 2.4991 82.3358 2.80195C82.3137 2.90984 82.3626 2.98697 82.432 3.09635C82.5574 3.294 82.7496 3.59691 82.7095 4.37677L82.6473 7.9504C80.4051 7.88983 78.9103 7.76869 78.9103 7.76869C77.7269 7.76869 78.412 10.4943 79.7199 10.4943C80.6542 10.5549 81.6507 10.6155 82.585 10.6155L82.3981 21.0941C81.9622 22.79 81.1525 24.91 79.6577 24.8494C78.5989 24.8494 78.5989 23.3352 78.5989 22.9717L78.7234 15.4005C78.7857 13.5228 78.1006 11.2817 75.3601 11.2817C73.3048 11.2212 71.81 12.9777 70.6266 15.2188V13.4017C70.6266 12.4326 69.7546 11.5846 68.3844 11.5846C67.8239 11.5846 67.3256 11.8269 67.2633 12.2509C67.3256 12.6749 67.3879 13.0989 67.3879 13.5228L67.2633 19.7615L67.0765 20.3067C66.7028 22.0632 65.8931 24.6677 64.2114 24.6071C63.2149 24.6071 62.7789 23.638 62.8412 22.7295L62.9658 16.8542C62.9658 15.8851 62.0938 15.0371 60.7236 15.0371C60.163 15.0371 59.6025 15.2794 59.6025 15.7034C59.727 16.1273 59.727 16.5513 59.727 16.9753L59.6648 22.4266C59.1665 23.5774 58.4191 24.486 57.298 24.486C55.8655 24.486 54.9312 23.214 54.9935 21.0941C55.1181 15.2794 58.8551 13.5228 61.9692 13.5228C62.1956 13.5228 62.4052 13.5555 62.6067 13.5869C62.7933 13.616 62.973 13.644 63.1526 13.644C63.5263 13.644 63.7132 13.4017 63.7132 12.7354C63.7132 11.7663 62.9035 10.9789 61.9692 10.9789H61.8447C56.7374 10.9183 51.8794 14.1285 51.7548 20.9124C51.7548 21.2152 51.7548 21.5181 51.8171 21.8209C51.3188 23.1535 50.6337 24.3043 49.4503 24.3043C48.7652 24.3043 48.2046 23.8197 48.0801 23.214L48.3915 4.3162C48.3915 2.55967 47.5818 1.71169 46.2116 1.71169C45.651 1.71169 44.9036 1.83283 44.8414 2.13568C44.8192 2.24357 44.8681 2.32071 44.9375 2.43008C45.0629 2.62773 45.2551 2.93064 45.215 3.7105L45.0905 10.8578C40.5438 11.4029 36.62 14.1285 36.4954 20.3067V21.1546C35.6857 22.79 34.3155 24.1226 32.011 24.062C30.5162 24.1226 29.0837 23.2746 28.3986 21.9421C32.1979 19.7615 34.6892 17.5204 34.7515 14.7948C34.8138 12.372 33.3812 10.676 31.0768 10.6155C27.9003 10.5549 24.4747 13.7045 24.4125 18.853C24.4125 19.701 24.537 20.5489 24.7862 21.3969C22.6685 23.0323 20.2395 24.3649 17.6859 25.334C18.3771 22.2608 19.0586 19.3208 19.7381 16.3896C20.7728 11.9261 21.8027 7.48278 22.8554 2.62024C23.0655 1.95613 23.2867 1.50745 23.4442 1.1879C23.6603 0.749681 23.7566 0.554288 23.5405 0.379152C22.6685 -0.347688 20.1149 -0.105408 19.7412 1.77226C18.8692 6.25444 17.5613 11.948 16.5025 16.309C14.8208 16.1273 13.0769 16.4908 11.6444 17.3993C10.4707 15.6056 9.08031 13.4081 7.6677 11.1755C6.45668 9.26142 5.22932 7.32156 4.10813 5.58817C3.17388 4.13449 0.620265 4.61905 0.0597163 5.58817C-0.0722207 5.81271 0.0229257 5.90134 0.261899 6.12397C0.474172 6.32173 0.799928 6.6252 1.18081 7.22356C2.87616 9.69663 4.40373 12.092 5.9066 14.4486C8.59983 18.6718 11.2137 22.7707 14.5717 26.9694C15.0077 27.5145 15.7551 27.7568 16.4402 27.5145V27.5751L17.3122 27.1511L16.5025 27.5751C18.8692 27.2116 21.8588 25.9397 25.7204 23.5774C26.9038 25.758 29.2705 27.0299 31.7619 26.9694C33.9418 27.0905 36.1217 26.3031 37.6165 24.7283C38.4885 26.2425 40.1701 27.1511 41.914 27.0905C43.2843 27.0905 44.6545 26.5454 45.651 25.5763C46.3362 26.6059 47.5195 27.2116 48.7652 27.2116C50.3846 27.2116 51.8794 26.4242 52.8136 25.1523C53.6233 26.4848 55.1181 27.3328 56.7374 27.3328C58.1077 27.3328 59.4156 26.7876 60.3499 25.758C61.035 26.8482 62.2184 27.4539 63.5263 27.4539C64.9588 27.4539 66.3291 26.8482 67.2633 25.758C67.2633 27.2116 68.3844 27.5145 69.2564 27.5145C70.4398 27.5145 70.4398 26.5454 70.4398 25.8185L70.5643 19.8827C70.938 16.6725 73.5539 14.068 74.7373 14.068C75.547 14.068 75.6093 15.1582 75.547 16.3696L75.4224 23.7592C75.3601 25.8185 76.6681 27.5751 78.848 27.6356C80.4051 27.6356 81.8376 26.9088 82.7718 25.758C83.3324 27.0299 84.6403 27.8779 86.0728 27.7568C87.6922 27.7568 89.187 27.0299 90.1213 25.758C90.7441 27.0905 92.1766 27.9385 93.6714 27.9385C95.4776 27.9385 96.8478 26.7877 97.9067 25.0917C98.0935 26.7877 99.526 27.9991 101.27 27.9991C104.882 28.0596 106.128 25.2128 106.938 22.5478C107 22.4266 107 22.366 107 22.2449C107 21.4575 106.253 20.5489 105.567 20.5489ZM30.7655 13.3409C31.3261 13.3409 31.6375 13.8861 31.6375 14.7946C31.5752 17.2174 29.8936 18.4288 28.0251 19.5796C28.0251 19.4585 28.0095 19.3373 27.9939 19.2162C27.9784 19.0951 27.9628 18.9739 27.9628 18.8528C27.9005 17.0963 28.7102 13.3409 30.7655 13.3409ZM42.6615 24.5458C43.7203 24.4853 44.6545 23.8796 45.0905 22.971L45.2773 12.977C42.5369 13.4615 39.9833 15.2786 39.921 20.3665C39.8587 23.2739 41.2289 24.5458 42.6615 24.5458Z" fill="#FF693D"/>
</g>
<defs>
<clipPath id="clip0_7_1772">
<rect width="107" height="28" fill="white"/>
</clipPath>
</defs>
</svg>
