<svg width="57" height="56" viewBox="0 0 57 56" fill="none" xmlns="http://www.w3.org/2000/svg">
<g id="73cb2452-1986-4775-8ccb-4eb266458d79-1696572109630-4102515828415223.svg%2Bxml" clip-path="url(#clip0_7_1915)">
<path id="Vector" d="M48.61 0H8.60999C4.19171 0 0.609985 3.58172 0.609985 8V48C0.609985 52.4183 4.19171 56 8.60999 56H48.61C53.0283 56 56.61 52.4183 56.61 48V8C56.61 3.58172 53.0283 0 48.61 0Z" fill="#FFF0E9"/>
<path id="Vector_2" fill-rule="evenodd" clip-rule="evenodd" d="M27.7363 7.12752C27.4295 7.21292 27.0124 7.39223 26.8096 7.52596C26.274 7.87911 25.8584 8.03421 24.7862 8.28089C24.2611 8.40175 23.7324 8.58258 23.6113 8.68267C23.2703 8.9645 22.9702 9.52118 22.9698 9.87251L22.9694 10.1906L22.1988 10.2295C21.1736 10.2812 21.1438 10.3258 21.1438 11.8019V12.9471L20.6903 13.1599C19.7818 13.5865 19.3199 14.3579 19.3188 15.451L19.3182 15.9786L18.5828 16.5556C18.1785 16.8729 17.6991 17.2712 17.5179 17.4409L17.1883 17.7492L17.1873 19.4768L17.1862 21.2045L16.2092 21.9625C15.6719 22.3795 15.1018 22.8422 14.9425 22.991L14.6527 23.2612V25.1359V27.0106L13.8043 27.7799C13.0041 28.5056 12.9293 28.5492 12.4858 28.5492C11.9441 28.5492 11.61 28.8005 11.61 29.2077C11.61 29.5328 11.9438 29.8662 12.2693 29.8662H12.5228V32.074V34.2817L12.1954 34.3787C12.0076 34.4343 11.8022 34.5944 11.7137 34.7542C11.5753 35.0038 11.5755 35.0617 11.7151 35.311C11.8133 35.4863 11.9822 35.6085 12.1715 35.6413L12.4721 35.6932L12.4986 39.8205L12.525 43.9478H12.2704C12.1303 43.9478 11.9244 44.0389 11.8128 44.1504C11.6271 44.3359 11.61 44.488 11.61 45.9513C11.61 47.234 11.6411 47.5942 11.7679 47.7748L11.9257 48H28.5885C45.1896 48 45.2518 47.9993 45.4369 47.7949C45.6025 47.6121 45.6209 47.4122 45.6058 45.9551C45.5872 44.1709 45.5327 43.9905 44.9931 43.9281L44.7247 43.8971V39.7942C44.7247 36.5861 44.7524 35.6886 44.8515 35.6786C44.9212 35.6716 45.0435 35.6603 45.1232 35.6533C45.3786 35.631 45.5868 35.332 45.5868 34.9873C45.5868 34.6021 45.4448 34.4523 44.994 34.3623L44.674 34.2983V32.0823V29.8662H44.9625C45.3301 29.8662 45.5868 29.5841 45.5868 29.1801C45.5868 28.7737 45.2742 28.5492 44.7082 28.5492C44.3189 28.5492 44.209 28.4839 43.4882 27.8234C43.0526 27.4241 42.6734 27.0786 42.6455 27.0555C42.6176 27.0323 42.572 26.1397 42.5441 25.0721L42.4934 23.1309L41.3017 22.1718L40.1099 21.2127V19.6196C40.1099 18.7435 40.0689 17.9188 40.0188 17.787C39.9685 17.6552 39.4893 17.2088 38.9538 16.7951L37.98 16.0427V15.5775C37.98 14.48 37.433 13.5236 36.6126 13.1866L36.1551 12.9987L36.1548 11.8545C36.1544 10.7748 36.1403 10.696 35.9054 10.4615C35.6928 10.2491 35.5615 10.2128 35.0056 10.2128H34.3548L34.2923 9.8329C34.2139 9.35595 33.9121 8.85834 33.5622 8.62938C33.4143 8.53253 32.8986 8.36963 32.4164 8.26742C31.8485 8.14696 31.1824 7.90352 30.5254 7.5762C29.34 6.98569 28.6468 6.87415 27.7363 7.12752ZM29.6126 8.61135C30.7872 9.21959 31.0549 9.32576 31.8496 9.4993C32.7356 9.69269 33.0103 9.82844 33.0103 10.0732C33.0103 10.1896 32.2847 10.2128 28.642 10.2128H24.2738L24.3062 9.9876C24.3345 9.79167 24.4811 9.72643 25.4381 9.48471C26.1074 9.31553 26.8006 9.06004 27.2098 8.83139C28.2769 8.2353 28.7949 8.18789 29.6126 8.61135ZM34.8152 12.2642L34.8452 12.9481H28.6538H22.4623V12.3065C22.4623 11.9535 22.493 11.6341 22.5306 11.5965C22.5683 11.559 25.341 11.54 28.6921 11.5543L34.7852 11.5804L34.8152 12.2642ZM36.3154 14.6C36.5228 14.8409 36.5601 14.9905 36.5601 15.5811C36.5601 15.9644 36.6021 16.3883 36.6534 16.5231C36.7047 16.6579 37.1497 17.0785 37.6423 17.4577C38.1348 17.8369 38.5835 18.1876 38.6393 18.237C38.6958 18.287 38.7631 19.1191 38.7914 20.1158L38.8421 21.9047L40.0339 22.8584L41.2256 23.8122V25.5795C41.2256 26.6002 41.2698 27.4294 41.3303 27.5421C41.3878 27.6495 41.6274 27.919 41.8627 28.1407L42.2905 28.5441L40.1353 28.5467L37.98 28.5492V24.5154C37.98 21.252 37.9514 20.3853 37.8302 19.9775C37.2296 17.9575 34.4761 17.586 33.3679 19.3755L33.061 19.8712L33.0103 24.1849L32.9596 28.4986L32.3302 28.5287L31.7007 28.5586L31.6686 23.5646C31.6396 19.0665 31.6185 18.524 31.4558 18.1012C31.0438 17.0308 30.032 16.2978 28.8502 16.2133C27.8522 16.1419 27.2268 16.3775 26.5162 17.0925C25.5908 18.0236 25.6064 17.9112 25.6064 23.6475V28.5492H24.9472H24.2879L24.2869 24.3703C24.2859 20.1955 24.2857 20.191 24.0471 19.6793C23.5836 18.685 22.6037 18.1313 21.5076 18.2443C20.8687 18.3101 20.5081 18.4807 20.0462 18.9356C19.3464 19.6246 19.3719 19.4334 19.3395 24.2184L19.31 28.5492H17.1626H15.0153L15.4909 28.0669L15.9664 27.5847L15.9942 25.7164L16.0219 23.848L16.8368 23.1847C17.285 22.8199 17.8327 22.3775 18.0539 22.2015L18.4561 21.8814L18.5068 20.0791L18.5575 18.2768L19.5172 17.5337C20.0451 17.125 20.5121 16.7353 20.5552 16.6675C20.5983 16.5998 20.6342 16.2161 20.6351 15.8147C20.636 15.4134 20.6927 14.9623 20.761 14.8125C21.0123 14.2615 20.8955 14.269 28.7847 14.2933L36.0706 14.3157L36.3154 14.6ZM29.5407 17.7781C29.6918 17.8899 29.9181 18.1321 30.0437 18.3163L30.2719 18.6512V23.5496V28.4479H28.5984H26.9249V23.6679C26.9249 19.0286 26.9311 18.875 27.1366 18.4511C27.4427 17.8195 28.0255 17.4847 28.7293 17.5358C29.0565 17.5596 29.3733 17.6542 29.5407 17.7781ZM22.3738 19.6916C22.95 19.9892 22.9694 20.1455 22.9694 24.4937V28.4479H21.803H20.6367V24.4412C20.6367 20.068 20.6446 20.004 21.2212 19.6915C21.5841 19.4949 21.993 19.4949 22.3738 19.6916ZM36.1448 19.7937C36.3154 19.9371 36.5036 20.2221 36.563 20.4269C36.6333 20.6694 36.6604 22.1236 36.6408 24.5983L36.6108 28.3973L35.4698 28.4259L34.3288 28.4546V24.362C34.3288 20.3347 34.3323 20.265 34.5456 19.9941C34.9595 19.4686 35.6544 19.3815 36.1448 19.7937ZM43.3555 32.0952V34.3244L28.6237 34.2986L13.892 34.273L13.8645 32.199C13.8493 31.0583 13.8594 30.0667 13.8866 29.9956C13.9267 29.8914 16.806 29.8662 28.646 29.8662H43.3555V32.0952ZM17.7713 30.4097C17.2905 30.589 16.7598 30.9909 16.4732 31.3929C16.0054 32.0492 15.8243 33.2587 16.1291 33.6932C16.2844 33.9148 16.3244 33.9184 18.6117 33.9184H20.9363L21.1043 33.6621C21.3159 33.3397 21.2547 32.3031 20.9937 31.7865C20.7472 31.2988 20.2534 30.7978 19.7775 30.5531C19.2663 30.29 18.2812 30.2197 17.7713 30.4097ZM24.5916 30.36C23.8699 30.5965 23.252 31.1228 22.9167 31.7865C22.6556 32.3031 22.5944 33.3397 22.806 33.6621L22.9741 33.9184H25.2987C27.586 33.9184 27.6259 33.9148 27.7812 33.6932C28.1176 33.2136 27.8765 31.9238 27.326 31.2591C26.8426 30.6752 26.2167 30.3551 25.4756 30.3128C25.1292 30.2929 24.7313 30.3142 24.5916 30.36ZM31.1561 30.417C30.0101 30.8254 29.3591 31.7634 29.3591 33.0061C29.3591 33.9283 29.331 33.9184 31.9714 33.9184C34.3999 33.9184 34.4544 33.9066 34.5948 33.3475C34.6879 32.977 34.4687 32.0263 34.1745 31.525C33.5753 30.5037 32.2638 30.0223 31.1561 30.417ZM37.7446 30.4277C36.7022 30.8097 36.053 31.7622 36.053 32.9095C36.053 33.9431 35.9895 33.9184 38.6569 33.9184C41.2951 33.9184 41.2256 33.9462 41.2256 32.892C41.2256 31.0776 39.4334 29.8089 37.7446 30.4277ZM19.0619 31.6887C19.3715 31.8063 19.8253 32.2673 19.8253 32.4643C19.8253 32.572 19.5641 32.6015 18.6082 32.6015C17.9318 32.6015 17.3911 32.5599 17.3911 32.508C17.3911 32.3527 17.9177 31.7778 18.1435 31.6866C18.4342 31.5692 18.749 31.5699 19.0619 31.6887ZM25.8053 31.7383C26.0956 31.8883 26.5192 32.3485 26.5192 32.5138C26.5192 32.5621 25.9715 32.6015 25.3021 32.6015C24.0028 32.6015 23.9202 32.5636 24.2648 32.1253C24.4825 31.8484 24.9728 31.5898 25.2819 31.589C25.4101 31.5887 25.6457 31.6559 25.8053 31.7383ZM32.4992 31.7383C32.7895 31.8883 33.2131 32.3485 33.2131 32.5138C33.2131 32.5621 32.6655 32.6015 31.9961 32.6015C30.6911 32.6015 30.6207 32.5684 30.9441 32.1071C31.2696 31.643 31.9859 31.4732 32.4992 31.7383ZM39.3579 31.838C39.4902 31.9246 39.6691 32.1319 39.7555 32.2985L39.9123 32.6015H38.6451C37.4819 32.6015 37.3831 32.5869 37.4408 32.4242C37.6981 31.6996 38.6852 31.3978 39.3579 31.838ZM43.3312 39.8195L43.3577 43.9478H37.7875H32.2173L32.1773 41.947C32.1418 40.1685 32.1121 39.8821 31.9097 39.3699C31.6075 38.6053 30.8924 37.8564 30.1197 37.4953C29.5939 37.2495 29.3873 37.211 28.5984 37.2114C27.8763 37.2118 27.5857 37.2579 27.2072 37.4321C26.5369 37.7408 25.7612 38.501 25.4303 39.1736C25.1557 39.732 25.1493 39.7862 25.1173 41.8465L25.0846 43.9495L19.4884 43.9232L13.892 43.8971L13.8654 39.9074C13.8464 37.0408 13.8714 35.8785 13.9543 35.7787C14.0511 35.6622 16.4111 35.6441 28.6871 35.6657L43.3048 35.6913L43.3312 39.8195ZM15.8898 37.0778C15.4112 37.3095 15.048 37.732 14.8695 38.2644C14.8015 38.4675 14.7541 39.3089 14.7541 40.3158C14.7541 42.5665 14.621 42.4282 16.7871 42.4282C18.3798 42.4282 18.4199 42.4229 18.6635 42.1795C18.9063 41.937 18.9125 41.8918 18.9125 40.3744C18.9125 39.2987 18.8663 38.6627 18.7631 38.3155C18.4071 37.1182 17.0308 36.5253 15.8898 37.0778ZM21.0424 36.9912C20.5009 37.244 20.2309 37.5007 19.9823 37.9991C19.7353 38.4939 19.7239 38.5947 19.7239 40.266C19.7239 42.5628 19.5961 42.4282 21.7761 42.4282C23.3483 42.4282 23.3899 42.4226 23.6332 42.1795C23.8766 41.9364 23.8822 41.8949 23.8816 40.3306C23.881 38.5177 23.8025 38.1178 23.3451 37.5975C22.7729 36.9466 21.7273 36.6713 21.0424 36.9912ZM34.5222 37.0921C34.2764 37.2216 33.9383 37.5218 33.771 37.7589L33.4667 38.19L33.4353 40.1003C33.3942 42.5934 33.2524 42.4282 35.4332 42.4282C37.6523 42.4282 37.494 42.6121 37.4539 40.081L37.4222 38.0902L37.1121 37.7012C36.4617 36.8856 35.3913 36.6338 34.5222 37.0921ZM39.492 37.0921C39.2461 37.2216 38.9081 37.5218 38.7407 37.759L38.4364 38.1901L38.4033 40.0987C38.36 42.5919 38.2194 42.4282 40.4029 42.4282C42.5847 42.4282 42.4828 42.5175 42.5262 40.5644C42.5454 39.702 42.5102 38.8528 42.4416 38.5231C42.1606 37.1707 40.693 36.4587 39.492 37.0921ZM17.2548 38.3652C17.4936 38.5873 17.6306 39.7087 17.5264 40.5875L17.4643 41.1112H16.7685H16.0726V39.8909C16.0726 38.7304 16.0848 38.6585 16.3216 38.422C16.6194 38.1245 16.973 38.1029 17.2548 38.3652ZM22.2569 38.3734C22.5361 38.6523 22.5766 38.8892 22.5426 40.0475L22.513 41.0605L21.7777 41.0903L21.0424 41.1201V39.8953C21.0424 38.7301 21.0544 38.6586 21.2914 38.422C21.5919 38.1217 21.9851 38.1019 22.2569 38.3734ZM35.8872 38.3833C36.1503 38.59 36.1544 38.6128 36.1544 39.8522V41.1112H35.4445H34.7345V39.8909C34.7345 38.7304 34.7467 38.6585 34.9835 38.422C35.2876 38.1182 35.5362 38.1076 35.8872 38.3833ZM40.9213 38.3759C41.1026 38.5569 41.1242 38.7136 41.1242 39.8449V41.1112H40.4142H39.7042V39.8909C39.7042 38.7304 39.7164 38.6585 39.9532 38.422C40.2548 38.1208 40.6472 38.1021 40.9213 38.3759ZM29.2857 38.5846C29.7711 38.7192 30.3222 39.1996 30.6042 39.7339C30.8053 40.1148 30.8234 40.302 30.8265 42.0229L30.8297 43.8971L28.6177 43.9244L26.4057 43.9517L26.4371 41.9912L26.4685 40.0308L26.7743 39.5371C27.3013 38.6864 28.2946 38.3097 29.2857 38.5846ZM44.2683 45.9739V46.683H28.5984H12.9285V45.9739V45.2647H28.5984H44.2683V45.9739Z" fill="#F35427"/>
</g>
<defs>
<clipPath id="clip0_7_1915">
<rect width="56" height="56" fill="white" transform="translate(0.609985)"/>
</clipPath>
</defs>
</svg>
