<svg width="57" height="56" viewBox="0 0 57 56" fill="none" xmlns="http://www.w3.org/2000/svg">
<g id="7517c917-b637-4fe2-9ebb-a9809f676c36-1696572138525-4102515828415223.svg%2Bxml" clip-path="url(#clip0_7_1922)">
<path id="Vector" d="M48.2 0H8.20001C3.78173 0 0.200012 3.58172 0.200012 8V48C0.200012 52.4183 3.78173 56 8.20001 56H48.2C52.6183 56 56.2 52.4183 56.2 48V8C56.2 3.58172 52.6183 0 48.2 0Z" fill="#FFF0E9"/>
<path id="Vector_2" fill-rule="evenodd" clip-rule="evenodd" d="M27.3263 7.12752C27.0195 7.21292 26.6024 7.39223 26.3996 7.52596C25.864 7.87911 25.4484 8.03421 24.3762 8.28089C23.8511 8.40175 23.3224 8.58258 23.2013 8.68267C22.8603 8.9645 22.5602 9.52118 22.5598 9.87251L22.5594 10.1906L21.7888 10.2295C20.7636 10.2812 20.7338 10.3258 20.7338 11.8019V12.9471L20.2803 13.1599C19.3718 13.5865 18.9099 14.3579 18.9088 15.451L18.9082 15.9786L18.1728 16.5556C17.7685 16.8729 17.2891 17.2712 17.1079 17.4409L16.7783 17.7492L16.7773 19.4768L16.7762 21.2045L15.7992 21.9625C15.2619 22.3795 14.6918 22.8422 14.5325 22.991L14.2427 23.2612V25.1359V27.0106L13.3943 27.7799C12.5941 28.5056 12.5193 28.5492 12.0758 28.5492C11.5341 28.5492 11.2 28.8005 11.2 29.2077C11.2 29.5328 11.5338 29.8662 11.8593 29.8662H12.1128V32.074V34.2817L11.7854 34.3787C11.5976 34.4343 11.3922 34.5944 11.3037 34.7542C11.1653 35.0038 11.1655 35.0617 11.3051 35.311C11.4033 35.4863 11.5722 35.6085 11.7615 35.6413L12.0621 35.6932L12.0886 39.8205L12.115 43.9478H11.8604C11.7203 43.9478 11.5144 44.0389 11.4028 44.1504C11.2171 44.3359 11.2 44.488 11.2 45.9513C11.2 47.234 11.2311 47.5942 11.3579 47.7748L11.5157 48H28.1785C44.7796 48 44.8418 47.9993 45.0269 47.7949C45.1925 47.6121 45.2109 47.4122 45.1958 45.9551C45.1772 44.1709 45.1227 43.9905 44.5831 43.9281L44.3147 43.8971V39.7942C44.3147 36.5861 44.3424 35.6886 44.4415 35.6786C44.5112 35.6716 44.6335 35.6603 44.7132 35.6533C44.9686 35.631 45.1768 35.332 45.1768 34.9873C45.1768 34.6021 45.0348 34.4523 44.584 34.3623L44.264 34.2983V32.0823V29.8662H44.5525C44.9201 29.8662 45.1768 29.5841 45.1768 29.1801C45.1768 28.7737 44.8642 28.5492 44.2982 28.5492C43.9089 28.5492 43.799 28.4839 43.0782 27.8234C42.6426 27.4241 42.2634 27.0786 42.2355 27.0555C42.2076 27.0323 42.162 26.1397 42.1341 25.0721L42.0834 23.1309L40.8917 22.1718L39.6999 21.2127V19.6196C39.6999 18.7435 39.6589 17.9188 39.6088 17.787C39.5585 17.6552 39.0793 17.2088 38.5438 16.7951L37.57 16.0427V15.5775C37.57 14.48 37.023 13.5236 36.2026 13.1866L35.7451 12.9987L35.7448 11.8545C35.7444 10.7748 35.7303 10.696 35.4954 10.4615C35.2828 10.2491 35.1515 10.2128 34.5956 10.2128H33.9448L33.8823 9.8329C33.8039 9.35595 33.5021 8.85834 33.1522 8.62938C33.0043 8.53253 32.4886 8.36963 32.0064 8.26742C31.4385 8.14696 30.7724 7.90352 30.1154 7.5762C28.93 6.98569 28.2368 6.87415 27.3263 7.12752ZM29.2026 8.61135C30.3772 9.21959 30.6449 9.32576 31.4396 9.4993C32.3256 9.69269 32.6003 9.82844 32.6003 10.0732C32.6003 10.1896 31.8747 10.2128 28.232 10.2128H23.8638L23.8962 9.9876C23.9245 9.79167 24.0711 9.72643 25.0281 9.48471C25.6974 9.31553 26.3906 9.06004 26.7998 8.83139C27.8669 8.2353 28.3849 8.18789 29.2026 8.61135ZM34.4052 12.2642L34.4352 12.9481H28.2438H22.0523V12.3065C22.0523 11.9535 22.083 11.6341 22.1206 11.5965C22.1583 11.559 24.931 11.54 28.2821 11.5543L34.3752 11.5804L34.4052 12.2642ZM35.9054 14.6C36.1128 14.8409 36.1501 14.9905 36.1501 15.5811C36.1501 15.9644 36.1921 16.3883 36.2434 16.5231C36.2947 16.6579 36.7397 17.0785 37.2323 17.4577C37.7248 17.8369 38.1735 18.1876 38.2293 18.237C38.2858 18.287 38.3531 19.1191 38.3814 20.1158L38.4321 21.9047L39.6239 22.8584L40.8156 23.8122V25.5795C40.8156 26.6002 40.8598 27.4294 40.9203 27.5421C40.9778 27.6495 41.2174 27.919 41.4527 28.1407L41.8805 28.5441L39.7253 28.5467L37.57 28.5492V24.5154C37.57 21.252 37.5414 20.3853 37.4202 19.9775C36.8196 17.9575 34.0661 17.586 32.9579 19.3755L32.651 19.8712L32.6003 24.1849L32.5496 28.4986L31.9202 28.5287L31.2907 28.5586L31.2586 23.5646C31.2296 19.0665 31.2085 18.524 31.0458 18.1012C30.6338 17.0308 29.622 16.2978 28.4402 16.2133C27.4422 16.1419 26.8168 16.3775 26.1062 17.0925C25.1808 18.0236 25.1964 17.9112 25.1964 23.6475V28.5492H24.5372H23.8779L23.8769 24.3703C23.8759 20.1955 23.8757 20.191 23.6371 19.6793C23.1736 18.685 22.1937 18.1313 21.0976 18.2443C20.4587 18.3101 20.0981 18.4807 19.6362 18.9356C18.9364 19.6246 18.9619 19.4334 18.9295 24.2184L18.9 28.5492H16.7526H14.6053L15.0809 28.0669L15.5564 27.5847L15.5842 25.7164L15.6119 23.848L16.4268 23.1847C16.875 22.8199 17.4227 22.3775 17.6439 22.2015L18.0461 21.8814L18.0968 20.0791L18.1475 18.2768L19.1072 17.5337C19.6351 17.125 20.1021 16.7353 20.1452 16.6675C20.1883 16.5998 20.2242 16.2161 20.2251 15.8147C20.226 15.4134 20.2827 14.9623 20.351 14.8125C20.6023 14.2615 20.4855 14.269 28.3747 14.2933L35.6606 14.3157L35.9054 14.6ZM29.1307 17.7781C29.2818 17.8899 29.5081 18.1321 29.6337 18.3163L29.8619 18.6512V23.5496V28.4479H28.1884H26.5149V23.6679C26.5149 19.0286 26.5211 18.875 26.7266 18.4511C27.0327 17.8195 27.6155 17.4847 28.3193 17.5358C28.6465 17.5596 28.9633 17.6542 29.1307 17.7781ZM21.9638 19.6916C22.54 19.9892 22.5594 20.1455 22.5594 24.4937V28.4479H21.393H20.2267V24.4412C20.2267 20.068 20.2346 20.004 20.8112 19.6915C21.1741 19.4949 21.583 19.4949 21.9638 19.6916ZM35.7348 19.7937C35.9054 19.9371 36.0936 20.2221 36.153 20.4269C36.2233 20.6694 36.2504 22.1236 36.2308 24.5983L36.2008 28.3973L35.0598 28.4259L33.9188 28.4546V24.362C33.9188 20.3347 33.9223 20.265 34.1356 19.9941C34.5495 19.4686 35.2444 19.3815 35.7348 19.7937ZM42.9455 32.0952V34.3244L28.2137 34.2986L13.482 34.273L13.4545 32.199C13.4393 31.0583 13.4494 30.0667 13.4766 29.9956C13.5167 29.8914 16.396 29.8662 28.236 29.8662H42.9455V32.0952ZM17.3613 30.4097C16.8805 30.589 16.3498 30.9909 16.0632 31.3929C15.5954 32.0492 15.4143 33.2587 15.7191 33.6932C15.8744 33.9148 15.9144 33.9184 18.2017 33.9184H20.5263L20.6943 33.6621C20.9059 33.3397 20.8447 32.3031 20.5837 31.7865C20.3372 31.2988 19.8434 30.7978 19.3675 30.5531C18.8563 30.29 17.8712 30.2197 17.3613 30.4097ZM24.1816 30.36C23.4599 30.5965 22.842 31.1228 22.5067 31.7865C22.2456 32.3031 22.1844 33.3397 22.396 33.6621L22.5641 33.9184H24.8887C27.176 33.9184 27.2159 33.9148 27.3712 33.6932C27.7076 33.2136 27.4665 31.9238 26.916 31.2591C26.4326 30.6752 25.8067 30.3551 25.0656 30.3128C24.7192 30.2929 24.3213 30.3142 24.1816 30.36ZM30.7461 30.417C29.6001 30.8254 28.9491 31.7634 28.9491 33.0061C28.9491 33.9283 28.921 33.9184 31.5614 33.9184C33.9899 33.9184 34.0444 33.9066 34.1848 33.3475C34.2779 32.977 34.0587 32.0263 33.7645 31.525C33.1653 30.5037 31.8538 30.0223 30.7461 30.417ZM37.3346 30.4277C36.2922 30.8097 35.643 31.7622 35.643 32.9095C35.643 33.9431 35.5795 33.9184 38.2469 33.9184C40.8851 33.9184 40.8156 33.9462 40.8156 32.892C40.8156 31.0776 39.0234 29.8089 37.3346 30.4277ZM18.6519 31.6887C18.9615 31.8063 19.4153 32.2673 19.4153 32.4643C19.4153 32.572 19.1541 32.6015 18.1982 32.6015C17.5218 32.6015 16.9811 32.5599 16.9811 32.508C16.9811 32.3527 17.5077 31.7778 17.7335 31.6866C18.0242 31.5692 18.339 31.5699 18.6519 31.6887ZM25.3953 31.7383C25.6856 31.8883 26.1092 32.3485 26.1092 32.5138C26.1092 32.5621 25.5615 32.6015 24.8921 32.6015C23.5928 32.6015 23.5102 32.5636 23.8548 32.1253C24.0725 31.8484 24.5628 31.5898 24.8719 31.589C25.0001 31.5887 25.2357 31.6559 25.3953 31.7383ZM32.0892 31.7383C32.3795 31.8883 32.8031 32.3485 32.8031 32.5138C32.8031 32.5621 32.2555 32.6015 31.5861 32.6015C30.2811 32.6015 30.2107 32.5684 30.5341 32.1071C30.8596 31.643 31.5759 31.4732 32.0892 31.7383ZM38.9479 31.838C39.0802 31.9246 39.2591 32.1319 39.3455 32.2985L39.5023 32.6015H38.2351C37.0719 32.6015 36.9731 32.5869 37.0308 32.4242C37.2881 31.6996 38.2752 31.3978 38.9479 31.838ZM42.9212 39.8195L42.9477 43.9478H37.3775H31.8073L31.7673 41.947C31.7318 40.1685 31.7021 39.8821 31.4997 39.3699C31.1975 38.6053 30.4824 37.8564 29.7097 37.4953C29.1839 37.2495 28.9773 37.211 28.1884 37.2114C27.4663 37.2118 27.1757 37.2579 26.7972 37.4321C26.1269 37.7408 25.3512 38.501 25.0203 39.1736C24.7457 39.732 24.7393 39.7862 24.7073 41.8465L24.6746 43.9495L19.0784 43.9232L13.482 43.8971L13.4554 39.9074C13.4364 37.0408 13.4614 35.8785 13.5443 35.7787C13.6411 35.6622 16.0011 35.6441 28.2771 35.6657L42.8948 35.6913L42.9212 39.8195ZM15.4798 37.0778C15.0012 37.3095 14.638 37.732 14.4595 38.2644C14.3915 38.4675 14.3441 39.3089 14.3441 40.3158C14.3441 42.5665 14.211 42.4282 16.3771 42.4282C17.9698 42.4282 18.0099 42.4229 18.2535 42.1795C18.4963 41.937 18.5025 41.8918 18.5025 40.3744C18.5025 39.2987 18.4563 38.6627 18.3531 38.3155C17.9971 37.1182 16.6208 36.5253 15.4798 37.0778ZM20.6324 36.9912C20.0909 37.244 19.8209 37.5007 19.5723 37.9991C19.3253 38.4939 19.3139 38.5947 19.3139 40.266C19.3139 42.5628 19.1861 42.4282 21.3661 42.4282C22.9383 42.4282 22.9799 42.4226 23.2232 42.1795C23.4666 41.9364 23.4722 41.8949 23.4716 40.3306C23.471 38.5177 23.3925 38.1178 22.9351 37.5975C22.3629 36.9466 21.3173 36.6713 20.6324 36.9912ZM34.1122 37.0921C33.8664 37.2216 33.5283 37.5218 33.361 37.7589L33.0567 38.19L33.0253 40.1003C32.9842 42.5934 32.8424 42.4282 35.0232 42.4282C37.2423 42.4282 37.084 42.6121 37.0439 40.081L37.0122 38.0902L36.7021 37.7012C36.0517 36.8856 34.9813 36.6338 34.1122 37.0921ZM39.082 37.0921C38.8361 37.2216 38.4981 37.5218 38.3307 37.759L38.0264 38.1901L37.9933 40.0987C37.95 42.5919 37.8094 42.4282 39.9929 42.4282C42.1747 42.4282 42.0728 42.5175 42.1162 40.5644C42.1354 39.702 42.1002 38.8528 42.0316 38.5231C41.7506 37.1707 40.283 36.4587 39.082 37.0921ZM16.8448 38.3652C17.0836 38.5873 17.2206 39.7087 17.1164 40.5875L17.0543 41.1112H16.3585H15.6626V39.8909C15.6626 38.7304 15.6748 38.6585 15.9116 38.422C16.2094 38.1245 16.563 38.1029 16.8448 38.3652ZM21.8469 38.3734C22.1261 38.6523 22.1666 38.8892 22.1326 40.0475L22.103 41.0605L21.3677 41.0903L20.6324 41.1201V39.8953C20.6324 38.7301 20.6444 38.6586 20.8814 38.422C21.1819 38.1217 21.5751 38.1019 21.8469 38.3734ZM35.4772 38.3833C35.7403 38.59 35.7444 38.6128 35.7444 39.8522V41.1112H35.0345H34.3245V39.8909C34.3245 38.7304 34.3367 38.6585 34.5735 38.422C34.8776 38.1182 35.1262 38.1076 35.4772 38.3833ZM40.5113 38.3759C40.6926 38.5569 40.7142 38.7136 40.7142 39.8449V41.1112H40.0042H39.2942V39.8909C39.2942 38.7304 39.3064 38.6585 39.5432 38.422C39.8448 38.1208 40.2372 38.1021 40.5113 38.3759ZM28.8757 38.5846C29.3611 38.7192 29.9122 39.1996 30.1942 39.7339C30.3953 40.1148 30.4134 40.302 30.4165 42.0229L30.4197 43.8971L28.2077 43.9244L25.9957 43.9517L26.0271 41.9912L26.0585 40.0308L26.3643 39.5371C26.8913 38.6864 27.8846 38.3097 28.8757 38.5846ZM43.8583 45.9739V46.683H28.1884H12.5185V45.9739V45.2647H28.1884H43.8583V45.9739Z" fill="#F35427"/>
</g>
<defs>
<clipPath id="clip0_7_1922">
<rect width="56" height="56" fill="white" transform="translate(0.200012)"/>
</clipPath>
</defs>
</svg>
