<svg width="26" height="25" viewBox="0 0 26 25" fill="none" xmlns="http://www.w3.org/2000/svg">
<g id="WAIcon.svg" clip-path="url(#clip0_7_1810)">
<path id="Vector" d="M25.89 12.5C25.89 5.59644 20.2936 0 13.39 0C6.48644 0 0.889999 5.59644 0.889999 12.5C0.889999 19.4036 6.48644 25 13.39 25C20.2936 25 25.89 19.4036 25.89 12.5Z" fill="#0BAD73"/>
<path id="Vector_2" d="M7.70818 18.1818L8.50403 15.3583C7.99227 14.4898 7.72278 13.5016 7.72278 12.4865C7.72278 9.36102 10.2683 6.81818 13.3973 6.81818C16.5262 6.81818 19.0718 9.36102 19.0718 12.4865C19.0718 15.6121 16.5262 18.1549 13.3973 18.1549C12.4224 18.1549 11.4677 17.9056 10.6231 17.4323L7.70818 18.1818ZM10.7722 16.401L10.9458 16.507C11.6822 16.956 12.5299 17.1934 13.3973 17.1934C15.9955 17.1934 18.1092 15.0819 18.1092 12.4865C18.1092 9.89119 15.9955 7.77971 13.3973 7.77971C10.7991 7.77971 8.68539 9.89119 8.68539 12.4865C8.68539 13.3908 8.94266 14.269 9.42937 15.0261L9.54636 15.2081L9.08806 16.8341L10.7722 16.401Z" fill="white"/>
<path id="Vector_3" d="M11.8032 9.84847L11.435 9.82841C11.3194 9.82216 11.2059 9.86074 11.1185 9.9366C10.94 10.0914 10.6545 10.3908 10.5669 10.7809C10.4361 11.3626 10.6382 12.0748 11.1611 12.7871C11.684 13.4993 12.6585 14.6389 14.3816 15.1257C14.9369 15.2825 15.3737 15.1768 15.7107 14.9614C15.9776 14.7909 16.1616 14.5171 16.2279 14.2076L16.2867 13.9334C16.3054 13.8461 16.2611 13.7577 16.18 13.7204L14.9356 13.1474C14.8548 13.1102 14.759 13.1338 14.7047 13.2041L14.2161 13.8367C14.1793 13.8845 14.1161 13.9034 14.059 13.8834C13.7245 13.766 12.6038 13.2971 11.9889 12.1139C11.9622 12.0626 11.9689 12.0003 12.0067 11.9565L12.4736 11.417C12.5212 11.3619 12.5333 11.2845 12.5047 11.2175L11.9682 9.96393C11.9397 9.89717 11.8757 9.85245 11.8032 9.84847Z" fill="white"/>
</g>
<defs>
<clipPath id="clip0_7_1810">
<rect width="25" height="25" fill="white" transform="translate(0.889999)"/>
</clipPath>
</defs>
</svg>
