<svg width="25" height="25" viewBox="0 0 25 25" fill="none" xmlns="http://www.w3.org/2000/svg">
<g id="6039b255-e430-4613-a493-57881bedcfbb-1696578658578-4102515828415223.svg%2Bxml">
<path id="Vector" d="M3.93971 8.31006C4.25045 8.31006 5.3526 8.31006 5.75042 8.31006H18.5004H19.2504C20.4931 8.31006 21.5004 9.31741 21.5004 10.56V18.8101C21.5004 20.0527 20.4931 21.0601 19.2504 21.0601H5.43976C4.61134 21.0601 3.93976 20.3885 3.93976 19.5601L3.93971 8.31006ZM3.93971 8.31006C3.93974 7.56006 3.87546 5.31006 5.75042 5.31006H18.5004" stroke="#FF693D" stroke-width="1.5" stroke-linecap="round" stroke-linejoin="round"/>
<path id="Vector_2" d="M17.375 15.4351C17.9963 15.4351 18.5 14.9314 18.5 14.3101C18.5 13.6888 17.9963 13.1851 17.375 13.1851C16.7537 13.1851 16.25 13.6888 16.25 14.3101C16.25 14.9314 16.7537 15.4351 17.375 15.4351Z" fill="#FF693D"/>
</g>
</svg>
